<svg xmlns="http://www.w3.org/2000/svg" width="150" height="150" fill="#000" xmlns:v="https://vecta.io/nano"><path d="M64.11 21.875a13.28 13.28 0 0 0-11.61 6.831l-4.017 7.231H36.719c-9.924 0-17.969 8.045-17.969 17.969v53.125c0 9.924 8.045 17.969 17.969 17.969h35.145c-1.038-2.488-1.835-5.103-2.363-7.812H36.719a10.16 10.16 0 0 1-10.156-10.157V53.906A10.16 10.16 0 0 1 36.719 43.75H53.08l6.25-11.25a5.47 5.47 0 0 1 4.781-2.813h21.78a5.47 5.47 0 0 1 4.781 2.813l6.25 11.25h16.361a10.16 10.16 0 0 1 10.157 10.156V71.25a40.5 40.5 0 0 1 7.812 3.886v-21.23c0-9.924-8.045-17.969-17.969-17.969h-11.764L97.5 28.706a13.28 13.28 0 0 0-11.61-6.831H64.11zM75 53.125c11.024 0 20.382 7.136 23.706 17.04a40.34 40.34 0 0 0-7.315 2.772c-2.2-6.957-8.707-12-16.391-12a17.19 17.19 0 0 0-17.187 17.188c0 8.255 5.819 15.15 13.579 16.808a40.33 40.33 0 0 0-2.059 7.547C58.256 99.913 50 89.983 50 78.125c0-13.807 11.193-25 25-25zm68.75 56.25c0 18.985-15.39 34.375-34.375 34.375S75 128.36 75 109.375 90.39 75 109.375 75s34.375 15.39 34.375 34.375zm-31.25-18.75c0-1.726-1.399-3.125-3.125-3.125s-3.125 1.399-3.125 3.125v15.625H90.625c-1.726 0-3.125 1.399-3.125 3.125s1.399 3.125 3.125 3.125h15.625v15.625c0 1.726 1.399 3.125 3.125 3.125s3.125-1.399 3.125-3.125V112.5h15.625c1.726 0 3.125-1.399 3.125-3.125s-1.399-3.125-3.125-3.125H112.5V90.625z" fill-opacity=".6"/></svg>