<svg width="300" height="300" viewBox="0 0 300 300" fill="none" xmlns="http://www.w3.org/2000/svg">
<path d="M300 263.635H0V263.837H300V263.635Z" fill="#1B98E0"/>
<path d="M261.402 276.592H250.068V276.793H261.402V276.592Z" fill="#1B98E0"/>
<path d="M193.512 275.191H175.83V275.392H193.512V275.191Z" fill="#1B98E0"/>
<path d="M249.468 269.119H221.202V269.32H249.468V269.119Z" fill="#1B98E0"/>
<path d="M38.0581 270.472H31.4761V270.673H38.0581V270.472Z" fill="#1B98E0"/>
<path d="M66.5339 270.472H43.3979V270.673H66.5339V270.472Z" fill="#1B98E0"/>
<path d="M135.09 273.87H102.6V274.071H135.09V273.87Z" fill="#1B98E0"/>
<path d="M142.2 227.722H26.3518C25.4431 227.722 24.5717 227.237 23.9292 226.375C23.2867 225.513 22.9258 224.343 22.9258 223.124V4.55766C22.9337 3.3452 23.2981 2.18602 23.9398 1.33243C24.5814 0.478846 25.4483 -4.64832e-05 26.3518 3.38406e-09H142.2C143.108 3.38407e-09 143.98 0.484422 144.622 1.3467C145.265 2.20898 145.626 3.37847 145.626 4.59792V223.124C145.626 224.343 145.265 225.513 144.622 226.375C143.98 227.237 143.108 227.722 142.2 227.722ZM26.3518 0.161049C25.4834 0.163177 24.6511 0.627072 24.0371 1.45114C23.423 2.2752 23.0774 3.39226 23.0758 4.55766V223.124C23.0774 224.289 23.423 225.406 24.0371 226.23C24.6511 227.054 25.4834 227.518 26.3518 227.52H142.2C143.068 227.518 143.9 227.054 144.515 226.23C145.129 225.406 145.474 224.289 145.476 223.124V4.55766C145.474 3.39226 145.129 2.2752 144.515 1.45114C143.9 0.627072 143.068 0.163177 142.2 0.161049H26.3518Z" fill="#1B98E0"/>
<path d="M271.986 227.722H156.126C155.218 227.72 154.348 227.234 153.705 226.373C153.063 225.511 152.702 224.343 152.7 223.124V4.55766C152.71 3.34586 153.075 2.1879 153.716 1.33476C154.357 0.481621 155.223 0.00205198 156.126 0H271.986C272.888 0.00419087 273.751 0.484955 274.39 1.33809C275.03 2.19122 275.392 3.34799 275.4 4.55766V223.124C275.4 224.34 275.041 225.508 274.401 226.369C273.761 227.231 272.893 227.717 271.986 227.722ZM156.126 0.161049C155.258 0.163177 154.425 0.627072 153.811 1.45114C153.197 2.2752 152.852 3.39226 152.85 4.55766V223.124C152.852 224.289 153.197 225.406 153.811 226.23C154.425 227.054 155.258 227.518 156.126 227.52H271.986C272.855 227.518 273.687 227.054 274.301 226.23C274.915 225.406 275.261 224.289 275.262 223.124V4.55766C275.261 3.39226 274.915 2.2752 274.301 1.45114C273.687 0.627072 272.855 0.163177 271.986 0.161049H156.126Z" fill="#1B98E0"/>
<path d="M261.402 276.592H250.068V276.793H261.402V276.592Z" fill="#1B98E0"/>
<path d="M193.512 275.191H175.83V275.392H193.512V275.191Z" fill="#1B98E0"/>
<path d="M249.468 269.119H221.202V269.32H249.468V269.119Z" fill="#1B98E0"/>
<path d="M38.0581 270.472H31.4761V270.673H38.0581V270.472Z" fill="#1B98E0"/>
<path d="M66.5339 270.472H43.3979V270.673H66.5339V270.472Z" fill="#1B98E0"/>
<path d="M135.09 273.87H102.6V274.071H135.09V273.87Z" fill="#1B98E0"/>
<path d="M118.164 24.6564H82.5361V133.396H118.164V24.6564Z" fill="#1B98E0"/>
<path d="M120.342 24.6564H84.7139V133.396H120.342V24.6564Z" fill="#1B98E0"/>
<path d="M116.436 128.5V29.5524L88.62 29.5524V128.5H116.436Z" fill="white"/>
<path d="M116.43 128.5V29.5524H114.786V128.5H116.43Z" fill="#1B98E0"/>
<path d="M118.722 99.1169H86.3281V105.688H118.722V99.1169Z" fill="#1B98E0"/>
<path d="M118.722 38.1844H86.3281V44.7552H118.722V38.1844Z" fill="#1B98E0"/>
<path d="M166.2 24.6564H130.572V133.396H166.2V24.6564Z" fill="#1B98E0"/>
<path d="M168.372 24.6564H132.744V133.396H168.372V24.6564Z" fill="#1B98E0"/>
<path d="M164.466 128.5V29.5524L136.65 29.5524V128.5H164.466Z" fill="white"/>
<path d="M164.466 128.5V29.5524H162.822V128.5H164.466Z" fill="#1B98E0"/>
<path d="M166.758 99.1169H134.364V105.688H166.758V99.1169Z" fill="#1B98E0"/>
<path d="M166.758 38.1844H134.364V44.7552H166.758V38.1844Z" fill="#1B98E0"/>
<path d="M70.128 24.6564H34.5V133.396H70.128V24.6564Z" fill="#1B98E0"/>
<path d="M72.3057 24.6564H36.6777V133.396H72.3057V24.6564Z" fill="#1B98E0"/>
<path d="M68.3999 128.5V29.5524L40.5839 29.5524V128.5H68.3999Z" fill="white"/>
<path d="M68.394 128.492V29.5443H66.75V128.492H68.394Z" fill="#1B98E0"/>
<path d="M70.686 99.1169H38.292V105.688H70.686V99.1169Z" fill="#1B98E0"/>
<path d="M70.686 38.1844H38.292V44.7552H70.686V38.1844Z" fill="#1B98E0"/>
<path d="M197.532 155.017H191.706V263.635H197.532V155.017Z" fill="#1B98E0"/>
<path d="M199.092 155.017H195.66V263.635H199.092V155.017Z" fill="#1B98E0"/>
<path d="M117.426 163.158H200.154V155.009H117.426V163.158Z" fill="#1B98E0"/>
<path d="M39.0662 155.017H33.2402V263.635H39.0662V155.017Z" fill="#1B98E0"/>
<path d="M40.1581 155.017H36.7261V263.635H40.1581V155.017Z" fill="#1B98E0"/>
<path d="M32.2022 163.158H114.93V155.009H32.2022V163.158Z" fill="#1B98E0"/>
<path d="M116.928 155.017H111.102V263.635H116.928V155.017Z" fill="#1B98E0"/>
<path d="M118.488 155.017H115.056V263.635H118.488V155.017Z" fill="#1B98E0"/>
<path d="M102.102 118.885H145.302L148.692 153.116H105.498L102.102 118.885Z" fill="#1B98E0"/>
<path d="M105.498 153.116L105.672 155.009H148.872L148.698 153.116H105.498Z" fill="#1B98E0"/>
<path d="M103.434 118.885H146.628L150.024 153.116H106.824L103.434 118.885Z" fill="#1B98E0"/>
<path d="M107.868 151.554L104.79 120.448H145.584L148.668 151.554H107.868Z" fill="white"/>
<path d="M118.08 153.116L118.254 155.009H165.828L165.648 153.116H118.08Z" fill="#1B98E0"/>
<path d="M196.14 125.617H174.756C171.116 125.573 167.59 127.322 164.846 130.531C162.101 133.741 160.329 138.189 159.864 143.035L156.738 174.737L145.122 174.681H145.086C142.496 174.598 139.981 175.853 138.06 178.185C136.138 180.518 134.957 183.751 134.76 187.218L134.076 198.089C132.949 198.302 131.907 199.007 131.108 200.094C130.309 201.18 129.798 202.59 129.654 204.104H187.02C190.657 204.148 194.179 202.401 196.921 199.195C199.664 195.988 201.435 191.544 201.9 186.703L206.4 141.207C206.571 139.257 206.434 137.281 205.998 135.407C205.561 133.534 204.835 131.805 203.867 130.334C202.898 128.862 201.71 127.682 200.378 126.869C199.047 126.056 197.602 125.63 196.14 125.617ZM145.74 197.976H137.16L137.808 187.975C137.949 185.412 138.818 183.02 140.237 181.294C141.655 179.567 143.514 178.638 145.428 178.699H145.458L156.354 178.747L155.592 186.453C155.283 189.663 154.108 192.609 152.289 194.733C150.47 196.856 148.133 198.011 145.722 197.976H145.74Z" fill="#1B98E0"/>
<path d="M142.902 204.072H139.926L132.954 263.635H135.93L142.902 204.072Z" fill="#1B98E0"/>
<path d="M154.074 204.072H151.098L144.12 263.635H147.096L154.074 204.072Z" fill="#1B98E0"/>
<path d="M180.282 204.072H183.258L190.236 263.635H187.26L180.282 204.072Z" fill="#1B98E0"/>
<path d="M169.116 204.072H172.092L179.064 263.635H176.088L169.116 204.072Z" fill="#1B98E0"/>
<path d="M263.766 26.5648H205.752V189.231H263.766V26.5648Z" fill="#1B98E0"/>
<path d="M267.798 26.5648H206.826V189.231H267.798V26.5648Z" fill="#1B98E0"/>
<path d="M262.686 182.379V33.4255L211.926 33.4255V182.379H262.686Z" fill="#1B98E0"/>
<path d="M229.926 182.379L236.214 33.4175H244.698L238.41 182.379H229.926Z" fill="white"/>
<path d="M240.012 182.379L246.3 33.4175H254.784L248.496 182.379H240.012Z" fill="white"/>
<path d="M150 300C214.249 300 266.334 295.919 266.334 290.885C266.334 285.851 214.249 281.77 150 281.77C85.7505 281.77 33.666 285.851 33.666 290.885C33.666 295.919 85.7505 300 150 300Z" fill="#1B98E0"/>
<path d="M144.486 53.629L135.18 236.008H248.652L258.93 34.5206H159.702L144.486 53.629Z" fill="#1B98E0"/>
<path opacity="0.8" d="M144.486 53.629L135.18 236.008H248.652L258.93 34.5206H159.702L144.486 53.629Z" fill="white"/>
<path d="M239.366 96.0943C247.01 86.1803 247.615 70.3763 240.716 60.7952C233.817 51.214 222.027 51.4839 214.383 61.3979C206.738 71.3119 206.134 87.1159 213.033 96.6971C219.932 106.278 231.722 106.008 239.366 96.0943Z" fill="#1B98E0"/>
<path d="M238.708 95.1793C245.949 85.7876 246.522 70.8166 239.987 61.7407C233.452 52.6649 222.283 52.9209 215.042 62.3127C207.8 71.7045 207.227 86.6754 213.763 95.7513C220.298 104.827 231.466 104.571 238.708 95.1793Z" fill="white"/>
<path d="M222.246 86.9659L218.778 86.6599C218.778 86.6599 217.164 97.8044 216.132 98.7385C214.722 100.051 211.932 103.224 210.078 104.375C209.886 105.129 209.847 105.938 209.964 106.718C212.844 106.718 218.172 102.869 219.09 101.194C221.196 97.434 222.246 86.9659 222.246 86.9659Z" fill="#FFC3BD"/>
<path d="M223.902 79.9766C224.952 82.6017 221.682 92.0552 221.682 92.0552L217.229 90.187C217.357 87.2804 217.859 84.4254 218.711 81.7481C219.815 78.664 222.75 77.0938 223.902 79.9766Z" fill="#263238"/>
<path opacity="0.2" d="M220.5 84.8079C221.1 86.7082 220.314 91.2981 219.696 94.205C218.19 90.7425 217.98 87.5215 220.5 84.8079Z" fill="black"/>
<path d="M220.482 80.4435C219.798 83.8013 218.454 92.6187 219.552 106.461H231.27C231.54 103.828 231.198 90.968 233.952 78.5592C232.556 78.1885 231.142 77.9463 229.722 77.8345C227.911 77.6935 226.096 77.6935 224.286 77.8345C223.513 77.9308 222.748 78.1195 222 78.3982C221.636 78.5329 221.305 78.7923 221.039 79.1509C220.773 79.5096 220.581 79.955 220.482 80.4435Z" fill="#263238"/>
<path opacity="0.2" d="M230.964 81.6191C230.61 83.6644 230.748 88.5522 231.81 94.205C232.124 89.3367 232.753 84.5141 233.688 79.7912C232.854 79.6543 231.3 79.7188 230.964 81.6191Z" fill="black"/>
<path d="M229.482 71.0061C228.978 73.3574 228.606 76.2643 229.722 77.8345C229.722 77.8345 228.852 80.2503 225.606 80.2503C222.636 80.2503 224.286 77.8345 224.286 77.8345C226.278 77.2065 226.404 73.9694 226.188 72.1496L229.482 71.0061Z" fill="#FFC3BD"/>
<path d="M225.6 80.21C225.902 80.8923 226.064 81.6706 226.068 82.4647C226.068 82.4647 230.268 80.5402 230.268 77.7138C230.268 77.7138 229.722 77.2548 229.38 76.9085C229.392 76.8844 229.11 79.0827 225.6 80.21Z" fill="white"/>
<path d="M225.485 80.2099C225.107 80.8231 224.826 81.5325 224.657 82.2955C224.162 81.7876 223.801 81.0815 223.625 80.2794C223.449 79.4774 223.468 78.6211 223.679 77.8345C224.028 77.6471 224.387 77.4963 224.753 77.3835C224.753 77.3835 224.243 79.606 225.485 80.2099Z" fill="white"/>
<path opacity="0.2" d="M226.199 72.1496C226.372 73.4429 226.275 74.7752 225.917 75.9986C226.227 75.9393 226.528 75.8199 226.811 75.6443C227.963 74.9437 228.581 73.8486 229.259 72.2301C229.325 71.8113 229.409 71.4248 229.493 71.0061L226.199 72.1496Z" fill="black"/>
<path d="M223.35 69.9754C223.439 70.3319 223.582 70.6595 223.771 70.9369C223.961 71.2143 224.191 71.4354 224.448 71.5859C225.15 71.9885 225.648 71.1269 225.606 70.1365C225.564 69.146 225.12 67.9543 224.346 67.9704C224.171 67.9816 224.001 68.0477 223.849 68.1632C223.697 68.2788 223.568 68.4406 223.471 68.6356C223.374 68.8306 223.312 69.0535 223.291 69.2862C223.27 69.5189 223.29 69.755 223.35 69.9754Z" fill="#FFC3BD"/>
<path opacity="0.2" d="M223.35 69.9754C223.439 70.3319 223.582 70.6595 223.771 70.9369C223.961 71.2143 224.191 71.4354 224.448 71.5859C225.15 71.9885 225.648 71.1269 225.606 70.1365C225.564 69.146 225.12 67.9543 224.346 67.9704C224.171 67.9816 224.001 68.0477 223.849 68.1632C223.697 68.2788 223.568 68.4406 223.471 68.6356C223.374 68.8306 223.312 69.0535 223.291 69.2862C223.27 69.5189 223.29 69.755 223.35 69.9754Z" fill="black"/>
<path d="M226.488 63.3966C226.26 61.5365 224.214 64.8058 224.652 66.529C225.09 68.2522 226.74 65.4902 226.488 63.3966Z" fill="#263238"/>
<path d="M230.868 68.1153C230.118 71.2316 229.794 73.0917 228.324 74.4284C227.879 74.8849 227.346 75.1603 226.788 75.2219C226.23 75.2835 225.67 75.1286 225.176 74.7757C224.682 74.4228 224.273 73.8867 224 73.2313C223.726 72.5759 223.598 71.8287 223.632 71.0786C223.692 68.1314 224.91 63.5335 227.394 62.8088C229.878 62.0841 231.6 64.999 230.868 68.1153Z" fill="#FFC3BD"/>
<path d="M230.184 66.2713C227.652 65.7882 224.016 65.1601 225.336 62.382C226.59 59.7328 231.594 60.2159 230.076 61.3916C232.038 61.5446 234.534 62.8088 232.65 63.6784C234.168 65.1279 233.568 69.0091 230.67 70.3619C229.836 68.7353 229.2 68.0187 230.184 66.2713Z" fill="#263238"/>
<path d="M231.227 71.8274C230.799 72.4159 230.225 72.7716 229.613 72.8259C228.821 72.8822 228.671 71.8676 229.097 70.9899C229.523 70.1122 230.351 69.2184 231.047 69.5808C231.743 69.9431 231.761 71.0865 231.227 71.8274Z" fill="#FFC3BD"/>
<path d="M227.225 68.1798C227.177 68.4374 227.039 68.6146 226.913 68.5904C226.787 68.5663 226.733 68.3328 226.787 68.0751C226.841 67.8174 226.973 67.6322 227.093 67.6644C227.213 67.6966 227.279 67.9221 227.225 68.1798Z" fill="#263238"/>
<path d="M225.12 67.6805C225.072 67.9382 224.934 68.1234 224.814 68.0912C224.694 68.059 224.634 67.8335 224.682 67.5758C224.73 67.3182 224.868 67.141 224.994 67.1652C225.12 67.1893 225.174 67.4228 225.12 67.6805Z" fill="#263238"/>
<path d="M225.767 67.9705C225.39 68.7018 224.947 69.3672 224.447 69.9513C224.554 70.1064 224.686 70.2263 224.832 70.3017C224.979 70.3772 225.137 70.4061 225.293 70.3862L225.767 67.9705Z" fill="#ED847E"/>
<path d="M225.702 71.2235C225.695 71.2216 225.688 71.2178 225.682 71.2123C225.676 71.2067 225.671 71.1996 225.667 71.1913C225.663 71.183 225.66 71.1738 225.659 71.1641C225.658 71.1544 225.658 71.1445 225.66 71.135C225.665 71.1152 225.675 71.0982 225.688 71.0866C225.701 71.075 225.716 71.0694 225.732 71.0705C225.972 71.1271 226.218 71.111 226.453 71.0232C226.687 70.9354 226.904 70.7783 227.088 70.5632C227.093 70.5562 227.099 70.5506 227.106 70.5467C227.112 70.5429 227.12 70.5409 227.127 70.5409C227.134 70.5409 227.141 70.5429 227.148 70.5467C227.155 70.5506 227.161 70.5562 227.166 70.5632C227.177 70.5783 227.183 70.5985 227.183 70.6196C227.183 70.6407 227.177 70.6609 227.166 70.676C226.969 70.911 226.735 71.0825 226.481 71.1774C226.227 71.2723 225.961 71.2881 225.702 71.2235Z" fill="#263238"/>
<path d="M228.041 67.3907C228.025 67.3874 228.01 67.3782 227.997 67.364C227.984 67.3498 227.975 67.3312 227.969 67.3102C227.92 67.1396 227.839 66.9887 227.734 66.8718C227.629 66.7549 227.503 66.6757 227.369 66.6418C227.355 66.6412 227.341 66.6363 227.328 66.6274C227.315 66.6185 227.304 66.6058 227.296 66.5903C227.287 66.5749 227.281 66.557 227.278 66.538C227.275 66.519 227.276 66.4995 227.279 66.4808C227.285 66.4403 227.302 66.404 227.326 66.3788C227.35 66.3536 227.381 66.3412 227.411 66.3439C227.581 66.3772 227.742 66.4689 227.877 66.61C228.013 66.7511 228.119 66.9368 228.185 67.1491C228.195 67.1876 228.194 67.2299 228.182 67.2672C228.17 67.3046 228.147 67.3343 228.119 67.3504C228.109 67.3641 228.097 67.3748 228.084 67.3818C228.07 67.3887 228.056 67.3917 228.041 67.3907Z" fill="#263238"/>
<path d="M224.4 66.4324C224.386 66.4391 224.371 66.4391 224.358 66.4324C224.347 66.4188 224.339 66.4026 224.333 66.3846C224.327 66.3666 224.324 66.3472 224.324 66.3277C224.324 66.3081 224.327 66.2888 224.333 66.2708C224.339 66.2528 224.347 66.2365 224.358 66.223C224.477 66.0332 224.628 65.882 224.797 65.7802C224.966 65.6785 225.15 65.6289 225.336 65.6352C225.35 65.6381 225.363 65.6448 225.376 65.655C225.388 65.6651 225.399 65.6785 225.407 65.6942C225.416 65.71 225.421 65.7278 225.425 65.7467C225.428 65.7656 225.428 65.7852 225.426 65.8043C225.42 65.8463 225.402 65.8837 225.377 65.9091C225.351 65.9345 225.319 65.946 225.288 65.9412C225.141 65.9388 224.996 65.9801 224.864 66.0623C224.731 66.1445 224.613 66.2654 224.52 66.4162C224.503 66.4346 224.483 66.446 224.461 66.4489C224.44 66.4517 224.418 66.446 224.4 66.4324Z" fill="#263238"/>
<path d="M234.983 82.8673L231.809 85.13C231.809 85.13 234.875 95.2761 234.353 96.798C233.639 98.8755 232.457 103.441 231.293 105.704C231.431 106.458 231.724 107.145 232.139 107.685C234.683 105.623 237.809 98.6581 237.947 96.645C238.259 92.047 234.983 82.8673 234.983 82.8673Z" fill="#FFC3BD"/>
<path d="M233.952 78.5593C236.172 79.0827 237.804 89.6958 237.804 89.6958L232.332 91.7974C231.554 89.3568 230.91 86.8431 230.406 84.2765C229.68 80.3469 231.6 77.9876 233.952 78.5593Z" fill="#263238"/>
<path d="M232.446 105.325L230.184 105.108L231.156 108.474C231.156 108.474 233.148 108.579 233.616 106.533L232.446 105.325Z" fill="#FFC3BD"/>
<path d="M228.228 106.654L229.23 109.633L231.156 108.474L230.184 105.108L228.228 106.654Z" fill="#FFC3BD"/>
<path d="M233.327 214.514C240.971 204.599 241.575 188.795 234.676 179.214C227.778 169.633 215.988 169.903 208.344 179.817C200.699 189.731 200.095 205.535 206.994 215.116C213.893 224.697 225.683 224.428 233.327 214.514Z" fill="#1B98E0"/>
<path d="M232.668 213.591C239.91 204.199 240.483 189.228 233.948 180.152C227.412 171.076 216.244 171.332 209.003 180.724C201.761 190.116 201.188 205.087 207.724 214.163C214.259 223.238 225.427 222.982 232.668 213.591Z" fill="white"/>
<path d="M214.704 205.61L211.446 204.185C211.446 204.185 207.9 214.653 206.742 215.281C205.158 216.086 201.942 218.349 199.956 218.888C199.633 219.573 199.447 220.358 199.416 221.167C202.164 222.117 207.942 220.024 209.124 218.663C211.8 215.571 214.704 205.61 214.704 205.61Z" fill="#FFB573"/>
<path d="M217.542 199.224C218.07 202.155 213.246 210.457 213.246 210.457L209.34 207.14C209.983 204.321 210.975 201.667 212.274 199.289C213.882 196.607 216.96 196.011 217.542 199.224Z" fill="#1B98E0"/>
<path opacity="0.3" d="M217.542 199.224C218.07 202.155 213.246 210.457 213.246 210.457L209.34 207.14C209.983 204.321 210.975 201.667 212.274 199.289C213.882 196.607 216.96 196.011 217.542 199.224Z" fill="black"/>
<path opacity="0.2" d="M214.493 202.872C214.859 204.901 214.529 208.146 213.563 210.924C212.705 209.177 211.703 205.014 214.493 202.872Z" fill="black"/>
<path d="M214.439 198.894C213.755 202.252 212.417 211.07 213.509 224.912H225.234C225.504 222.279 225.155 209.419 227.909 197.01C226.513 196.639 225.1 196.397 223.679 196.285C221.869 196.144 220.054 196.144 218.243 196.285C217.471 196.382 216.706 196.571 215.957 196.849C215.594 196.985 215.264 197.245 214.998 197.604C214.732 197.962 214.539 198.407 214.439 198.894Z" fill="#1B98E0"/>
<path opacity="0.3" d="M214.439 198.894C213.755 202.252 212.417 211.07 213.509 224.912H225.234C225.504 222.279 225.155 209.419 227.909 197.01C226.513 196.639 225.1 196.397 223.679 196.285C221.869 196.144 220.054 196.144 218.243 196.285C217.471 196.382 216.706 196.571 215.957 196.849C215.594 196.985 215.264 197.245 214.998 197.604C214.732 197.962 214.539 198.407 214.439 198.894Z" fill="black"/>
<path opacity="0.2" d="M224.963 202.671C224.609 204.716 224.297 209.572 225.767 212.615C226.084 207.747 226.715 202.924 227.651 198.202C226.799 198.089 225.299 200.754 224.963 202.671Z" fill="black"/>
<g opacity="0.95">
<path opacity="0.95" d="M219.413 202.566L218.771 202.945L218.279 202.349C217.654 201.654 217.2 200.721 216.976 199.674C216.753 198.626 216.77 197.513 217.025 196.479C217.422 196.373 217.823 196.295 218.225 196.245C220.036 196.104 221.851 196.104 223.661 196.245C224.081 196.245 224.501 196.318 224.909 196.374L224.501 197.075C223.125 199.382 221.388 201.257 219.413 202.566Z" fill="white"/>
</g>
<path d="M223.446 189.417C222.936 191.768 222.564 194.675 223.68 196.245C222.418 198.341 220.834 200.047 219.036 201.245C218.486 200.671 218.105 199.854 217.96 198.939C217.815 198.024 217.916 197.07 218.244 196.245C220.242 195.617 220.362 192.38 220.146 190.56L223.446 189.417Z" fill="#FFB573"/>
<path opacity="0.2" d="M220.146 190.56C220.319 191.853 220.221 193.186 219.864 194.409C220.175 194.349 220.478 194.229 220.764 194.055C221.91 193.354 222.528 192.259 223.206 190.64C223.278 190.222 223.356 189.835 223.446 189.417L220.146 190.56Z" fill="black"/>
<path d="M217.308 188.426C217.396 188.784 217.541 189.112 217.731 189.39C217.921 189.667 218.153 189.888 218.412 190.037C219.114 190.439 219.612 189.578 219.564 188.587C219.516 187.597 219.078 186.405 218.31 186.421C218.135 186.431 217.964 186.496 217.811 186.611C217.658 186.726 217.528 186.888 217.43 187.083C217.333 187.278 217.271 187.502 217.25 187.735C217.228 187.968 217.248 188.205 217.308 188.426Z" fill="#FFB573"/>
<path opacity="0.2" d="M217.308 188.426C217.396 188.784 217.541 189.112 217.731 189.39C217.921 189.667 218.153 189.888 218.412 190.037C219.114 190.439 219.612 189.578 219.564 188.587C219.516 187.597 219.078 186.405 218.31 186.421C218.135 186.431 217.964 186.496 217.811 186.611C217.658 186.726 217.528 186.888 217.43 187.083C217.333 187.278 217.271 187.502 217.25 187.735C217.228 187.968 217.248 188.205 217.308 188.426Z" fill="black"/>
<path d="M220.085 182.878C219.857 180.776 218.117 183.184 217.919 184.722C217.721 186.26 218.681 187.814 219.335 186.333C219.989 184.851 220.199 184.013 220.085 182.878Z" fill="#263238"/>
<path d="M224.826 186.526C224.076 189.642 223.752 191.494 222.282 192.839C221.837 193.295 221.304 193.571 220.746 193.632C220.188 193.694 219.628 193.539 219.134 193.186C218.64 192.833 218.232 192.297 217.958 191.642C217.684 190.986 217.556 190.239 217.59 189.489C217.65 186.542 218.868 181.944 221.352 181.219C223.836 180.495 225.6 183.41 224.826 186.526Z" fill="#FFB573"/>
<path d="M223.691 189.787C222.791 188.982 222.629 188.676 223.091 187.951C223.871 186.775 222.713 186.606 223.325 185.149C224.177 183.12 221.459 184.545 221.411 183.071C221.369 181.872 219.011 184.03 218.765 182.645C218.411 180.567 220.679 180.954 221.075 179.939C221.471 178.924 223.799 178.771 224.171 180.253C224.543 181.735 225.713 180.551 226.475 182.355C227.237 184.158 225.659 184.295 226.421 186.051C227.021 187.46 225.863 188.466 225.041 189.586C224.549 190.31 224.249 190.294 223.691 189.787Z" fill="#263238"/>
<path d="M225.335 189.811C224.947 190.45 224.395 190.872 223.788 190.995C222.996 191.14 222.78 190.19 223.152 189.231C223.524 188.273 224.291 187.331 225.011 187.621C225.731 187.911 225.821 189.014 225.335 189.811Z" fill="#FFB573"/>
<path d="M221.184 186.59C221.136 186.848 220.998 187.025 220.878 187.001C220.758 186.977 220.698 186.743 220.746 186.486C220.794 186.228 220.932 186.043 221.058 186.075C221.184 186.107 221.238 186.333 221.184 186.59Z" fill="#263238"/>
<path d="M219.084 186.091C219.03 186.348 218.892 186.534 218.772 186.501C218.652 186.469 218.592 186.244 218.64 185.986C218.688 185.728 218.832 185.551 218.952 185.575C219.072 185.6 219.132 185.833 219.084 186.091Z" fill="#263238"/>
<path d="M219.726 186.381C219.352 187.113 218.91 187.778 218.412 188.362C218.518 188.517 218.65 188.637 218.797 188.712C218.943 188.788 219.101 188.816 219.258 188.797L219.726 186.381Z" fill="#ED893E"/>
<path d="M219.659 189.634C219.652 189.632 219.646 189.629 219.64 189.623C219.634 189.617 219.629 189.61 219.625 189.601C219.622 189.593 219.62 189.584 219.62 189.574C219.619 189.564 219.621 189.554 219.623 189.546C219.626 189.526 219.635 189.508 219.647 189.496C219.659 189.484 219.674 189.479 219.689 189.481C219.929 189.538 220.176 189.522 220.41 189.434C220.645 189.346 220.862 189.189 221.045 188.974C221.051 188.967 221.057 188.961 221.063 188.958C221.07 188.954 221.077 188.952 221.084 188.952C221.092 188.952 221.099 188.954 221.106 188.958C221.112 188.961 221.118 188.967 221.123 188.974C221.129 188.981 221.133 188.989 221.135 188.998C221.138 189.007 221.14 189.016 221.14 189.026C221.14 189.036 221.138 189.046 221.135 189.054C221.133 189.063 221.129 189.072 221.123 189.079C220.927 189.315 220.693 189.488 220.439 189.584C220.186 189.68 219.919 189.698 219.659 189.634Z" fill="#263238"/>
<path d="M222 185.801C221.983 185.798 221.968 185.789 221.955 185.774C221.942 185.76 221.933 185.742 221.928 185.721C221.878 185.55 221.797 185.399 221.692 185.282C221.587 185.165 221.462 185.086 221.328 185.052C221.314 185.05 221.3 185.045 221.288 185.035C221.275 185.026 221.265 185.013 221.256 184.998C221.248 184.983 221.242 184.966 221.239 184.947C221.235 184.929 221.235 184.91 221.238 184.891C221.243 184.851 221.26 184.814 221.284 184.789C221.309 184.764 221.339 184.752 221.37 184.754C221.539 184.788 221.7 184.879 221.835 185.02C221.971 185.161 222.077 185.347 222.144 185.56C222.154 185.598 222.152 185.64 222.14 185.678C222.128 185.715 222.106 185.745 222.078 185.761C222.067 185.775 222.055 185.785 222.042 185.792C222.028 185.799 222.014 185.802 222 185.801Z" fill="#263238"/>
<path d="M218.334 184.843C218.32 184.848 218.305 184.848 218.292 184.843C218.281 184.829 218.273 184.813 218.267 184.795C218.261 184.777 218.258 184.758 218.258 184.738C218.258 184.718 218.261 184.699 218.267 184.681C218.273 184.663 218.281 184.647 218.292 184.633C218.409 184.441 218.558 184.289 218.726 184.187C218.895 184.085 219.079 184.036 219.264 184.046C219.278 184.048 219.292 184.055 219.304 184.065C219.316 184.075 219.327 184.089 219.335 184.105C219.344 184.12 219.35 184.138 219.353 184.157C219.356 184.176 219.356 184.196 219.354 184.215C219.348 184.255 219.331 184.291 219.307 184.317C219.283 184.342 219.252 184.354 219.222 184.352C219.075 184.348 218.93 184.389 218.797 184.471C218.664 184.553 218.547 184.675 218.454 184.827C218.436 184.843 218.416 184.854 218.395 184.856C218.374 184.859 218.353 184.854 218.334 184.843Z" fill="#263238"/>
<path d="M229.2 201.64L225.864 203.347C225.864 203.347 227.898 214.033 227.238 215.466C226.338 217.423 224.736 221.787 223.374 223.849C223.433 224.624 223.656 225.362 224.016 225.974C226.71 224.364 230.46 217.922 230.79 215.933C231.528 211.384 229.2 201.64 229.2 201.64Z" fill="#FFB573"/>
<path d="M228.599 197.147C230.729 198.057 231.311 208.952 231.311 208.952L225.731 210.111C225.202 207.536 224.813 204.912 224.567 202.26C224.219 198.202 226.307 196.173 228.599 197.147Z" fill="#1B98E0"/>
<path opacity="0.3" d="M228.599 197.147C230.729 198.057 231.311 208.952 231.311 208.952L225.731 210.111C225.202 207.536 224.813 204.912 224.567 202.26C224.219 198.202 226.307 196.173 228.599 197.147Z" fill="black"/>
<path d="M224.525 223.672L222.323 223.06L222.959 226.595C222.959 226.595 224.903 227.045 225.563 225.081L224.525 223.672Z" fill="#FFB573"/>
<path d="M220.26 224.275L220.956 227.424L222.96 226.595L222.324 223.06L220.26 224.275Z" fill="#FFB573"/>
<path d="M180.865 155.308C188.509 145.394 189.113 129.59 182.214 120.009C175.315 110.428 163.526 110.698 155.881 120.612C148.237 130.526 147.633 146.33 154.532 155.911C161.431 165.492 173.22 165.222 180.865 155.308Z" fill="#1B98E0"/>
<path d="M180.206 154.393C187.447 145.002 188.02 130.031 181.485 120.955C174.95 111.879 163.781 112.135 156.54 121.527C149.298 130.918 148.726 145.889 155.261 154.965C161.796 164.041 172.964 163.785 180.206 154.393Z" fill="white"/>
<path d="M175.746 143.534C175.836 145.45 175.908 147.383 175.962 149.308L176.136 155.057L176.166 155.757L176.208 156.369C176.256 156.788 176.292 157.223 176.358 157.674C176.484 158.56 176.646 159.462 176.838 160.363C177.198 162.175 177.636 164.003 178.038 165.807L176.796 166.612C176.044 164.906 175.381 163.133 174.81 161.306C174.534 160.38 174.276 159.437 174.054 158.447C173.935 157.944 173.837 157.434 173.76 156.917L173.658 156.112L173.598 155.371C173.28 151.474 173.07 147.633 172.956 143.759L175.746 143.534Z" fill="#FF8B7B"/>
<path d="M175.086 139.307C176.178 139.685 176.646 145.853 176.646 145.853L172.2 149.775C172.2 149.775 170.814 142.471 171.756 140.828C172.698 139.186 173.484 138.759 175.086 139.307Z" fill="#1B98E0"/>
<path opacity="0.2" d="M174.911 140.691L175.452 146.9L173.646 148.478L174.911 140.691Z" fill="black"/>
<path d="M178.074 165.388L179.274 168.811L176.91 168.899C176.91 168.899 176.22 166.483 176.952 165.251L178.074 165.388Z" fill="#FFB573"/>
<path d="M162.9 123.427C161.022 123.79 157.092 135.836 163.5 141.456C169.908 147.077 174.636 140.691 174.636 140.691C174.636 140.691 170.736 134.475 171.3 130.417C171.864 126.358 174.3 121.245 169.308 119.538C165.792 118.37 161.064 119.498 162.9 123.427Z" fill="#263238"/>
<path d="M179.382 170.502L177.378 170.276L176.934 168.899L179.304 168.811L179.382 170.502Z" fill="#FFB573"/>
<path d="M175.086 139.306C175.086 139.306 176.34 139.918 172.686 161.241H161.676C162.168 155.234 162.36 151.53 160.848 139.202C162.403 138.782 163.979 138.513 165.564 138.396C167.226 138.239 168.894 138.239 170.556 138.396C172.686 138.646 175.086 139.306 175.086 139.306Z" fill="#1B98E0"/>
<path opacity="0.2" d="M161.507 144.09C162.485 144.42 163.307 145.877 163.085 148.567C162.954 149.805 162.577 150.973 161.993 151.949C161.927 149.879 161.753 147.48 161.441 144.412L161.507 144.09Z" fill="black"/>
<path d="M169.734 143.107C169.734 143.107 167.832 145.104 167.724 147.222C166.302 145.748 164.484 141.738 164.406 139.169C164.406 138.956 164.469 138.751 164.581 138.6C164.694 138.449 164.847 138.364 165.006 138.364C165.141 138.351 165.275 138.326 165.408 138.292C165.463 138.276 165.521 138.276 165.576 138.295C165.631 138.313 165.682 138.348 165.726 138.396L169.734 143.107Z" fill="#1B98E0"/>
<path d="M169.733 143.107C170.239 143.53 170.662 144.11 170.966 144.798C171.269 145.487 171.446 146.262 171.479 147.061C173.075 145.571 172.529 141.118 171.791 138.936C171.734 138.766 171.645 138.62 171.532 138.511C171.42 138.402 171.288 138.335 171.149 138.316C170.933 138.316 170.765 138.244 170.651 138.211C170.61 138.202 170.568 138.214 170.533 138.246C170.498 138.277 170.474 138.326 170.465 138.381L169.733 143.107Z" fill="#1B98E0"/>
<path d="M166.439 130.835C166.643 132.993 166.757 136.947 165.563 138.381C166.683 140.341 168.106 141.954 169.733 143.107C172.085 140.692 170.555 138.381 170.555 138.381C168.791 137.809 168.929 136.029 169.325 134.354L166.439 130.835Z" fill="#FF8B7B"/>
<path opacity="0.2" d="M167.616 132.269L169.326 134.346C169.228 134.734 169.156 135.133 169.11 135.538C168.432 135.401 167.4 134.62 167.31 133.621C167.331 133.145 167.436 132.681 167.616 132.269Z" fill="black"/>
<path d="M163.926 127.373C164.49 130.843 164.676 132.325 166.224 133.734C166.742 134.227 167.349 134.528 167.982 134.604C168.615 134.681 169.252 134.531 169.828 134.171C170.404 133.81 170.898 133.251 171.261 132.551C171.624 131.85 171.842 131.033 171.894 130.183C172.104 126.857 171.144 121.744 168.384 121.116C167.758 120.985 167.117 121.059 166.517 121.332C165.917 121.604 165.375 122.068 164.937 122.682C164.499 123.297 164.179 124.044 164.003 124.861C163.826 125.678 163.8 126.539 163.926 127.373Z" fill="#FF8B7B"/>
<path d="M164.664 130.497C166.326 128.371 166.386 125.738 165.966 124.917C167.394 124.756 171.09 123.548 170.496 121.696C169.902 119.844 164.148 118.845 163.356 123.58C161.448 125.722 162.666 130.014 164.664 130.497Z" fill="#263238"/>
<path d="M168.269 127.059C168.305 127.349 168.443 127.542 168.587 127.502C168.731 127.461 168.815 127.196 168.779 126.914C168.743 126.632 168.605 126.423 168.467 126.471C168.329 126.519 168.239 126.777 168.269 127.059Z" fill="#263238"/>
<path d="M170.718 126.342C170.748 126.632 170.892 126.825 171.03 126.785C171.168 126.745 171.264 126.479 171.228 126.189C171.192 125.899 171.054 125.706 170.916 125.746C170.835 125.797 170.771 125.885 170.734 125.995C170.698 126.104 170.692 126.227 170.718 126.342Z" fill="#263238"/>
<path d="M170.85 125.786L171.348 125.432C171.348 125.432 171.144 126.044 170.85 125.786Z" fill="#263238"/>
<path d="M170.021 127.083C170.288 127.68 170.618 128.222 170.999 128.693C170.903 128.83 170.787 128.937 170.658 129.009C170.528 129.082 170.389 129.117 170.249 129.112L170.021 127.083Z" fill="#FF5652"/>
<path d="M169.2 130.562C169.309 130.554 169.417 130.535 169.524 130.505C169.541 130.499 169.556 130.486 169.565 130.466C169.575 130.447 169.58 130.424 169.578 130.4C169.577 130.389 169.575 130.378 169.571 130.368C169.567 130.359 169.561 130.35 169.554 130.344C169.547 130.338 169.539 130.334 169.531 130.332C169.522 130.331 169.514 130.332 169.506 130.336C169.246 130.427 168.973 130.431 168.712 130.348C168.451 130.265 168.208 130.098 168.006 129.861C167.994 129.846 167.978 129.837 167.961 129.837C167.944 129.837 167.928 129.846 167.916 129.861C167.909 129.869 167.904 129.878 167.901 129.888C167.897 129.899 167.896 129.91 167.896 129.921C167.896 129.933 167.897 129.944 167.901 129.954C167.904 129.965 167.909 129.974 167.916 129.982C168.088 130.194 168.291 130.355 168.512 130.455C168.733 130.555 168.967 130.591 169.2 130.562Z" fill="#263238"/>
<path d="M163.578 130.835C163.709 131.121 163.884 131.367 164.091 131.557C164.298 131.747 164.531 131.877 164.778 131.939C165.45 132.108 165.768 131.27 165.57 130.457C165.372 129.644 164.826 128.758 164.16 128.959C164.014 129.002 163.879 129.091 163.765 129.219C163.651 129.347 163.562 129.51 163.505 129.694C163.447 129.878 163.424 130.078 163.437 130.277C163.45 130.475 163.498 130.667 163.578 130.835Z" fill="#FF8B7B"/>
<path d="M167.124 126.423C167.151 126.419 167.177 126.403 167.197 126.379C167.217 126.354 167.232 126.322 167.238 126.286C167.395 125.741 167.705 125.302 168.102 125.062C168.118 125.053 168.133 125.04 168.145 125.023C168.158 125.007 168.167 124.987 168.174 124.965C168.181 124.944 168.184 124.92 168.184 124.897C168.184 124.873 168.181 124.85 168.174 124.828C168.167 124.808 168.158 124.791 168.146 124.776C168.134 124.761 168.121 124.749 168.105 124.742C168.09 124.734 168.074 124.731 168.058 124.732C168.042 124.733 168.026 124.738 168.012 124.748C167.776 124.889 167.564 125.092 167.388 125.345C167.211 125.598 167.075 125.896 166.986 126.221C166.981 126.243 166.98 126.266 166.983 126.288C166.985 126.31 166.991 126.332 167 126.351C167.009 126.37 167.021 126.386 167.035 126.398C167.049 126.411 167.065 126.419 167.082 126.423C167.088 126.427 167.095 126.429 167.103 126.429C167.11 126.429 167.117 126.427 167.124 126.423Z" fill="#263238"/>
<path d="M171.312 124.055C171.334 124.055 171.356 124.048 171.376 124.034C171.396 124.02 171.413 124 171.426 123.975C171.448 123.942 171.461 123.899 171.461 123.854C171.461 123.809 171.448 123.766 171.426 123.733C171.259 123.579 171.068 123.481 170.868 123.446C170.667 123.411 170.464 123.44 170.274 123.532C170.242 123.55 170.217 123.583 170.202 123.624C170.188 123.666 170.186 123.713 170.196 123.757C170.202 123.779 170.211 123.799 170.223 123.815C170.234 123.832 170.248 123.845 170.264 123.854C170.28 123.863 170.297 123.868 170.314 123.868C170.331 123.868 170.348 123.863 170.364 123.854C170.513 123.78 170.674 123.757 170.832 123.787C170.99 123.816 171.141 123.897 171.27 124.023L171.312 124.055Z" fill="#263238"/>
<path d="M168.408 126.503L168.906 126.149C168.906 126.149 168.696 126.769 168.408 126.503Z" fill="#263238"/>
<path d="M161.555 160.38L161.207 161.7C161.159 161.805 161.249 161.91 161.375 161.91H172.691C172.793 161.91 172.877 161.845 172.889 161.757L173.051 160.436C173.051 160.347 172.985 160.267 172.871 160.267H161.741C161.706 160.263 161.67 160.271 161.638 160.291C161.605 160.311 161.577 160.341 161.555 160.38Z" fill="#1B98E0"/>
<path opacity="0.2" d="M161.555 160.38L161.207 161.7C161.159 161.805 161.249 161.91 161.375 161.91H172.691C172.793 161.91 172.877 161.845 172.889 161.757L173.051 160.436C173.051 160.347 172.985 160.267 172.871 160.267H161.741C161.706 160.263 161.67 160.271 161.638 160.291C161.605 160.311 161.577 160.341 161.555 160.38Z" fill="white"/>
<path d="M163.002 162.046H162.702C162.642 162.046 162.6 162.006 162.606 161.958L162.834 160.243C162.834 160.194 162.894 160.154 162.954 160.154H163.254C163.314 160.154 163.356 160.194 163.35 160.243L163.122 161.958C163.116 162.006 163.062 162.046 163.002 162.046Z" fill="#1B98E0"/>
<path opacity="0.4" d="M163.002 162.046H162.702C162.642 162.046 162.6 162.006 162.606 161.958L162.834 160.243C162.834 160.194 162.894 160.154 162.954 160.154H163.254C163.314 160.154 163.356 160.194 163.35 160.243L163.122 161.958C163.116 162.006 163.062 162.046 163.002 162.046Z" fill="black"/>
<path d="M171.846 162.046H171.546C171.486 162.046 171.444 162.006 171.45 161.958L171.678 160.243C171.678 160.194 171.738 160.154 171.798 160.154H172.098C172.158 160.154 172.2 160.194 172.194 160.243L171.966 161.958C171.96 162.006 171.906 162.046 171.846 162.046Z" fill="#1B98E0"/>
<path opacity="0.4" d="M171.846 162.046H171.546C171.486 162.046 171.444 162.006 171.45 161.958L171.678 160.243C171.678 160.194 171.738 160.154 171.798 160.154H172.098C172.158 160.154 172.2 160.194 172.194 160.243L171.966 161.958C171.96 162.006 171.906 162.046 171.846 162.046Z" fill="black"/>
<path d="M167.441 162.046H167.141C167.081 162.046 167.039 162.006 167.045 161.958L167.273 160.243C167.273 160.194 167.333 160.154 167.393 160.154H167.693C167.753 160.154 167.795 160.194 167.789 160.243L167.561 161.958C167.555 162.006 167.501 162.046 167.441 162.046Z" fill="#1B98E0"/>
<path opacity="0.4" d="M167.441 162.046H167.141C167.081 162.046 167.039 162.006 167.045 161.958L167.273 160.243C167.273 160.194 167.333 160.154 167.393 160.154H167.693C167.753 160.154 167.795 160.194 167.789 160.243L167.561 161.958C167.555 162.006 167.501 162.046 167.441 162.046Z" fill="black"/>
<path d="M168.132 164.188L170.886 162.578L169.944 166.129C169.944 166.129 168.222 166.652 167.544 165.509L168.132 164.188Z" fill="#FFB573"/>
<path d="M162.072 144.138C161.76 146.554 161.406 149.042 161.046 151.49C160.872 152.714 160.674 153.905 160.482 155.154L160.2 156.981L160.074 157.787C160.059 157.844 160.059 157.907 160.074 157.964C160.172 158.303 160.328 158.607 160.53 158.85C160.808 159.215 161.114 159.541 161.442 159.824C162.177 160.453 162.945 161.01 163.74 161.491C164.55 161.998 165.39 162.465 166.242 162.892C167.094 163.319 167.964 163.697 168.822 164.116L168.51 165.912C166.627 165.498 164.774 164.867 162.972 164.027C162.037 163.597 161.131 163.058 160.266 162.417C159.796 162.065 159.352 161.656 158.94 161.193C158.414 160.636 158.001 159.911 157.74 159.083C157.594 158.57 157.536 158.02 157.572 157.473C157.602 157.126 157.614 157.054 157.632 156.885L157.686 156.418L157.896 154.574C158.046 153.342 158.178 152.11 158.34 150.878C158.646 148.422 158.94 145.966 159.318 143.518L162.072 144.138Z" fill="#FF8B7B"/>
<path d="M160.848 139.21C159.726 139.661 158.142 144.75 158.142 144.75L161.742 150.073C161.742 150.073 163.998 144.597 163.638 142.689C163.278 140.78 162.132 138.695 160.848 139.21Z" fill="#1B98E0"/>
<path d="M173.058 163.327L172.152 166.25L169.944 166.137L170.886 162.586L173.058 163.327Z" fill="#FFB573"/>
<path opacity="0.3" d="M154.392 76.3771H197.4C197.8 76.3687 198.184 76.1602 198.475 75.7924C198.767 75.4245 198.946 74.9238 198.978 74.3881C198.994 74.1335 198.97 73.8772 198.907 73.6358C198.845 73.3944 198.745 73.1732 198.615 72.9865C198.485 72.7998 198.327 72.6519 198.152 72.5521C197.977 72.4523 197.788 72.403 197.598 72.4072H154.596C154.196 72.4153 153.812 72.6224 153.519 72.9884C153.227 73.3544 153.046 73.8532 153.012 74.3881C152.996 74.6431 153.02 74.8998 153.082 75.1416C153.144 75.3835 153.244 75.6051 153.374 75.7924C153.504 75.9797 153.661 76.1284 153.837 76.2291C154.012 76.3298 154.201 76.3802 154.392 76.3771Z" fill="#1B98E0"/>
<path opacity="0.3" d="M166.271 85.1057H196.937C197.338 85.0957 197.722 84.8869 198.014 84.5196C198.307 84.1522 198.487 83.6525 198.521 83.1168C198.537 82.8621 198.513 82.6058 198.451 82.3644C198.389 82.123 198.289 81.9018 198.159 81.7152C198.029 81.5285 197.871 81.3805 197.696 81.2807C197.521 81.181 197.332 81.1316 197.141 81.1359H166.475C166.075 81.1439 165.692 81.351 165.399 81.717C165.107 82.083 164.926 82.5818 164.891 83.1168C164.876 83.3718 164.9 83.6284 164.962 83.8703C165.024 84.1121 165.124 84.3338 165.254 84.521C165.384 84.7083 165.541 84.8571 165.716 84.9578C165.892 85.0585 166.081 85.1088 166.271 85.1057Z" fill="#1B98E0"/>
<path d="M173.436 67.6402H197.832C198.232 67.6338 198.615 67.427 198.907 67.0605C199.199 66.694 199.379 66.1942 199.41 65.6593C199.426 65.4049 199.402 65.149 199.34 64.9077C199.278 64.6664 199.179 64.4452 199.05 64.258C198.921 64.0709 198.764 63.9219 198.589 63.8207C198.414 63.7196 198.226 63.6683 198.036 63.6703H173.64C173.24 63.6787 172.856 63.8872 172.564 64.2551C172.272 64.6229 172.093 65.1236 172.062 65.6593C172.046 65.9132 172.07 66.1688 172.132 66.4097C172.194 66.6506 172.293 66.8713 172.422 67.0579C172.552 67.2444 172.709 67.3926 172.883 67.4928C173.058 67.5931 173.246 67.6433 173.436 67.6402Z" fill="white"/>
<path opacity="0.3" d="M173.49 203.911H190.89C191.08 203.907 191.269 203.956 191.444 204.056C191.62 204.156 191.777 204.303 191.907 204.49C192.037 204.677 192.137 204.898 192.199 205.139C192.262 205.381 192.286 205.637 192.27 205.892C192.238 206.429 192.058 206.931 191.765 207.299C191.472 207.667 191.087 207.874 190.686 207.881H173.286C173.095 207.884 172.906 207.833 172.731 207.733C172.555 207.632 172.398 207.483 172.268 207.296C172.138 207.109 172.038 206.887 171.976 206.645C171.914 206.403 171.89 206.147 171.906 205.892C171.938 205.356 172.119 204.856 172.412 204.49C172.705 204.124 173.089 203.917 173.49 203.911Z" fill="#1B98E0"/>
<path opacity="0.3" d="M149.928 203.911H167.328C167.518 203.907 167.707 203.956 167.882 204.056C168.058 204.156 168.215 204.303 168.345 204.49C168.475 204.677 168.575 204.898 168.637 205.139C168.7 205.381 168.724 205.637 168.708 205.892C168.674 206.427 168.493 206.927 168.2 207.295C167.908 207.662 167.524 207.871 167.124 207.881H149.724C149.533 207.884 149.344 207.833 149.169 207.733C148.993 207.632 148.836 207.483 148.706 207.296C148.576 207.109 148.476 206.887 148.414 206.645C148.352 206.403 148.328 206.147 148.344 205.892C148.375 205.356 148.555 204.855 148.849 204.488C149.142 204.121 149.527 203.915 149.928 203.911Z" fill="#1B98E0"/>
<path opacity="0.3" d="M160.656 195.182H191.322C191.512 195.178 191.701 195.227 191.876 195.327C192.051 195.427 192.209 195.575 192.339 195.761C192.469 195.948 192.569 196.169 192.631 196.411C192.694 196.652 192.718 196.908 192.702 197.163C192.67 197.699 192.491 198.199 192.199 198.567C191.907 198.935 191.524 199.144 191.124 199.152H160.452C160.261 199.155 160.072 199.105 159.897 199.004C159.722 198.903 159.565 198.754 159.435 198.567C159.306 198.38 159.207 198.158 159.146 197.916C159.084 197.674 159.061 197.418 159.078 197.163C159.109 196.628 159.288 196.128 159.58 195.762C159.872 195.395 160.256 195.189 160.656 195.182Z" fill="#1B98E0"/>
<path d="M156.6 186.445H191.76C191.95 186.442 192.139 186.492 192.314 186.593C192.489 186.694 192.646 186.843 192.776 187.03C192.905 187.218 193.004 187.439 193.066 187.681C193.127 187.923 193.15 188.18 193.134 188.434C193.102 188.969 192.923 189.469 192.631 189.835C192.339 190.202 191.955 190.409 191.556 190.415H156.414C156.223 190.419 156.034 190.37 155.859 190.27C155.684 190.17 155.526 190.022 155.396 189.836C155.266 189.649 155.166 189.428 155.104 189.187C155.042 188.945 155.018 188.689 155.034 188.434C155.065 187.901 155.242 187.403 155.531 187.035C155.821 186.668 156.201 186.458 156.6 186.445Z" fill="white"/>
<path opacity="0.3" d="M229.679 144.702H197.639C197.239 144.71 196.856 144.918 196.564 145.286C196.272 145.654 196.093 146.155 196.061 146.691C196.046 146.944 196.069 147.2 196.131 147.441C196.193 147.682 196.292 147.903 196.422 148.089C196.551 148.276 196.708 148.424 196.883 148.524C197.057 148.624 197.246 148.675 197.435 148.671H229.475C229.875 148.665 230.259 148.458 230.551 148.092C230.843 147.725 231.022 147.225 231.053 146.691C231.07 146.436 231.047 146.179 230.985 145.938C230.924 145.696 230.825 145.474 230.696 145.287C230.566 145.099 230.409 144.95 230.234 144.849C230.059 144.749 229.87 144.698 229.679 144.702Z" fill="#1B98E0"/>
<path opacity="0.3" d="M213.204 135.973H198.084C197.683 135.981 197.3 136.19 197.008 136.558C196.716 136.925 196.537 137.426 196.506 137.962C196.49 138.216 196.514 138.473 196.576 138.714C196.639 138.956 196.738 139.177 196.868 139.363C196.998 139.55 197.156 139.698 197.331 139.798C197.506 139.898 197.695 139.947 197.886 139.943H213C213.4 139.935 213.783 139.728 214.076 139.362C214.369 138.995 214.55 138.497 214.584 137.962C214.6 137.707 214.576 137.45 214.513 137.208C214.451 136.966 214.352 136.745 214.222 136.557C214.092 136.37 213.934 136.221 213.759 136.121C213.583 136.02 213.394 135.97 213.204 135.973Z" fill="#1B98E0"/>
<path d="M222.054 127.228H198.534C198.134 127.236 197.751 127.443 197.458 127.809C197.165 128.175 196.984 128.674 196.95 129.209C196.934 129.464 196.958 129.72 197.021 129.962C197.083 130.204 197.182 130.426 197.312 130.613C197.442 130.8 197.6 130.949 197.775 131.05C197.95 131.15 198.139 131.201 198.33 131.198H221.856C222.257 131.191 222.641 130.983 222.933 130.615C223.225 130.247 223.404 129.745 223.434 129.209C223.45 128.954 223.426 128.698 223.364 128.456C223.301 128.215 223.202 127.994 223.072 127.807C222.942 127.62 222.784 127.472 222.609 127.373C222.433 127.273 222.244 127.224 222.054 127.228Z" fill="white"/>
<path opacity="0.3" d="M241.08 135.973H219.6C219.199 135.983 218.815 136.192 218.523 136.559C218.23 136.926 218.05 137.426 218.016 137.962C218 138.216 218.024 138.473 218.086 138.714C218.148 138.956 218.248 139.177 218.378 139.363C218.508 139.55 218.666 139.698 218.841 139.798C219.016 139.898 219.205 139.947 219.396 139.943H240.876C241.276 139.935 241.659 139.728 241.952 139.362C242.244 138.995 242.425 138.497 242.46 137.962C242.475 137.707 242.451 137.45 242.389 137.208C242.327 136.966 242.227 136.745 242.097 136.557C241.968 136.37 241.81 136.221 241.635 136.121C241.459 136.02 241.27 135.97 241.08 135.973Z" fill="#1B98E0"/>
<path opacity="0.3" d="M144.486 53.629H160.554L159.702 34.5206L144.486 53.629Z" fill="#1B98E0"/>
<path d="M144.486 53.629L161.688 50.867L159.702 34.5206L144.486 53.629Z" fill="#1B98E0"/>
<path d="M79.6684 110.237C79.1584 111.848 78.5944 113.635 78.0964 115.359C77.5984 117.082 77.0884 118.845 76.6264 120.593C75.6868 124.01 74.9151 127.507 74.3164 131.061C74.2324 131.496 74.1904 131.922 74.1304 132.349L74.0464 132.993L73.9804 133.501C73.921 134.217 73.9089 134.939 73.9444 135.659C74.0477 137.418 74.226 139.168 74.4784 140.901C74.9944 144.516 75.6784 148.261 76.3564 151.933L73.3084 153.664C71.7941 150.188 70.5169 146.537 69.4924 142.753C68.9445 140.764 68.521 138.717 68.2264 136.633C68.0506 135.435 67.9722 134.214 67.9924 132.993V132.47C67.9924 132.301 67.9924 132.196 67.9924 132.051L68.0524 131.246C68.0944 130.723 68.1184 130.183 68.1844 129.635C68.6291 125.575 69.3296 121.572 70.2784 117.67C70.7464 115.745 71.2264 113.845 71.7844 111.985C72.3424 110.125 72.8824 108.297 73.5844 106.388L79.6684 110.237Z" fill="#7F3E3B"/>
<path d="M76.2543 150.934L78.5943 153.994L73.4883 157.215C73.4883 157.215 72.2523 154.316 73.1043 151.691L76.2543 150.934Z" fill="#7F3E3B"/>
<path d="M80.4783 158.56L76.1703 160.927L73.4883 157.183L78.5943 153.994L80.4783 158.56Z" fill="#7F3E3B"/>
<path d="M191.878 140.943C198.619 119.101 190.891 94.0609 174.616 85.0137C158.341 75.9666 139.683 86.3387 132.942 108.18C126.201 130.022 133.929 155.063 150.204 164.11C166.479 173.157 185.137 162.785 191.878 140.943Z" fill="#1B98E0"/>
<path d="M162.408 165.114C179.096 165.114 192.624 146.959 192.624 124.562C192.624 102.166 179.096 84.0106 162.408 84.0106C145.72 84.0106 132.192 102.166 132.192 124.562C132.192 146.959 145.72 165.114 162.408 165.114Z" fill="white"/>
<path d="M175.524 133.895C175.86 137.213 176.124 140.546 176.418 143.872L177.234 153.801L177.342 154.992L177.468 156.063L177.642 157.174L177.852 158.31C178.164 159.832 178.518 161.378 178.914 162.924C179.682 166.024 180.582 169.132 181.464 172.224L179.4 173.722C177.984 170.86 176.706 167.88 175.572 164.8C175.014 163.238 174.48 161.652 174.024 159.969L173.688 158.696L173.388 157.368C173.298 156.909 173.22 156.434 173.136 155.967L172.95 154.678C172.488 151.312 172.11 147.995 171.75 144.661C171.39 141.327 171.072 137.994 170.808 134.644L175.524 133.895Z" fill="#FF8B7B"/>
<path d="M174.03 126.882C175.944 127.534 177.282 138.107 177.282 138.107L169.968 144.782C169.968 144.782 166.968 132.253 168.426 129.434C169.962 126.495 171.24 125.932 174.03 126.882Z" fill="#1B98E0"/>
<path opacity="0.2" d="M173.862 129.241L175.332 139.894L172.368 142.592L173.862 129.241Z" fill="black"/>
<path d="M181.44 171.597L183.84 177.459L179.784 177.604C179.784 177.604 178.392 173.432 179.544 171.355L181.44 171.597Z" fill="#FFB573"/>
<path d="M151.746 99.6484C148.566 100.268 142.872 120.923 154.362 130.561C165.852 140.2 173.4 129.249 173.4 129.249C173.4 129.249 166.17 118.58 166.8 111.622C167.43 104.665 171.144 95.8959 162.432 92.9729C156.258 90.9035 148.26 92.9004 151.746 99.6484Z" fill="#263238"/>
<path d="M184.134 180.366L180.672 179.979L179.796 177.604L183.852 177.459L184.134 180.366Z" fill="#FFB573"/>
<path d="M174.03 126.882C174.03 126.882 176.244 127.928 171.816 164.486H152.958C153.276 154.187 153.282 147.842 149.616 126.704C152.255 125.969 154.93 125.495 157.62 125.287C160.47 125.009 163.332 125.009 166.182 125.287C169.86 125.738 174.03 126.882 174.03 126.882Z" fill="#1B98E0"/>
<path opacity="0.2" d="M151.2 135.071C152.91 135.643 154.488 138.139 154.296 142.745C154.192 144.838 153.647 146.849 152.724 148.542C152.424 144.999 151.914 140.893 151.116 135.659L151.2 135.071Z" fill="black"/>
<path d="M165.192 133.388C165.192 133.388 162.102 136.802 162.102 140.434C159.534 137.913 156.072 131.037 155.706 126.64C155.694 126.463 155.71 126.284 155.751 126.115C155.792 125.946 155.859 125.789 155.946 125.656C156.034 125.522 156.14 125.413 156.26 125.336C156.379 125.259 156.509 125.215 156.642 125.207C156.872 125.19 157.1 125.149 157.326 125.086C157.422 125.058 157.522 125.061 157.618 125.093C157.713 125.125 157.802 125.186 157.878 125.271L165.192 133.388Z" fill="#1B98E0"/>
<path d="M165.192 133.388C166.093 134.107 166.861 135.089 167.439 136.262C168.018 137.434 168.392 138.767 168.534 140.16C171.132 137.607 169.806 129.974 168.36 126.237C168.247 125.946 168.082 125.697 167.88 125.512C167.678 125.327 167.445 125.211 167.202 125.174C166.818 125.11 166.53 125.046 166.338 124.989C166.304 124.98 166.268 124.981 166.233 124.991C166.198 125.001 166.166 125.021 166.137 125.049C166.108 125.077 166.084 125.112 166.066 125.153C166.048 125.194 166.037 125.24 166.032 125.287L165.192 133.388Z" fill="#1B98E0"/>
<path d="M158.472 112.347C159.012 116.043 159.552 122.815 157.62 125.287C159.713 128.643 162.288 131.398 165.192 133.388C169.014 129.297 166.182 125.287 166.182 125.287C163.11 124.305 163.182 121.261 163.728 118.37L158.472 112.347Z" fill="#FF8B7B"/>
<path opacity="0.2" d="M160.614 114.803L163.722 118.37C163.591 119.038 163.503 119.72 163.458 120.407C162.288 120.182 160.458 118.837 160.188 117.122C160.185 116.314 160.332 115.517 160.614 114.803Z" fill="black"/>
<path d="M153.852 106.412C155.124 112.355 155.568 114.9 158.352 117.323C162.552 120.955 167.694 117.557 167.766 111.22C167.832 105.519 165.738 96.7253 160.95 95.6704C159.894 95.4243 158.809 95.5446 157.797 96.0199C156.785 96.4951 155.881 97.3095 155.17 98.3858C154.459 99.462 153.964 100.764 153.734 102.169C153.503 103.574 153.544 105.035 153.852 106.412Z" fill="#FF8B7B"/>
<path d="M155.4 111.767C158.07 108.111 157.938 103.602 157.146 102.193C159.582 101.919 165.816 99.8497 164.634 96.6851C163.452 93.5205 153.504 91.7973 152.556 99.906C149.466 103.57 151.926 110.938 155.4 111.767Z" fill="#263238"/>
<path d="M161.274 105.873C161.358 106.364 161.616 106.678 161.874 106.63C162.132 106.581 162.24 106.106 162.162 105.615C162.084 105.124 161.82 104.81 161.562 104.858C161.304 104.906 161.196 105.382 161.274 105.873Z" fill="#263238"/>
<path d="M165.408 104.681C165.492 105.172 165.75 105.486 166.008 105.438C166.266 105.39 166.374 104.915 166.29 104.423C166.206 103.932 165.948 103.618 165.69 103.658C165.432 103.699 165.33 104.15 165.408 104.681Z" fill="#263238"/>
<path d="M165.6 103.683L166.422 103.079C166.422 103.079 166.116 104.134 165.6 103.683Z" fill="#263238"/>
<path d="M164.28 105.905C164.785 106.923 165.39 107.845 166.08 108.643C165.924 108.877 165.731 109.063 165.515 109.187C165.3 109.31 165.067 109.369 164.832 109.36L164.28 105.905Z" fill="#FF5652"/>
<path d="M163.2 111.88C163.385 111.863 163.57 111.828 163.752 111.775C163.78 111.766 163.804 111.742 163.82 111.709C163.836 111.676 163.841 111.636 163.836 111.598C163.829 111.56 163.811 111.527 163.786 111.507C163.762 111.486 163.732 111.478 163.704 111.485C163.251 111.633 162.779 111.637 162.325 111.497C161.871 111.357 161.447 111.078 161.088 110.68C161.067 110.653 161.039 110.639 161.01 110.639C160.981 110.639 160.953 110.653 160.932 110.68C160.921 110.694 160.913 110.71 160.907 110.728C160.901 110.746 160.898 110.765 160.898 110.785C160.898 110.804 160.901 110.824 160.907 110.842C160.913 110.86 160.921 110.876 160.932 110.889C161.242 111.249 161.602 111.521 161.991 111.691C162.381 111.862 162.792 111.926 163.2 111.88Z" fill="#263238"/>
<path d="M153.558 112.339C153.805 112.829 154.123 113.248 154.491 113.573C154.86 113.897 155.273 114.121 155.706 114.231C156.87 114.521 157.344 113.096 156.906 111.695C156.534 110.439 155.484 108.78 154.362 109.118C154.12 109.205 153.898 109.371 153.715 109.602C153.532 109.832 153.395 110.12 153.315 110.439C153.236 110.758 153.216 111.098 153.259 111.43C153.301 111.761 153.404 112.074 153.558 112.339Z" fill="#FF8B7B"/>
<path d="M159.252 104.794C159.298 104.786 159.34 104.76 159.373 104.718C159.407 104.676 159.43 104.621 159.438 104.56C159.546 104.1 159.724 103.676 159.961 103.312C160.197 102.949 160.487 102.656 160.812 102.451C160.839 102.435 160.863 102.412 160.883 102.384C160.903 102.355 160.919 102.321 160.929 102.284C160.939 102.247 160.944 102.208 160.942 102.169C160.941 102.13 160.933 102.091 160.92 102.056C160.908 102.021 160.891 101.989 160.869 101.963C160.847 101.936 160.822 101.916 160.795 101.904C160.767 101.891 160.738 101.886 160.709 101.888C160.68 101.891 160.652 101.901 160.626 101.919C160.236 102.162 159.89 102.514 159.611 102.951C159.331 103.389 159.125 103.902 159.006 104.456C159.001 104.493 159.001 104.532 159.007 104.569C159.013 104.606 159.025 104.642 159.041 104.673C159.057 104.705 159.078 104.731 159.101 104.752C159.125 104.773 159.152 104.787 159.18 104.794C159.204 104.802 159.228 104.802 159.252 104.794Z" fill="#263238"/>
<path d="M166.2 100.711C166.249 100.719 166.299 100.703 166.341 100.667C166.383 100.631 166.414 100.577 166.43 100.514C166.445 100.45 166.444 100.382 166.426 100.319C166.409 100.257 166.375 100.205 166.332 100.172C166.045 99.903 165.715 99.7313 165.368 99.671C165.021 99.6107 164.668 99.6637 164.34 99.8255C164.287 99.8573 164.246 99.9154 164.225 99.9876C164.203 100.06 164.204 100.14 164.226 100.212C164.237 100.248 164.254 100.28 164.274 100.307C164.295 100.335 164.319 100.356 164.346 100.37C164.373 100.384 164.402 100.391 164.43 100.39C164.459 100.39 164.488 100.381 164.514 100.365C164.776 100.242 165.056 100.205 165.33 100.257C165.604 100.309 165.866 100.448 166.092 100.663C166.123 100.694 166.161 100.711 166.2 100.711Z" fill="#263238"/>
<path d="M161.46 104.915L162.282 104.311C162.282 104.311 162 105.366 161.46 104.915Z" fill="#263238"/>
<path d="M152.676 163.005L152.19 165.267C152.13 165.444 152.28 165.622 152.502 165.622H171.906C172.074 165.622 172.218 165.509 172.23 165.372L172.398 163.101C172.398 162.948 172.26 162.811 172.074 162.811H153C152.938 162.801 152.875 162.813 152.818 162.847C152.761 162.881 152.712 162.936 152.676 163.005Z" fill="#1B98E0"/>
<path opacity="0.2" d="M152.676 163.005L152.19 165.267C152.13 165.444 152.28 165.622 152.502 165.622H171.906C172.074 165.622 172.218 165.509 172.23 165.372L172.398 163.101C172.398 162.948 172.26 162.811 172.074 162.811H153C152.938 162.801 152.875 162.813 152.818 162.847C152.761 162.881 152.712 162.936 152.676 163.005Z" fill="white"/>
<path d="M155.304 165.879H154.8C154.698 165.879 154.62 165.807 154.626 165.718L154.866 162.779C154.866 162.69 154.962 162.618 155.064 162.618H155.574C155.676 162.618 155.754 162.69 155.748 162.779L155.508 165.718C155.496 165.799 155.4 165.879 155.304 165.879Z" fill="#1B98E0"/>
<path opacity="0.4" d="M155.304 165.879H154.8C154.698 165.879 154.62 165.807 154.626 165.718L154.866 162.779C154.866 162.69 154.962 162.618 155.064 162.618H155.574C155.676 162.618 155.754 162.69 155.748 162.779L155.508 165.718C155.496 165.799 155.4 165.879 155.304 165.879Z" fill="black"/>
<path d="M170.472 165.879H169.956C169.854 165.879 169.776 165.807 169.788 165.718L170.028 162.779C170.028 162.69 170.124 162.618 170.226 162.618H170.736C170.838 162.618 170.916 162.69 170.91 162.779L170.67 165.718C170.655 165.77 170.627 165.814 170.591 165.843C170.556 165.872 170.514 165.885 170.472 165.879Z" fill="#1B98E0"/>
<path opacity="0.4" d="M170.472 165.879H169.956C169.854 165.879 169.776 165.807 169.788 165.718L170.028 162.779C170.028 162.69 170.124 162.618 170.226 162.618H170.736C170.838 162.618 170.916 162.69 170.91 162.779L170.67 165.718C170.655 165.77 170.627 165.814 170.591 165.843C170.556 165.872 170.514 165.885 170.472 165.879Z" fill="black"/>
<path d="M162.918 165.879H162.408C162.306 165.879 162.228 165.807 162.234 165.718L162.474 162.779C162.474 162.69 162.57 162.618 162.672 162.618H163.2C163.302 162.618 163.38 162.69 163.374 162.779L163.134 165.718C163.11 165.799 163.02 165.879 162.918 165.879Z" fill="#1B98E0"/>
<path opacity="0.4" d="M162.918 165.879H162.408C162.306 165.879 162.228 165.807 162.234 165.718L162.474 162.779C162.474 162.69 162.57 162.618 162.672 162.618H163.2C163.302 162.618 163.38 162.69 163.374 162.779L163.134 165.718C163.11 165.799 163.02 165.879 162.918 165.879Z" fill="black"/>
<path d="M164.286 169.543L168.864 166.789L167.562 172.885C167.562 172.885 164.652 173.77 163.392 171.814L164.286 169.543Z" fill="#FFB573"/>
<path d="M152.136 134.926C151.98 137.068 151.782 139.21 151.608 141.368L151.008 147.81C150.816 149.944 150.564 152.077 150.348 154.252L150.006 157.473L149.898 158.487C149.905 158.645 149.937 158.799 149.994 158.938C150.255 159.554 150.599 160.1 151.008 160.549C151.542 161.14 152.107 161.679 152.7 162.159C153.994 163.217 155.339 164.158 156.726 164.977C158.142 165.839 159.6 166.588 161.082 167.337C162.564 168.086 164.082 168.77 165.552 169.422L165.024 172.498C161.774 171.795 158.574 170.734 155.454 169.326C153.839 168.617 152.27 167.734 150.762 166.685C149.954 166.12 149.184 165.466 148.458 164.728C147.588 163.877 146.853 162.801 146.298 161.563C145.971 160.753 145.767 159.863 145.698 158.946C145.698 158.697 145.668 158.447 145.698 158.197C145.728 157.948 145.698 157.634 145.728 157.553L145.782 156.748L145.986 153.527C146.136 151.385 146.25 149.235 146.424 147.085L146.91 140.643C147.102 138.501 147.264 136.359 147.474 134.201L152.136 134.926Z" fill="#FF8B7B"/>
<path d="M149.616 126.704C147.726 127.51 145.458 136.206 145.458 136.206L152.058 145.338C152.058 145.338 155.448 135.949 154.65 132.671C153.84 129.257 151.8 125.819 149.616 126.704Z" fill="#1B98E0"/>
<path d="M172.656 168.053L171.36 173.078L167.562 172.885L168.864 166.789L172.656 168.053Z" fill="#FFB573"/>
<path opacity="0.2" d="M133.512 135.007C131.973 127.338 132.162 119.229 134.057 111.704C135.952 104.18 139.466 97.579 144.156 92.7354C148.846 87.8919 154.501 85.0236 160.406 84.4932C166.31 83.9628 172.2 85.7942 177.329 89.7557C182.458 93.7172 186.597 99.631 189.222 106.749C191.846 113.867 192.84 121.87 192.075 129.746C191.311 137.622 188.824 145.017 184.929 150.995C181.033 156.974 175.904 161.268 170.19 163.335C166.396 164.707 162.437 165.063 158.54 164.382C154.644 163.701 150.885 161.997 147.479 159.366C144.073 156.735 141.087 153.23 138.69 149.051C136.294 144.871 134.534 140.099 133.512 135.007Z" fill="#1B98E0"/>
<path opacity="0.2" d="M184.092 96.8863L159.45 164.526C161.564 164.816 163.695 164.792 165.804 164.454L187.962 103.658C186.858 101.221 185.56 98.9503 184.092 96.8863ZM191.292 114.102L191.13 113.297L173.436 161.869C180.26 158.233 185.85 151.357 189.143 142.55C192.435 133.742 193.2 123.618 191.292 114.102ZM154.614 85.7821C149.391 87.6716 144.648 91.4256 140.888 96.6449C137.128 101.864 134.492 108.354 133.261 115.423C132.03 122.492 132.249 129.877 133.896 136.792C135.543 143.707 138.556 149.894 142.614 154.694L168 85.0976C163.557 83.9584 158.98 84.1925 154.614 85.7821Z" fill="white"/>
<path d="M128.736 120.198L128.136 120.118C128.232 118.741 128.382 117.356 128.574 116.003L129.174 116.156C129 117.484 128.838 118.845 128.736 120.198ZM129.9 112.025L129.3 111.799C130.09 108.212 131.198 104.766 132.6 101.533L133.122 101.935C131.752 105.114 130.67 108.501 129.9 112.025Z" fill="#1B98E0"/>
<path d="M193.596 113.273C191.934 104.994 188.48 97.5632 183.671 91.9189C178.862 86.2745 172.914 82.6705 166.579 81.5624C160.244 80.4544 153.807 81.8921 148.081 85.6939C142.355 89.4956 137.597 95.4906 134.409 102.921C131.222 110.351 129.747 118.883 130.172 127.438C130.597 135.993 132.903 144.186 136.798 150.983C140.692 157.779 146.001 162.873 152.052 165.621C158.104 168.368 164.627 168.646 170.796 166.419C174.894 164.939 178.734 162.391 182.098 158.919C185.462 155.448 188.283 151.12 190.4 146.185C192.517 141.25 193.889 135.803 194.438 130.156C194.986 124.509 194.7 118.772 193.596 113.273ZM133.512 135.014C131.973 127.346 132.162 119.236 134.057 111.712C135.952 104.188 139.466 97.5869 144.156 92.7434C148.846 87.8999 154.501 85.0316 160.406 84.5012C166.31 83.9708 172.2 85.8022 177.329 89.7637C182.458 93.7252 186.597 99.639 189.222 106.757C191.846 113.875 192.84 121.878 192.076 129.754C191.311 137.63 188.824 145.024 184.929 151.003C181.033 156.982 175.904 161.276 170.19 163.343C166.395 164.715 162.436 165.07 158.539 164.389C154.642 163.707 150.883 162.002 147.477 159.371C144.071 156.74 141.085 153.234 138.689 149.053C136.293 144.873 134.534 140.099 133.512 135.006V135.014Z" fill="#1B98E0"/>
<path d="M133.992 141.65C133.992 143.494 133.638 143.735 133.26 143.792L132.174 144.178L129.996 144.983L125.64 146.529L116.91 149.533C111.082 151.498 105.246 153.412 99.4021 155.274L81.8701 160.911L73.1161 163.762C70.2001 164.736 67.2721 165.638 64.3861 166.765C64.0934 166.88 63.7867 166.917 63.4834 166.873C63.1801 166.829 62.8862 166.706 62.6185 166.51C62.3507 166.313 62.1145 166.048 61.9231 165.729C61.7317 165.411 61.589 165.044 61.5031 164.651C61.4173 164.259 61.3899 163.847 61.4225 163.44C61.4552 163.033 61.5473 162.638 61.6936 162.279C61.8398 161.92 62.0374 161.603 62.2749 161.346C62.5125 161.089 62.7854 160.897 63.0781 160.782H63.1741C66.0961 159.816 68.9641 158.616 71.8441 157.497L80.4841 154.058L97.7461 147.085C103.502 144.75 109.264 142.466 115.032 140.233L123.702 136.891L128.046 135.28L130.218 134.475L131.304 134.072C131.652 133.871 132.036 133.847 132.744 135.433C133.576 137.313 134.008 139.463 133.992 141.65Z" fill="#1B98E0"/>
<path d="M96.2402 81.5707C96.2402 82.0458 96.4262 82.4323 96.6602 82.4323C96.8942 82.4323 97.0802 82.0458 97.0802 81.5707C97.0802 81.0956 96.8942 80.701 96.6602 80.701C96.4262 80.701 96.2402 81.0876 96.2402 81.5707Z" fill="#263238"/>
<path d="M96.3961 82.4324C96.8178 83.891 97.3871 85.2648 98.0881 86.5149C97.8454 86.748 97.5677 86.9069 97.2744 86.9806C96.981 87.0544 96.6792 87.0411 96.3901 86.9417L96.3961 82.4324Z" fill="#630F0F"/>
<path d="M94.98 78.9133C94.9364 78.9117 94.8943 78.8919 94.8595 78.8567C94.8247 78.8215 94.7989 78.7726 94.7857 78.7169C94.7725 78.6611 94.7726 78.6013 94.7859 78.5456C94.7992 78.4899 94.8251 78.4411 94.86 78.406C95.1251 78.1393 95.4335 77.9609 95.76 77.8853C96.0865 77.8097 96.4216 77.8391 96.738 77.9712C96.7895 77.9982 96.831 78.0514 96.8535 78.1193C96.876 78.1871 96.8776 78.2641 96.858 78.3336C96.8379 78.4027 96.7982 78.4584 96.7477 78.4886C96.6971 78.5187 96.6397 78.5209 96.588 78.4946C96.3362 78.3941 96.0703 78.3745 95.8118 78.4374C95.5533 78.5004 95.3094 78.6441 95.1 78.857C95.0662 78.8941 95.0237 78.914 94.98 78.9133Z" fill="#263238"/>
<path d="M84.7922 84.6548C85.1102 89.3171 85.1522 97.7963 82.6982 100.574C82.6982 100.574 83.2562 105.333 89.2202 106.074C95.7782 106.879 92.6762 101.814 92.6762 101.814C89.1782 100.148 89.5322 96.363 90.4022 92.8843L84.7922 84.6548Z" fill="#7F3E3B"/>
<path d="M75.1981 275.641C74.6821 275.931 73.5001 275.231 73.1221 274.933C73.1049 274.921 73.0909 274.902 73.0823 274.879C73.0736 274.856 73.0708 274.829 73.0741 274.804C73.0757 274.776 73.0834 274.75 73.0962 274.729C73.1091 274.707 73.1265 274.691 73.1461 274.683C73.2061 274.683 74.6101 274.055 75.1801 274.498C75.2428 274.543 75.2973 274.606 75.3398 274.683C75.3823 274.759 75.4118 274.847 75.4261 274.941C75.4561 275.053 75.4589 275.175 75.4341 275.289C75.4093 275.403 75.3582 275.504 75.2881 275.577C75.2602 275.603 75.2299 275.625 75.1981 275.641ZM73.4521 274.836C74.0521 275.239 74.9101 275.577 75.1621 275.335C75.1621 275.335 75.2641 275.239 75.2221 274.981C75.2133 274.927 75.1959 274.876 75.1711 274.831C75.1462 274.787 75.1145 274.75 75.0781 274.723C74.5384 274.552 73.9731 274.597 73.4521 274.852V274.836Z" fill="#1B98E0"/>
<path d="M73.5061 274.82C73.4073 274.876 73.3048 274.919 73.2001 274.949C73.1821 274.958 73.1625 274.958 73.1442 274.951C73.1258 274.944 73.1097 274.929 73.0981 274.909C73.0891 274.886 73.0845 274.861 73.0845 274.836C73.0845 274.811 73.0891 274.786 73.0981 274.764C73.0981 274.699 73.5841 273.105 74.1961 272.767C74.2687 272.723 74.3474 272.7 74.4271 272.7C74.5067 272.7 74.5854 272.723 74.6581 272.767C74.7336 272.795 74.7992 272.858 74.8432 272.945C74.8872 273.032 74.9066 273.137 74.8981 273.242C74.8381 273.781 74.0641 274.506 73.5061 274.82ZM73.3621 274.595C73.9021 274.321 74.6401 273.612 74.6761 273.218C74.6761 273.177 74.6761 273.097 74.5561 273.016C74.5092 272.986 74.458 272.971 74.4061 272.971C74.3542 272.971 74.3029 272.986 74.2561 273.016C73.8661 273.242 73.5181 274.136 73.3621 274.586V274.595Z" fill="#1B98E0"/>
<path d="M102.456 285.143C102.003 285.141 101.552 285.087 101.106 284.982C101.085 284.977 101.066 284.963 101.051 284.943C101.036 284.923 101.026 284.897 101.022 284.869C101.017 284.841 101.02 284.811 101.03 284.784C101.039 284.758 101.056 284.737 101.076 284.725C101.142 284.668 102.678 283.493 103.416 283.758C103.554 283.806 103.673 283.924 103.746 284.088C103.793 284.178 103.818 284.285 103.818 284.394C103.818 284.504 103.793 284.611 103.746 284.7C103.572 285.055 103.026 285.143 102.456 285.143ZM101.442 284.773C102.264 284.926 103.38 284.918 103.584 284.539C103.584 284.491 103.638 284.402 103.584 284.225C103.562 284.176 103.532 284.133 103.497 284.099C103.462 284.066 103.422 284.043 103.38 284.032C102.906 283.863 102 284.402 101.442 284.773Z" fill="#1B98E0"/>
<path d="M101.124 284.982C101.105 284.989 101.084 284.989 101.064 284.982C101.049 284.968 101.037 284.948 101.03 284.925C101.023 284.903 101.02 284.878 101.022 284.853C101.022 284.789 101.148 283.194 101.706 282.574C101.789 282.482 101.885 282.413 101.988 282.371C102.091 282.33 102.199 282.317 102.306 282.333C102.588 282.373 102.672 282.566 102.69 282.727C102.774 283.396 101.718 284.676 101.19 284.998L101.124 284.982ZM102.204 282.566C102.07 282.572 101.941 282.637 101.838 282.752C101.505 283.262 101.296 283.897 101.238 284.571C101.784 284.137 102.498 283.13 102.438 282.727C102.438 282.727 102.438 282.599 102.234 282.574L102.204 282.566Z" fill="#1B98E0"/>
<path d="M96.2822 284.845H100.686L101.124 271.148H96.7202L96.2822 284.845Z" fill="#7F3E3B"/>
<path d="M68.2021 273.54L72.5341 274.635L77.4122 261.92L73.0802 260.833L68.2021 273.54Z" fill="#7F3E3B"/>
<path d="M73.0081 274.031L68.2681 272.115C68.1846 272.081 68.0952 272.087 68.0145 272.131C67.9339 272.175 67.8667 272.254 67.8241 272.356L65.8561 277.059C65.8091 277.174 65.7821 277.302 65.7772 277.433C65.7723 277.564 65.7895 277.695 65.8276 277.815C65.8657 277.936 65.9236 278.044 65.9972 278.13C66.0707 278.217 66.1578 278.28 66.2521 278.315C67.9141 278.943 68.7481 279.12 70.8301 279.982C72.1141 280.497 75.4861 282.397 77.2621 283.098C79.0381 283.799 79.7881 281.552 79.1101 281.045C76.0741 278.782 74.3761 276.334 73.6141 274.659C73.4777 274.355 73.2615 274.131 73.0081 274.031Z" fill="#263238"/>
<path d="M100.656 284.161H95.8562C95.7691 284.16 95.6846 284.2 95.6168 284.273C95.549 284.347 95.5022 284.449 95.4842 284.564L94.6142 289.822C94.5923 289.948 94.5921 290.079 94.6137 290.206C94.6354 290.332 94.6782 290.45 94.7389 290.551C94.7996 290.652 94.8767 290.733 94.9643 290.788C95.0518 290.843 95.1476 290.871 95.2442 290.869C96.9842 290.869 99.4922 290.699 101.676 290.699C104.226 290.699 106.428 290.885 109.422 290.885C111.222 290.885 111.732 288.429 110.976 288.203C107.526 287.197 104.712 287.084 101.73 284.62C101.411 284.335 101.039 284.176 100.656 284.161Z" fill="#263238"/>
<path d="M74.4 102.08C70.572 104.496 69 121.052 69 121.052L77.79 125.682C79.1539 121.2 80.2572 116.583 81.09 111.872C82.35 104.399 78.33 99.5678 74.4 102.08Z" fill="#1B98E0"/>
<path opacity="0.3" d="M74.4 102.08C70.572 104.496 69 121.052 69 121.052L77.79 125.682C79.1539 121.2 80.2572 116.583 81.09 111.872C82.35 104.399 78.33 99.5678 74.4 102.08Z" fill="black"/>
<path opacity="0.2" d="M80.1181 106.936C80.4177 106.741 80.7313 106.587 81.0541 106.477C81.4047 108.242 81.4171 110.098 81.0901 111.872C80.2573 116.583 79.154 121.2 77.7901 125.682L74.8921 124.16C75.4261 119.836 77.0641 108.901 80.1181 106.936Z" fill="black"/>
<path d="M99.9123 101.951C99.9123 101.951 104.604 109.062 100.17 153.084H76.5963C76.4343 148.253 78.7083 124.53 75.2163 101.645C77.8241 100.972 80.4616 100.526 83.1123 100.309C86.4495 100.051 89.7951 100.051 93.1323 100.309C95.4208 100.618 97.6877 101.167 99.9123 101.951Z" fill="#1B98E0"/>
<path opacity="0.3" d="M99.9123 101.951C99.9123 101.951 104.604 109.062 100.17 153.084H76.5963C76.4343 148.253 78.7083 124.53 75.2163 101.645C77.8241 100.972 80.4616 100.526 83.1123 100.309C86.4495 100.051 89.7951 100.051 93.1323 100.309C95.4208 100.618 97.6877 101.167 99.9123 101.951Z" fill="black"/>
<path opacity="0.2" d="M95.166 111.389C96.234 107.089 98.802 105.712 101.418 108.264C101.946 112.435 102.318 119.159 101.892 129.821L97.29 129.764C97.29 129.764 93.6 117.79 95.166 111.389Z" fill="black"/>
<path d="M102.636 108.45C102.864 110.294 103.116 112.307 103.398 114.223C103.68 116.14 103.998 118.088 104.334 119.989C104.955 123.727 105.8 127.392 106.86 130.948C107.13 131.753 107.406 132.607 107.712 133.364L108.102 134.314C108.2 134.528 108.315 134.728 108.444 134.91C109.338 136.047 110.348 137.007 111.444 137.76C114.035 139.568 116.706 141.16 119.442 142.527L118.788 146.876C115.561 146.576 112.377 145.704 109.32 144.283C108.499 143.899 107.697 143.445 106.92 142.922C106.069 142.339 105.265 141.64 104.52 140.836C104.082 140.353 103.68 139.814 103.32 139.226L103.032 138.719L102.846 138.34C102.72 138.09 102.594 137.841 102.48 137.591C102.012 136.585 101.598 135.578 101.214 134.564C99.8094 130.62 98.6961 126.502 97.8901 122.267C97.4881 120.198 97.1161 118.137 96.8161 116.051C96.5161 113.965 96.2161 111.928 96.0361 109.706L102.636 108.45Z" fill="#7F3E3B"/>
<path d="M94.0201 106.292C92.7781 111.695 97.8181 127.8 97.8181 127.8L108.432 124.216C107.782 119.126 106.689 114.156 105.174 109.408C101.73 99.3585 95.5141 99.7772 94.0201 106.292Z" fill="#1B98E0"/>
<path opacity="0.3" d="M94.0201 106.292C92.7781 111.695 97.8181 127.8 97.8181 127.8L108.432 124.216C107.782 119.126 106.689 114.156 105.174 109.408C101.73 99.3585 95.5141 99.7772 94.0201 106.292Z" fill="black"/>
<path d="M119.508 142.527L124.062 145.273L119.646 150.161C119.646 150.161 117.702 149.307 117.384 145.024L116.706 141.464L118.704 142.149C118.98 142.242 119.249 142.369 119.508 142.527Z" fill="#7F3E3B"/>
<path d="M126.48 148.236L122.046 151.788L119.646 150.129L124.056 145.241L126.48 148.236Z" fill="#7F3E3B"/>
<path d="M95.136 99.7852C93.234 97.6272 88.614 96.0731 83.442 95.6866C80.484 95.4691 77.442 96.1214 76.176 96.8783C74.91 97.6352 76.41 103.103 78.066 103.224C77.19 105.076 78.462 108.651 80.364 109.351C80.064 112.444 85.872 112.733 89.364 110.237C92.184 108.248 97.416 102.37 95.136 99.7852Z" fill="#263238"/>
<path opacity="0.2" d="M101.124 271.148L100.902 278.21H96.4922L96.7142 271.148H101.124Z" fill="black"/>
<path opacity="0.2" d="M73.0741 260.833L77.4121 261.928L74.8981 268.475L70.5601 267.38L73.0741 260.833Z" fill="black"/>
<path d="M84.3839 80.5239C84.6479 86.386 84.5759 89.8324 86.7839 92.844C90.0959 97.3695 95.4899 94.6961 96.5339 88.8178C97.4759 83.5516 96.8819 74.855 92.6099 72.5117C91.6679 71.9888 90.6417 71.7986 89.6293 71.9594C88.617 72.1202 87.6522 72.6265 86.8272 73.4301C86.0021 74.2337 85.3443 75.3077 84.9166 76.5496C84.4889 77.7915 84.3055 79.1598 84.3839 80.5239Z" fill="#7F3E3B"/>
<path d="M92.5558 83.7932C94.2058 81.5546 96.9178 76.6748 95.9698 73.011C94.5718 67.5917 90.4018 69.4277 91.0678 70.5067C88.6678 68.3809 83.8198 68.2762 84.8338 71.1267C80.4718 71.932 80.1178 74.3074 81.3298 75.2012C78.2218 79.1791 78.3718 83.2939 80.7298 82.9879C78.9298 85.4036 82.2418 90.1868 85.9438 92.4656C87.2038 88.0368 93.9478 87.2315 92.5558 83.7932Z" fill="#263238"/>
<path d="M90.6423 85.911C90.6149 85.9217 90.5857 85.9217 90.5583 85.911C90.5421 85.8957 90.5283 85.8763 90.5177 85.8538C90.5071 85.8314 90.4999 85.8063 90.4965 85.7801C90.4932 85.7539 90.4937 85.7271 90.4982 85.7012C90.5026 85.6752 90.5108 85.6508 90.5223 85.6291C91.4703 83.761 92.3943 82.2632 93.2103 80.9426C94.7703 78.4142 95.8983 76.5863 95.9943 74.1061C96.0167 73.09 95.8021 72.0898 95.3804 71.2453C94.9588 70.4008 94.3511 69.754 93.6423 69.3955C92.5263 68.7191 91.3263 68.6788 90.8523 69.3069C90.6003 69.6371 90.5763 70.1122 90.7803 70.7725C90.7891 70.796 90.794 70.8218 90.7948 70.8481C90.7955 70.8744 90.7921 70.9006 90.7847 70.925C90.7773 70.9493 90.7662 70.9713 90.752 70.9895C90.7377 71.0076 90.7208 71.0215 90.7023 71.0301C90.6842 71.0408 90.6647 71.0465 90.6449 71.047C90.6251 71.0476 90.6055 71.0428 90.5871 71.0331C90.5687 71.0233 90.5519 71.0088 90.5377 70.9904C90.5235 70.9719 90.5121 70.9498 90.5043 70.9255C90.3719 70.6295 90.3138 70.2843 90.3386 69.9407C90.3635 69.5971 90.4699 69.2733 90.6423 69.017C91.2063 68.2762 92.5203 68.2762 93.7683 69.017C94.5321 69.406 95.1863 70.1057 95.6392 71.0181C96.0921 71.9306 96.3212 73.0103 96.2943 74.1061C96.1923 76.7232 95.0403 78.5913 93.4443 81.1761C92.6283 82.4967 91.7103 83.9864 90.7683 85.8465C90.7525 85.8697 90.7329 85.8876 90.711 85.8988C90.6891 85.91 90.6656 85.9142 90.6423 85.911Z" fill="#263238"/>
<path d="M90.8581 83.1329C90.9379 84.5868 91.3723 85.9649 92.0941 87.0544C93.0541 88.4716 94.0621 87.5858 94.2301 85.8626C94.3801 84.3005 94.0681 81.6834 92.8921 80.9023C91.7161 80.1213 90.7801 81.3774 90.8581 83.1329Z" fill="#7F3E3B"/>
<path d="M91.8001 153.084C91.8001 153.084 93.2881 192.959 90.3901 209.853C85.8001 236.603 77.0221 267.629 77.0221 267.629L68.8501 265.56C68.8501 265.56 75.7321 234.494 77.2501 212.221C78.5881 192.219 76.6081 169.245 76.6081 153.084H91.8001Z" fill="#263238"/>
<path opacity="0.2" d="M89.598 164.897C90.198 163.343 91.368 167.973 92.184 173.916C92.184 182.113 92.076 191.438 91.542 199.337C87.462 189.231 88.332 168.118 89.598 164.897Z" fill="black"/>
<path d="M79.026 264.263C79.062 264.263 77.748 268.064 77.748 268.064L68.292 265.592L69.324 261.767L79.026 264.263Z" fill="#2C6BDB"/>
<path d="M100.2 153.084C100.2 153.084 106.8 190.842 107.28 208.887C107.802 229.123 102.54 276.841 102.54 276.841H95.0762C95.0762 276.841 94.1582 228.752 93.8222 210.32C93.4622 190.23 84.6782 153.084 84.6782 153.084H100.2Z" fill="#263238"/>
<path d="M103.98 272.847C104.016 272.847 103.56 277.01 103.56 277.01H94.476L94.23 273.298L103.98 272.847Z" fill="#2C6BDB"/>
</svg>
