<svg width="300" height="311" viewBox="0 0 300 311" fill="none" xmlns="http://www.w3.org/2000/svg">
<path d="M129.414 310.345C192.519 310.345 243.676 306.948 243.676 302.757C243.676 298.566 192.519 295.169 129.414 295.169C66.3095 295.169 15.1528 298.566 15.1528 302.757C15.1528 306.948 66.3095 310.345 129.414 310.345Z" fill="#1B98E0"/>
<path opacity="0.8" d="M129.414 310.345C192.519 310.345 243.676 306.948 243.676 302.757C243.676 298.566 192.519 295.169 129.414 295.169C66.3095 295.169 15.1528 298.566 15.1528 302.757C15.1528 306.948 66.3095 310.345 129.414 310.345Z" fill="white"/>
<path d="M215.277 14.2178H100.387C92.4551 14.2178 86.0249 21.0722 86.0249 29.5276V288.085C86.0249 296.541 92.4551 303.395 100.387 303.395H215.277C223.209 303.395 229.639 296.541 229.639 288.085V29.5276C229.639 21.0722 223.209 14.2178 215.277 14.2178Z" fill="#263238"/>
<path d="M223.252 45.9722H92.4038V271.641H223.252V45.9722Z" fill="white" stroke="#263238" stroke-width="1.33739" stroke-miterlimit="10"/>
<path d="M177.887 137.352C188.963 125.545 188.963 106.402 177.887 94.5952C166.811 82.7883 148.853 82.7883 137.777 94.5952C126.701 106.402 126.701 125.545 137.777 137.352C148.853 149.159 166.811 149.159 177.887 137.352Z" fill="#1B98E0"/>
<path d="M195.068 257.45H120.603C120.436 257.451 120.27 257.417 120.115 257.349C119.96 257.281 119.819 257.182 119.7 257.056C119.581 256.93 119.487 256.78 119.422 256.615C119.358 256.45 119.325 256.273 119.325 256.095C119.324 255.915 119.356 255.738 119.42 255.572C119.484 255.406 119.578 255.255 119.697 255.128C119.816 255.002 119.957 254.901 120.113 254.833C120.269 254.765 120.435 254.73 120.603 254.731H195.068C195.236 254.731 195.401 254.767 195.556 254.835C195.711 254.904 195.851 255.005 195.97 255.131C196.088 255.258 196.181 255.408 196.245 255.574C196.308 255.739 196.34 255.916 196.339 256.095C196.339 256.454 196.205 256.799 195.967 257.053C195.728 257.307 195.405 257.45 195.068 257.45Z" fill="#1B98E0"/>
<path d="M197.492 163.203H118.172C116.535 163.203 115.208 164.618 115.208 166.363V176.33C115.208 178.075 116.535 179.49 118.172 179.49H197.492C199.129 179.49 200.457 178.075 200.457 176.33V166.363C200.457 164.618 199.129 163.203 197.492 163.203Z" fill="#1B98E0"/>
<path d="M197.492 193.666H118.172C116.535 193.666 115.208 195.08 115.208 196.825V206.793C115.208 208.538 116.535 209.952 118.172 209.952H197.492C199.129 209.952 200.457 208.538 200.457 206.793V196.825C200.457 195.08 199.129 193.666 197.492 193.666Z" fill="#1B98E0"/>
<path d="M171.954 131.055L163.609 125.933V121.702C164.817 120.144 165.692 118.323 166.173 116.368C166.461 116.476 166.763 116.532 167.068 116.533C168.103 116.533 168.761 113.113 168.871 110.671C170.076 107.952 168.435 106.361 168.435 106.361C168.435 106.361 169.115 105.636 169.566 102.728C170.017 99.8206 167.977 101.034 166.388 98.3708C164.799 95.7075 163.66 92.8078 158.442 92.8078C157.004 92.7574 155.585 93.1693 154.369 93.99C153.154 94.8106 152.198 96.0021 151.627 97.4095C150.328 97.4145 149.033 97.5757 147.768 97.8901C146.171 98.3708 145.721 103.942 147.081 106.124C147.689 107.317 148.014 108.651 148.027 110.009C147.665 109.536 147.288 109.41 147.081 110.482C146.63 112.901 148.448 116.289 148.448 116.289L149.387 116.005C149.86 118.095 150.772 120.043 152.055 121.702V125.933L143.71 131.055C142.735 131.655 141.926 132.517 141.363 133.556C140.8 134.595 140.503 135.773 140.502 136.972V139.904C145.465 143.991 151.56 146.208 157.832 146.208C164.104 146.208 170.199 143.991 175.162 139.904V136.972C175.162 135.772 174.866 134.594 174.303 133.555C173.74 132.516 172.929 131.653 171.954 131.055Z" fill="#263238"/>
<path d="M126.007 205.902C125.815 205.899 125.632 205.817 125.497 205.673C125.424 205.604 125.366 205.519 125.326 205.424C125.287 205.329 125.267 205.226 125.267 205.122C125.27 204.98 125.308 204.841 125.378 204.72L126.709 202.451L124.114 202.537C124.017 202.544 123.919 202.528 123.827 202.492C123.735 202.455 123.652 202.398 123.582 202.325C123.462 202.18 123.395 201.994 123.395 201.801C123.395 201.607 123.462 201.421 123.582 201.277C123.65 201.2 123.733 201.141 123.825 201.103C123.917 201.065 124.016 201.049 124.114 201.056L126.672 201.158L125.356 198.897C125.285 198.774 125.246 198.632 125.245 198.487C125.245 198.383 125.265 198.28 125.304 198.185C125.344 198.09 125.402 198.005 125.474 197.936C125.61 197.792 125.793 197.71 125.984 197.707C126.11 197.708 126.234 197.747 126.34 197.82C126.446 197.892 126.53 197.995 126.583 198.117L127.847 200.552L129.096 198.133C129.156 198.004 129.247 197.894 129.36 197.816C129.474 197.739 129.605 197.695 129.739 197.691C129.833 197.692 129.925 197.713 130.01 197.754C130.096 197.795 130.172 197.854 130.235 197.928C130.37 198.078 130.445 198.279 130.442 198.487C130.441 198.623 130.408 198.756 130.346 198.873L129.008 201.158L131.602 201.056C131.701 201.049 131.799 201.065 131.891 201.103C131.983 201.141 132.066 201.2 132.134 201.277C132.26 201.416 132.329 201.603 132.327 201.797C132.326 201.992 132.258 202.18 132.134 202.325C132.065 202.398 131.981 202.455 131.89 202.492C131.798 202.528 131.7 202.544 131.602 202.537L128.993 202.451L130.294 204.696C130.367 204.822 130.405 204.966 130.405 205.114C130.405 205.323 130.327 205.523 130.188 205.671C130.05 205.819 129.862 205.902 129.666 205.902C129.539 205.9 129.415 205.859 129.31 205.783C129.205 205.708 129.123 205.601 129.074 205.476L127.84 203.113L126.613 205.476C126.558 205.6 126.473 205.705 126.366 205.78C126.259 205.855 126.135 205.897 126.007 205.902Z" fill="#263238"/>
<path d="M137.996 205.902C137.805 205.899 137.622 205.817 137.486 205.673C137.413 205.604 137.355 205.519 137.316 205.424C137.276 205.329 137.256 205.226 137.257 205.122C137.259 204.98 137.297 204.841 137.368 204.72L138.698 202.451L136.111 202.537C136.012 202.542 135.914 202.526 135.821 202.489C135.728 202.453 135.644 202.397 135.572 202.325C135.473 202.217 135.408 202.08 135.384 201.932C135.36 201.784 135.378 201.631 135.436 201.494C135.494 201.358 135.59 201.243 135.71 201.164C135.831 201.086 135.97 201.048 136.111 201.056L138.661 201.158L137.346 198.897C137.274 198.774 137.236 198.632 137.235 198.487C137.234 198.383 137.254 198.28 137.294 198.185C137.333 198.09 137.391 198.005 137.464 197.936C137.6 197.792 137.783 197.71 137.974 197.707C138.1 197.708 138.223 197.747 138.329 197.82C138.435 197.892 138.519 197.995 138.573 198.117L139.837 200.552L141.086 198.133C141.145 198.004 141.236 197.894 141.35 197.817C141.463 197.739 141.594 197.695 141.729 197.691C141.822 197.691 141.915 197.712 142 197.753C142.086 197.793 142.162 197.853 142.224 197.928C142.293 198.001 142.347 198.089 142.384 198.185C142.42 198.281 142.439 198.384 142.438 198.487C142.436 198.623 142.4 198.756 142.335 198.873L140.997 201.158L143.599 201.072C143.696 201.065 143.794 201.081 143.885 201.119C143.975 201.157 144.057 201.216 144.124 201.292C144.25 201.432 144.319 201.619 144.316 201.812C144.315 202.008 144.247 202.196 144.124 202.34C144.056 202.414 143.973 202.47 143.883 202.507C143.792 202.544 143.696 202.559 143.599 202.553L140.982 202.466L142.283 204.712C142.356 204.837 142.395 204.982 142.394 205.13C142.394 205.339 142.316 205.539 142.178 205.687C142.039 205.835 141.851 205.918 141.655 205.918C141.528 205.916 141.405 205.875 141.3 205.799C141.195 205.723 141.113 205.617 141.064 205.492L139.829 203.128L138.602 205.492C138.546 205.613 138.459 205.715 138.353 205.787C138.246 205.859 138.122 205.899 137.996 205.902Z" fill="#263238"/>
<path d="M149.993 205.902C149.799 205.901 149.613 205.819 149.476 205.673C149.403 205.604 149.345 205.519 149.305 205.424C149.266 205.329 149.246 205.226 149.247 205.122C149.249 204.98 149.287 204.841 149.357 204.72L150.688 202.451L148.101 202.537C147.962 202.543 147.824 202.505 147.705 202.427C147.586 202.349 147.492 202.235 147.434 202.1C147.376 201.965 147.357 201.814 147.38 201.668C147.403 201.521 147.466 201.385 147.561 201.277C147.631 201.201 147.715 201.142 147.808 201.104C147.902 201.066 148.001 201.049 148.101 201.056L150.651 201.158L149.335 198.897C149.264 198.774 149.225 198.632 149.224 198.487C149.227 198.384 149.248 198.282 149.287 198.187C149.327 198.093 149.383 198.007 149.454 197.936C149.591 197.79 149.777 197.708 149.971 197.707C150.096 197.71 150.217 197.749 150.322 197.822C150.426 197.894 150.51 197.996 150.562 198.117L151.826 200.552L153.075 198.133C153.135 198.004 153.226 197.894 153.339 197.817C153.453 197.739 153.584 197.695 153.719 197.691C153.812 197.691 153.905 197.712 153.99 197.753C154.076 197.793 154.152 197.853 154.214 197.928C154.282 198.001 154.337 198.089 154.373 198.185C154.41 198.281 154.429 198.384 154.428 198.487C154.426 198.623 154.39 198.756 154.325 198.873L152.987 201.158L155.589 201.056C155.684 201.046 155.781 201.058 155.872 201.09C155.963 201.123 156.046 201.177 156.116 201.247C156.186 201.317 156.242 201.403 156.278 201.497C156.315 201.592 156.331 201.694 156.328 201.797C156.329 201.991 156.264 202.179 156.143 202.325C156.073 202.398 155.99 202.455 155.898 202.492C155.807 202.528 155.709 202.544 155.611 202.537L153.002 202.451L154.295 204.696C154.368 204.822 154.406 204.966 154.406 205.114C154.404 205.217 154.382 205.319 154.343 205.414C154.304 205.509 154.247 205.594 154.177 205.665C154.113 205.739 154.035 205.798 153.948 205.839C153.862 205.879 153.769 205.901 153.674 205.902C153.549 205.9 153.426 205.858 153.322 205.782C153.219 205.707 153.138 205.6 153.09 205.476L151.848 203.113L150.621 205.476C150.566 205.604 150.477 205.712 150.366 205.788C150.255 205.863 150.125 205.903 149.993 205.902Z" fill="#263238"/>
<path d="M161.982 205.902C161.788 205.901 161.603 205.819 161.465 205.673C161.326 205.528 161.246 205.33 161.243 205.122C161.241 204.98 161.277 204.841 161.347 204.72L162.677 202.451L160.09 202.537C159.991 202.542 159.893 202.526 159.8 202.489C159.707 202.453 159.622 202.397 159.55 202.325C159.43 202.18 159.363 201.994 159.363 201.801C159.363 201.607 159.43 201.421 159.55 201.277C159.622 201.203 159.706 201.146 159.799 201.108C159.892 201.07 159.991 201.052 160.09 201.056L162.648 201.158L161.339 198.897C161.268 198.774 161.229 198.632 161.228 198.487C161.231 198.384 161.252 198.282 161.291 198.187C161.331 198.093 161.387 198.007 161.457 197.936C161.595 197.79 161.781 197.708 161.975 197.707C162.101 197.708 162.224 197.747 162.33 197.82C162.436 197.892 162.52 197.995 162.574 198.117L163.83 200.552L165.079 198.133C165.139 198.004 165.23 197.894 165.343 197.817C165.457 197.739 165.588 197.695 165.723 197.691C165.816 197.691 165.909 197.712 165.994 197.753C166.079 197.793 166.156 197.853 166.218 197.928C166.286 198.001 166.34 198.089 166.377 198.185C166.414 198.281 166.433 198.384 166.432 198.487C166.429 198.623 166.394 198.756 166.329 198.873L164.991 201.158L167.593 201.056C167.688 201.046 167.785 201.058 167.876 201.09C167.967 201.123 168.05 201.177 168.12 201.247C168.19 201.317 168.246 201.403 168.282 201.497C168.318 201.592 168.335 201.694 168.332 201.797C168.333 201.991 168.268 202.179 168.147 202.325C168.077 202.398 167.994 202.455 167.902 202.492C167.811 202.528 167.713 202.544 167.615 202.537L165.006 202.451L166.299 204.696C166.372 204.822 166.41 204.966 166.41 205.114C166.411 205.218 166.391 205.321 166.351 205.416C166.312 205.511 166.254 205.596 166.181 205.665C166.116 205.739 166.039 205.798 165.952 205.839C165.866 205.879 165.773 205.901 165.678 205.902C165.552 205.9 165.43 205.858 165.326 205.782C165.223 205.707 165.142 205.6 165.094 205.476L163.852 203.113L162.625 205.476C162.569 205.607 162.478 205.716 162.364 205.792C162.249 205.868 162.117 205.906 161.982 205.902Z" fill="#263238"/>
<path d="M173.972 205.902C173.778 205.901 173.592 205.819 173.454 205.673C173.34 205.55 173.267 205.389 173.247 205.217C173.227 205.044 173.261 204.87 173.343 204.72L174.666 202.451L172.079 202.537C171.981 202.542 171.882 202.526 171.789 202.489C171.697 202.453 171.612 202.397 171.54 202.325C171.419 202.18 171.353 201.994 171.353 201.801C171.353 201.607 171.419 201.421 171.54 201.277C171.611 201.203 171.696 201.146 171.788 201.108C171.881 201.07 171.98 201.052 172.079 201.056L174.637 201.158L173.321 198.897C173.249 198.774 173.211 198.632 173.21 198.487C173.213 198.279 173.293 198.081 173.432 197.936C173.57 197.79 173.755 197.708 173.949 197.707C174.075 197.708 174.198 197.747 174.304 197.82C174.41 197.892 174.495 197.995 174.548 198.117L175.805 200.552L177.054 198.133C177.113 198.004 177.204 197.894 177.318 197.817C177.431 197.739 177.562 197.695 177.697 197.691C177.792 197.691 177.885 197.712 177.972 197.752C178.059 197.793 178.136 197.853 178.2 197.928C178.335 198.078 178.41 198.279 178.407 198.487C178.404 198.623 178.368 198.756 178.303 198.873L176.965 201.158L179.567 201.056C179.663 201.046 179.759 201.058 179.85 201.09C179.941 201.123 180.025 201.177 180.095 201.247C180.165 201.317 180.22 201.403 180.256 201.497C180.293 201.592 180.31 201.694 180.306 201.797C180.308 201.991 180.242 202.179 180.121 202.325C180.052 202.398 179.968 202.455 179.877 202.492C179.785 202.528 179.687 202.544 179.589 202.537L176.98 202.451L178.274 204.696C178.346 204.822 178.385 204.966 178.384 205.114C178.385 205.218 178.365 205.321 178.326 205.416C178.286 205.511 178.228 205.596 178.155 205.665C178.091 205.739 178.013 205.798 177.927 205.839C177.84 205.88 177.747 205.901 177.653 205.902C177.527 205.9 177.405 205.858 177.301 205.782C177.197 205.707 177.116 205.6 177.069 205.476L175.827 203.113L174.6 205.476C174.544 205.604 174.456 205.712 174.344 205.788C174.233 205.863 174.104 205.903 173.972 205.902Z" fill="#263238"/>
<path d="M185.961 205.902C185.77 205.899 185.587 205.817 185.451 205.673C185.378 205.604 185.32 205.519 185.281 205.424C185.241 205.329 185.221 205.226 185.222 205.122C185.224 204.98 185.263 204.841 185.333 204.72L186.656 202.451L184.069 202.537C183.974 202.545 183.878 202.531 183.788 202.498C183.698 202.464 183.616 202.41 183.546 202.341C183.477 202.271 183.422 202.187 183.384 202.093C183.347 201.999 183.328 201.898 183.33 201.797C183.329 201.7 183.347 201.605 183.381 201.515C183.415 201.426 183.465 201.345 183.529 201.277C183.597 201.2 183.68 201.141 183.772 201.103C183.864 201.065 183.963 201.049 184.061 201.056L186.619 201.158L185.303 198.897C185.232 198.774 185.193 198.632 185.192 198.487C185.195 198.279 185.275 198.081 185.414 197.936C185.552 197.79 185.738 197.708 185.932 197.707C186.057 197.708 186.181 197.747 186.287 197.82C186.393 197.892 186.477 197.995 186.53 198.117L187.787 200.552L189.043 198.133C189.102 198.005 189.192 197.896 189.304 197.819C189.416 197.741 189.546 197.697 189.679 197.691C189.774 197.691 189.868 197.712 189.954 197.752C190.041 197.793 190.118 197.853 190.182 197.928C190.317 198.078 190.392 198.279 190.389 198.487C190.388 198.623 190.355 198.756 190.293 198.873L188.955 201.158L191.549 201.056C191.648 201.049 191.746 201.065 191.838 201.103C191.93 201.141 192.013 201.2 192.081 201.277C192.207 201.416 192.277 201.603 192.274 201.797C192.273 201.992 192.205 202.18 192.081 202.325C192.012 202.398 191.928 202.455 191.837 202.492C191.745 202.528 191.647 202.544 191.549 202.537L188.94 202.451L190.234 204.696C190.306 204.822 190.345 204.966 190.344 205.114C190.342 205.322 190.262 205.52 190.123 205.665C189.988 205.812 189.805 205.897 189.613 205.902C189.487 205.9 189.365 205.858 189.261 205.782C189.157 205.707 189.076 205.6 189.029 205.476L187.787 203.113L186.56 205.476C186.507 205.599 186.423 205.704 186.317 205.779C186.211 205.854 186.088 205.897 185.961 205.902Z" fill="#263238"/>
<g style="mix-blend-mode:multiply">
<path d="M223.252 46.2717H92.4038V55.0101H223.252V46.2717Z" fill="#1B98E0"/>
</g>
<path d="M172.057 30.1735H143.599C143.086 30.1735 142.593 29.956 142.23 29.5689C141.867 29.1817 141.663 28.6566 141.663 28.1091C141.663 27.5616 141.867 27.0365 142.23 26.6493C142.593 26.2622 143.086 26.0447 143.599 26.0447H172.057C172.571 26.0447 173.064 26.2622 173.427 26.6493C173.79 27.0365 173.994 27.5616 173.994 28.1091C173.994 28.6566 173.79 29.1817 173.427 29.5689C173.064 29.956 172.571 30.1735 172.057 30.1735Z" fill="#1B98E0" stroke="#263238" stroke-width="1.33739" stroke-linecap="round" stroke-linejoin="round"/>
<path d="M165.59 284.39C165.591 282.753 165.137 281.152 164.285 279.79C163.432 278.429 162.22 277.367 160.802 276.74C159.383 276.113 157.822 275.948 156.316 276.267C154.81 276.586 153.426 277.374 152.34 278.532C151.254 279.689 150.515 281.164 150.216 282.77C149.916 284.375 150.071 286.04 150.659 287.552C151.247 289.064 152.243 290.356 153.521 291.264C154.798 292.173 156.3 292.657 157.836 292.655C159.891 292.653 161.863 291.782 163.316 290.232C164.77 288.682 165.588 286.581 165.59 284.39Z" fill="#1B98E0"/>
<path d="M161.768 280.198H153.903V288.582H161.768V280.198Z" fill="#1B98E0" stroke="#263238" stroke-width="1.33739" stroke-linecap="round" stroke-linejoin="round"/>
<path d="M251.519 189.253C251.519 189.253 241.215 161.344 250.388 158.026C259.938 154.567 259.517 172.997 259.147 181.98C258.371 201.174 256.383 204.744 254.897 200.055L251.519 189.253ZM248.422 211.024C251.253 214.964 252.051 210.882 246.943 192.452C244.548 183.784 239.345 166.252 231.362 172.832C223.696 179.135 241.939 201.986 241.939 201.986L248.422 211.024ZM242.952 227.019C245.65 229.572 245.702 226.349 239.293 213.041C236.285 206.808 229.92 194.193 224.709 200.434C219.705 206.454 236.758 221.086 236.758 221.086L242.952 227.019ZM237.038 246.04C239.736 248.601 239.788 245.37 233.38 232.07C230.371 225.837 224.007 213.214 218.796 219.463C213.821 225.498 230.822 240.131 230.822 240.131L237.038 246.04ZM254.113 207.32C249.797 209.117 253.226 211.071 271.255 211.016C279.711 211.016 296.978 210.606 293.297 200.591C289.771 190.97 264.092 203.223 264.092 203.223L254.113 207.32ZM249.198 220.117C244.63 220.96 247.631 223.607 265.312 227.374C273.598 229.147 290.592 232.417 288.855 221.858C287.191 211.678 259.739 218.249 259.739 218.249L249.198 220.117ZM243.698 235.742C239.81 236.341 242.294 238.649 257.159 242.274C264.129 243.976 278.432 247.167 277.19 238.161C276.008 229.493 252.65 234.394 252.65 234.394L243.698 235.742ZM239.522 250.216C235.715 251.249 238.413 253.266 253.566 255.188C260.662 256.087 275.202 257.647 273.081 248.83C271.033 240.367 248.296 247.86 248.296 247.86L239.522 250.216ZM261.801 191.617C259.583 196.912 264.188 196.108 279.844 181.547C287.177 174.715 301.886 160.422 290.237 153.306C279.053 146.467 267.027 179.466 267.027 179.466L261.801 191.617ZM240.099 269.072C237.755 270.53 240.054 271.097 250.802 268.812C255.843 267.748 266.095 265.384 262.629 260.72C259.273 256.228 245.524 265.684 245.524 265.684L240.099 269.072Z" fill="#1B98E0"/>
<path opacity="0.3" d="M251.519 189.253C251.519 189.253 241.215 161.344 250.388 158.026C259.938 154.567 259.517 172.997 259.147 181.98C258.371 201.174 256.383 204.744 254.897 200.055L251.519 189.253ZM248.422 211.024C251.253 214.964 252.051 210.882 246.943 192.452C244.548 183.784 239.345 166.252 231.362 172.832C223.696 179.135 241.939 201.986 241.939 201.986L248.422 211.024ZM242.952 227.019C245.65 229.572 245.702 226.349 239.293 213.041C236.285 206.808 229.92 194.193 224.709 200.434C219.705 206.454 236.758 221.086 236.758 221.086L242.952 227.019ZM237.038 246.04C239.736 248.601 239.788 245.37 233.38 232.07C230.371 225.837 224.007 213.214 218.796 219.463C213.821 225.498 230.822 240.131 230.822 240.131L237.038 246.04ZM254.113 207.32C249.797 209.117 253.226 211.071 271.255 211.016C279.711 211.016 296.978 210.606 293.297 200.591C289.771 190.97 264.092 203.223 264.092 203.223L254.113 207.32ZM249.198 220.117C244.63 220.96 247.631 223.607 265.312 227.374C273.598 229.147 290.592 232.417 288.855 221.858C287.191 211.678 259.739 218.249 259.739 218.249L249.198 220.117ZM243.698 235.742C239.81 236.341 242.294 238.649 257.159 242.274C264.129 243.976 278.432 247.167 277.19 238.161C276.008 229.493 252.65 234.394 252.65 234.394L243.698 235.742ZM239.522 250.216C235.715 251.249 238.413 253.266 253.566 255.188C260.662 256.087 275.202 257.647 273.081 248.83C271.033 240.367 248.296 247.86 248.296 247.86L239.522 250.216ZM261.801 191.617C259.583 196.912 264.188 196.108 279.844 181.547C287.177 174.715 301.886 160.422 290.237 153.306C279.053 146.467 267.027 179.466 267.027 179.466L261.801 191.617ZM240.099 269.072C237.755 270.53 240.054 271.097 250.802 268.812C255.843 267.748 266.095 265.384 262.629 260.72C259.273 256.228 245.524 265.684 245.524 265.684L240.099 269.072Z" fill="white"/>
<path d="M256.065 202.246L254.269 170.389L256.065 202.246ZM250.381 212.757L239.027 185.36L250.381 212.757ZM279.682 204.791L252.473 208.951L279.682 204.791ZM244.497 227.523L229.765 207.375L244.497 227.523ZM247.084 221.346L267.382 222.433L247.084 221.346ZM242.279 236.797L257.802 238.436L242.279 236.797ZM238.532 246.615L230.822 234.252L238.532 246.615ZM237.645 250.981L255.895 251.162L237.645 250.981ZM233.949 287.478C234.071 287.468 234.185 287.407 234.265 287.308C234.345 287.209 234.386 287.081 234.378 286.95C233.217 268.371 239.958 237.94 250.772 212.962C257.684 196.998 284.775 165.622 285.063 165.307C285.15 165.214 285.199 165.088 285.199 164.956C285.199 164.825 285.15 164.699 285.063 164.606C285.02 164.56 284.97 164.523 284.914 164.499C284.858 164.474 284.798 164.461 284.738 164.461C284.677 164.461 284.617 164.474 284.561 164.499C284.506 164.523 284.455 164.56 284.412 164.606C284.139 164.921 256.937 196.415 249.967 212.521C238.953 238.105 232.301 267.984 233.483 287.013C233.492 287.139 233.545 287.256 233.631 287.342C233.718 287.428 233.831 287.477 233.949 287.478ZM256.058 202.734C256.18 202.726 256.294 202.667 256.376 202.57C256.457 202.472 256.5 202.345 256.494 202.214L254.727 170.342C254.724 170.277 254.709 170.213 254.683 170.155C254.657 170.096 254.62 170.043 254.575 170C254.529 169.957 254.476 169.924 254.419 169.903C254.361 169.881 254.3 169.873 254.239 169.877C254.117 169.885 254.003 169.944 253.921 170.042C253.839 170.139 253.797 170.267 253.803 170.397L255.599 202.254C255.605 202.379 255.656 202.497 255.741 202.584C255.826 202.671 255.94 202.719 256.058 202.719V202.734ZM250.543 213.206C250.654 213.153 250.741 213.055 250.785 212.935C250.829 212.814 250.827 212.679 250.78 212.56L239.419 185.163C239.37 185.044 239.278 184.951 239.165 184.903C239.051 184.856 238.924 184.859 238.813 184.911C238.701 184.963 238.613 185.061 238.569 185.182C238.524 185.303 238.527 185.438 238.576 185.557L249.93 212.954C249.965 213.042 250.024 213.117 250.099 213.17C250.174 213.223 250.261 213.252 250.351 213.254C250.428 213.258 250.504 213.241 250.573 213.206H250.543ZM252.51 209.424L279.704 205.279C279.769 205.278 279.834 205.262 279.893 205.232C279.953 205.202 280.006 205.159 280.048 205.106C280.091 205.052 280.122 204.99 280.141 204.923C280.159 204.856 280.164 204.785 280.155 204.716C280.147 204.646 280.124 204.58 280.089 204.52C280.054 204.461 280.008 204.41 279.954 204.371C279.899 204.332 279.838 204.306 279.773 204.294C279.708 204.282 279.642 204.285 279.578 204.302L252.384 208.447C252.262 208.455 252.149 208.515 252.068 208.612C251.988 208.71 251.947 208.838 251.955 208.967C251.963 209.097 252.019 209.218 252.11 209.303C252.202 209.389 252.321 209.432 252.443 209.424H252.51ZM244.756 227.917C244.852 227.836 244.915 227.718 244.93 227.588C244.945 227.459 244.912 227.328 244.837 227.224L230.098 207.037C230.022 206.932 229.911 206.864 229.788 206.847C229.666 206.83 229.542 206.866 229.444 206.946C229.346 207.026 229.282 207.145 229.266 207.276C229.25 207.407 229.283 207.539 229.359 207.643L244.127 227.862C244.17 227.921 244.225 227.969 244.288 228.001C244.351 228.034 244.42 228.051 244.489 228.051C244.6 228.045 244.705 227.998 244.785 227.917H244.756ZM267.788 222.457C267.792 222.326 267.748 222.2 267.665 222.104C267.582 222.008 267.467 221.951 267.345 221.945L247.084 220.849C246.97 220.858 246.863 220.91 246.783 220.997C246.703 221.084 246.656 221.199 246.651 221.321C246.645 221.442 246.682 221.562 246.754 221.656C246.825 221.751 246.927 221.814 247.04 221.834L267.337 222.93C267.46 222.934 267.579 222.887 267.669 222.798C267.758 222.71 267.812 222.587 267.818 222.457H267.788ZM258.231 238.484C258.238 238.419 258.233 238.353 258.216 238.29C258.199 238.228 258.17 238.169 258.131 238.119C258.093 238.068 258.045 238.026 257.991 237.995C257.937 237.965 257.878 237.946 257.817 237.94L242.294 236.309C242.234 236.302 242.173 236.309 242.115 236.327C242.057 236.346 242.003 236.377 241.957 236.418C241.91 236.459 241.871 236.509 241.843 236.566C241.815 236.623 241.797 236.686 241.792 236.75C241.781 236.879 241.819 237.008 241.896 237.108C241.973 237.208 242.084 237.272 242.205 237.286L257.728 238.925H257.772C257.892 238.934 258.009 238.892 258.101 238.81C258.192 238.728 258.249 238.611 258.26 238.484H258.231ZM238.754 247.025C238.856 246.953 238.928 246.84 238.953 246.712C238.978 246.583 238.954 246.449 238.887 246.34L231.214 233.977C231.144 233.87 231.038 233.797 230.918 233.772C230.798 233.747 230.674 233.772 230.571 233.843C230.468 233.915 230.397 234.028 230.372 234.156C230.347 234.285 230.371 234.418 230.438 234.528L238.11 246.891C238.154 246.959 238.213 247.014 238.281 247.052C238.349 247.091 238.425 247.111 238.502 247.112C238.602 247.117 238.701 247.087 238.783 247.025H238.754ZM256.361 251.162C256.359 251.032 256.31 250.908 256.225 250.816C256.139 250.723 256.024 250.669 255.902 250.665L237.652 250.484C237.531 250.484 237.414 250.536 237.328 250.627C237.242 250.719 237.194 250.843 237.194 250.973C237.192 251.038 237.202 251.103 237.224 251.163C237.247 251.224 237.28 251.279 237.323 251.326C237.366 251.372 237.417 251.409 237.474 251.433C237.53 251.458 237.591 251.47 237.652 251.469L255.902 251.65C255.965 251.653 256.027 251.643 256.086 251.62C256.144 251.597 256.198 251.562 256.243 251.516C256.289 251.471 256.325 251.416 256.351 251.355C256.376 251.294 256.389 251.228 256.39 251.162H256.361ZM231.872 280.253C231.909 280.166 235.021 271.026 244.379 268.843C244.499 268.815 244.604 268.737 244.671 268.626C244.737 268.515 244.76 268.381 244.733 268.252C244.704 268.126 244.629 268.018 244.526 267.949C244.423 267.88 244.298 267.856 244.179 267.882C234.311 270.183 231.037 279.835 231 279.93C230.961 280.054 230.97 280.19 231.024 280.307C231.078 280.425 231.172 280.515 231.288 280.56H231.436C231.534 280.569 231.632 280.544 231.716 280.489C231.8 280.433 231.865 280.351 231.901 280.253H231.872ZM233.949 287.478C234.071 287.468 234.185 287.407 234.265 287.308C234.345 287.209 234.386 287.081 234.378 286.95C233.217 268.371 239.958 237.94 250.772 212.962C257.684 196.998 284.775 165.622 285.063 165.307C285.15 165.214 285.199 165.088 285.199 164.956C285.199 164.825 285.15 164.699 285.063 164.606C285.02 164.56 284.97 164.523 284.914 164.499C284.858 164.474 284.798 164.461 284.738 164.461C284.677 164.461 284.617 164.474 284.561 164.499C284.506 164.523 284.455 164.56 284.412 164.606C284.139 164.921 256.937 196.415 249.967 212.521C238.953 238.105 232.301 267.984 233.483 287.013C233.492 287.139 233.545 287.256 233.631 287.342C233.718 287.428 233.831 287.477 233.949 287.478ZM256.058 202.734C256.18 202.726 256.294 202.667 256.376 202.57C256.457 202.472 256.5 202.345 256.494 202.214L254.727 170.342C254.724 170.277 254.709 170.213 254.683 170.155C254.657 170.096 254.62 170.043 254.575 170C254.529 169.957 254.476 169.924 254.419 169.903C254.361 169.881 254.3 169.873 254.239 169.877C254.117 169.885 254.003 169.944 253.921 170.042C253.839 170.139 253.797 170.267 253.803 170.397L255.599 202.254C255.605 202.379 255.656 202.497 255.741 202.584C255.826 202.671 255.94 202.719 256.058 202.719V202.734ZM250.543 213.206C250.654 213.153 250.741 213.055 250.785 212.935C250.829 212.814 250.827 212.679 250.78 212.56L239.419 185.163C239.37 185.044 239.278 184.951 239.165 184.903C239.051 184.856 238.924 184.859 238.813 184.911C238.701 184.963 238.613 185.061 238.569 185.182C238.524 185.303 238.527 185.438 238.576 185.557L249.93 212.954C249.965 213.042 250.024 213.117 250.099 213.17C250.174 213.223 250.261 213.252 250.351 213.254C250.428 213.258 250.504 213.241 250.573 213.206H250.543ZM252.51 209.424L279.704 205.279C279.769 205.278 279.834 205.262 279.893 205.232C279.953 205.202 280.006 205.159 280.048 205.106C280.091 205.052 280.122 204.99 280.141 204.923C280.159 204.856 280.164 204.785 280.155 204.716C280.147 204.646 280.124 204.58 280.089 204.52C280.054 204.461 280.008 204.41 279.954 204.371C279.899 204.332 279.838 204.306 279.773 204.294C279.708 204.282 279.642 204.285 279.578 204.302L252.384 208.447C252.262 208.455 252.149 208.515 252.068 208.612C251.988 208.71 251.947 208.838 251.955 208.967C251.963 209.097 252.019 209.218 252.11 209.303C252.202 209.389 252.321 209.432 252.443 209.424H252.51ZM244.756 227.917C244.852 227.836 244.915 227.718 244.93 227.588C244.945 227.459 244.912 227.328 244.837 227.224L230.098 207.037C230.06 206.985 230.014 206.941 229.961 206.909C229.908 206.876 229.849 206.855 229.788 206.847C229.728 206.838 229.666 206.843 229.607 206.86C229.548 206.877 229.492 206.906 229.444 206.946C229.395 206.986 229.354 207.035 229.324 207.092C229.293 207.149 229.274 207.211 229.266 207.276C229.258 207.341 229.262 207.406 229.278 207.469C229.294 207.533 229.321 207.592 229.359 207.643L244.127 227.862C244.17 227.921 244.225 227.969 244.288 228.001C244.351 228.034 244.42 228.051 244.489 228.051C244.6 228.045 244.705 227.998 244.785 227.917H244.756ZM267.788 222.457C267.792 222.326 267.748 222.2 267.665 222.104C267.582 222.008 267.467 221.951 267.345 221.945L247.084 220.849C246.97 220.858 246.863 220.91 246.783 220.997C246.703 221.084 246.656 221.199 246.651 221.321C246.645 221.442 246.682 221.562 246.754 221.656C246.825 221.751 246.927 221.814 247.04 221.834L267.337 222.93C267.46 222.934 267.579 222.887 267.669 222.798C267.758 222.71 267.812 222.587 267.818 222.457H267.788ZM258.231 238.484C258.238 238.419 258.233 238.353 258.216 238.29C258.199 238.228 258.17 238.169 258.131 238.119C258.093 238.068 258.045 238.026 257.991 237.995C257.937 237.965 257.878 237.946 257.817 237.94L242.294 236.309C242.234 236.302 242.173 236.309 242.115 236.327C242.057 236.346 242.003 236.377 241.957 236.418C241.91 236.459 241.871 236.509 241.843 236.566C241.815 236.623 241.797 236.686 241.792 236.75C241.781 236.879 241.819 237.008 241.896 237.108C241.973 237.208 242.084 237.272 242.205 237.286L257.728 238.925H257.772C257.892 238.934 258.009 238.892 258.101 238.81C258.192 238.728 258.249 238.611 258.26 238.484H258.231ZM238.754 247.025C238.856 246.953 238.928 246.84 238.953 246.712C238.978 246.583 238.954 246.449 238.887 246.34L231.214 233.977C231.144 233.87 231.038 233.797 230.918 233.772C230.798 233.747 230.674 233.772 230.571 233.843C230.468 233.915 230.397 234.028 230.372 234.156C230.347 234.285 230.371 234.418 230.438 234.528L238.11 246.891C238.154 246.959 238.213 247.014 238.281 247.052C238.349 247.091 238.425 247.111 238.502 247.112C238.602 247.117 238.701 247.087 238.783 247.025H238.754ZM256.361 251.162C256.359 251.032 256.31 250.908 256.225 250.816C256.139 250.723 256.024 250.669 255.902 250.665L237.652 250.484C237.531 250.484 237.414 250.536 237.328 250.627C237.242 250.719 237.194 250.843 237.194 250.973C237.192 251.038 237.202 251.103 237.224 251.163C237.247 251.224 237.28 251.279 237.323 251.326C237.366 251.372 237.417 251.409 237.474 251.433C237.53 251.458 237.591 251.47 237.652 251.469L255.902 251.65C255.965 251.653 256.027 251.643 256.086 251.62C256.144 251.597 256.198 251.562 256.243 251.516C256.289 251.471 256.325 251.416 256.351 251.355C256.376 251.294 256.389 251.228 256.39 251.162H256.361ZM231.872 280.253C231.909 280.166 235.021 271.026 244.379 268.843C244.499 268.815 244.604 268.737 244.671 268.626C244.737 268.515 244.76 268.381 244.733 268.252C244.704 268.126 244.629 268.018 244.526 267.949C244.423 267.88 244.298 267.856 244.179 267.882C234.311 270.183 231.037 279.835 231 279.93C230.961 280.054 230.97 280.19 231.024 280.307C231.078 280.425 231.172 280.515 231.288 280.56H231.436C231.534 280.569 231.632 280.544 231.716 280.489C231.8 280.433 231.865 280.351 231.901 280.253H231.872Z" fill="#1B98E0"/>
<path opacity="0.2" d="M256.065 202.246L254.269 170.389L256.065 202.246ZM250.381 212.757L239.027 185.36L250.381 212.757ZM279.682 204.791L252.473 208.951L279.682 204.791ZM244.497 227.523L229.765 207.375L244.497 227.523ZM247.084 221.346L267.382 222.433L247.084 221.346ZM242.279 236.797L257.802 238.436L242.279 236.797ZM238.532 246.615L230.822 234.252L238.532 246.615ZM237.645 250.981L255.895 251.162L237.645 250.981ZM233.949 287.478C234.071 287.468 234.185 287.407 234.265 287.308C234.345 287.209 234.386 287.081 234.378 286.95C233.217 268.371 239.958 237.94 250.772 212.962C257.684 196.998 284.775 165.622 285.063 165.307C285.15 165.214 285.199 165.088 285.199 164.956C285.199 164.825 285.15 164.699 285.063 164.606C285.02 164.56 284.97 164.523 284.914 164.499C284.858 164.474 284.798 164.461 284.738 164.461C284.677 164.461 284.617 164.474 284.561 164.499C284.506 164.523 284.455 164.56 284.412 164.606C284.139 164.921 256.937 196.415 249.967 212.521C238.953 238.105 232.301 267.984 233.483 287.013C233.492 287.139 233.545 287.256 233.631 287.342C233.718 287.428 233.831 287.477 233.949 287.478ZM256.058 202.734C256.18 202.726 256.294 202.667 256.376 202.57C256.457 202.472 256.5 202.345 256.494 202.214L254.727 170.342C254.724 170.277 254.709 170.213 254.683 170.155C254.657 170.096 254.62 170.043 254.575 170C254.529 169.957 254.476 169.924 254.419 169.903C254.361 169.881 254.3 169.873 254.239 169.877C254.117 169.885 254.003 169.944 253.921 170.042C253.839 170.139 253.797 170.267 253.803 170.397L255.599 202.254C255.605 202.379 255.656 202.497 255.741 202.584C255.826 202.671 255.94 202.719 256.058 202.719V202.734ZM250.543 213.206C250.654 213.153 250.741 213.055 250.785 212.935C250.829 212.814 250.827 212.679 250.78 212.56L239.419 185.163C239.37 185.044 239.278 184.951 239.165 184.903C239.051 184.856 238.924 184.859 238.813 184.911C238.701 184.963 238.613 185.061 238.569 185.182C238.524 185.303 238.527 185.438 238.576 185.557L249.93 212.954C249.965 213.042 250.024 213.117 250.099 213.17C250.174 213.223 250.261 213.252 250.351 213.254C250.428 213.258 250.504 213.241 250.573 213.206H250.543ZM252.51 209.424L279.704 205.279C279.769 205.278 279.834 205.262 279.893 205.232C279.953 205.202 280.006 205.159 280.048 205.106C280.091 205.052 280.122 204.99 280.141 204.923C280.159 204.856 280.164 204.785 280.155 204.716C280.147 204.646 280.124 204.58 280.089 204.52C280.054 204.461 280.008 204.41 279.954 204.371C279.899 204.332 279.838 204.306 279.773 204.294C279.708 204.282 279.642 204.285 279.578 204.302L252.384 208.447C252.262 208.455 252.149 208.515 252.068 208.612C251.988 208.71 251.947 208.838 251.955 208.967C251.963 209.097 252.019 209.218 252.11 209.303C252.202 209.389 252.321 209.432 252.443 209.424H252.51ZM244.756 227.917C244.852 227.836 244.915 227.718 244.93 227.588C244.945 227.459 244.912 227.328 244.837 227.224L230.098 207.037C230.022 206.932 229.911 206.864 229.788 206.847C229.666 206.83 229.542 206.866 229.444 206.946C229.346 207.026 229.282 207.145 229.266 207.276C229.25 207.407 229.283 207.539 229.359 207.643L244.127 227.862C244.17 227.921 244.225 227.969 244.288 228.001C244.351 228.034 244.42 228.051 244.489 228.051C244.6 228.045 244.705 227.998 244.785 227.917H244.756ZM267.788 222.457C267.792 222.326 267.748 222.2 267.665 222.104C267.582 222.008 267.467 221.951 267.345 221.945L247.084 220.849C246.97 220.858 246.863 220.91 246.783 220.997C246.703 221.084 246.656 221.199 246.651 221.321C246.645 221.442 246.682 221.562 246.754 221.656C246.825 221.751 246.927 221.814 247.04 221.834L267.337 222.93C267.46 222.934 267.579 222.887 267.669 222.798C267.758 222.71 267.812 222.587 267.818 222.457H267.788ZM258.231 238.484C258.238 238.419 258.233 238.353 258.216 238.29C258.199 238.228 258.17 238.169 258.131 238.119C258.093 238.068 258.045 238.026 257.991 237.995C257.937 237.965 257.878 237.946 257.817 237.94L242.294 236.309C242.234 236.302 242.173 236.309 242.115 236.327C242.057 236.346 242.003 236.377 241.957 236.418C241.91 236.459 241.871 236.509 241.843 236.566C241.815 236.623 241.797 236.686 241.792 236.75C241.781 236.879 241.819 237.008 241.896 237.108C241.973 237.208 242.084 237.272 242.205 237.286L257.728 238.925H257.772C257.892 238.934 258.009 238.892 258.101 238.81C258.192 238.728 258.249 238.611 258.26 238.484H258.231ZM238.754 247.025C238.856 246.953 238.928 246.84 238.953 246.712C238.978 246.583 238.954 246.449 238.887 246.34L231.214 233.977C231.144 233.87 231.038 233.797 230.918 233.772C230.798 233.747 230.674 233.772 230.571 233.843C230.468 233.915 230.397 234.028 230.372 234.156C230.347 234.285 230.371 234.418 230.438 234.528L238.11 246.891C238.154 246.959 238.213 247.014 238.281 247.052C238.349 247.091 238.425 247.111 238.502 247.112C238.602 247.117 238.701 247.087 238.783 247.025H238.754ZM256.361 251.162C256.359 251.032 256.31 250.908 256.225 250.816C256.139 250.723 256.024 250.669 255.902 250.665L237.652 250.484C237.531 250.484 237.414 250.536 237.328 250.627C237.242 250.719 237.194 250.843 237.194 250.973C237.192 251.038 237.202 251.103 237.224 251.163C237.247 251.224 237.28 251.279 237.323 251.326C237.366 251.372 237.417 251.409 237.474 251.433C237.53 251.458 237.591 251.47 237.652 251.469L255.902 251.65C255.965 251.653 256.027 251.643 256.086 251.62C256.144 251.597 256.198 251.562 256.243 251.516C256.289 251.471 256.325 251.416 256.351 251.355C256.376 251.294 256.389 251.228 256.39 251.162H256.361ZM231.872 280.253C231.909 280.166 235.021 271.026 244.379 268.843C244.499 268.815 244.604 268.737 244.671 268.626C244.737 268.515 244.76 268.381 244.733 268.252C244.704 268.126 244.629 268.018 244.526 267.949C244.423 267.88 244.298 267.856 244.179 267.882C234.311 270.183 231.037 279.835 231 279.93C230.961 280.054 230.97 280.19 231.024 280.307C231.078 280.425 231.172 280.515 231.288 280.56H231.436C231.534 280.569 231.632 280.544 231.716 280.489C231.8 280.433 231.865 280.351 231.901 280.253H231.872ZM233.949 287.478C234.071 287.468 234.185 287.407 234.265 287.308C234.345 287.209 234.386 287.081 234.378 286.95C233.217 268.371 239.958 237.94 250.772 212.962C257.684 196.998 284.775 165.622 285.063 165.307C285.15 165.214 285.199 165.088 285.199 164.956C285.199 164.825 285.15 164.699 285.063 164.606C285.02 164.56 284.97 164.523 284.914 164.499C284.858 164.474 284.798 164.461 284.738 164.461C284.677 164.461 284.617 164.474 284.561 164.499C284.506 164.523 284.455 164.56 284.412 164.606C284.139 164.921 256.937 196.415 249.967 212.521C238.953 238.105 232.301 267.984 233.483 287.013C233.492 287.139 233.545 287.256 233.631 287.342C233.718 287.428 233.831 287.477 233.949 287.478ZM256.058 202.734C256.18 202.726 256.294 202.667 256.376 202.57C256.457 202.472 256.5 202.345 256.494 202.214L254.727 170.342C254.724 170.277 254.709 170.213 254.683 170.155C254.657 170.096 254.62 170.043 254.575 170C254.529 169.957 254.476 169.924 254.419 169.903C254.361 169.881 254.3 169.873 254.239 169.877C254.117 169.885 254.003 169.944 253.921 170.042C253.839 170.139 253.797 170.267 253.803 170.397L255.599 202.254C255.605 202.379 255.656 202.497 255.741 202.584C255.826 202.671 255.94 202.719 256.058 202.719V202.734ZM250.543 213.206C250.654 213.153 250.741 213.055 250.785 212.935C250.829 212.814 250.827 212.679 250.78 212.56L239.419 185.163C239.37 185.044 239.278 184.951 239.165 184.903C239.051 184.856 238.924 184.859 238.813 184.911C238.701 184.963 238.613 185.061 238.569 185.182C238.524 185.303 238.527 185.438 238.576 185.557L249.93 212.954C249.965 213.042 250.024 213.117 250.099 213.17C250.174 213.223 250.261 213.252 250.351 213.254C250.428 213.258 250.504 213.241 250.573 213.206H250.543ZM252.51 209.424L279.704 205.279C279.769 205.278 279.834 205.262 279.893 205.232C279.953 205.202 280.006 205.159 280.048 205.106C280.091 205.052 280.122 204.99 280.141 204.923C280.159 204.856 280.164 204.785 280.155 204.716C280.147 204.646 280.124 204.58 280.089 204.52C280.054 204.461 280.008 204.41 279.954 204.371C279.899 204.332 279.838 204.306 279.773 204.294C279.708 204.282 279.642 204.285 279.578 204.302L252.384 208.447C252.262 208.455 252.149 208.515 252.068 208.612C251.988 208.71 251.947 208.838 251.955 208.967C251.963 209.097 252.019 209.218 252.11 209.303C252.202 209.389 252.321 209.432 252.443 209.424H252.51ZM244.756 227.917C244.852 227.836 244.915 227.718 244.93 227.588C244.945 227.459 244.912 227.328 244.837 227.224L230.098 207.037C230.06 206.985 230.014 206.941 229.961 206.909C229.908 206.876 229.849 206.855 229.788 206.847C229.728 206.838 229.666 206.843 229.607 206.86C229.548 206.877 229.492 206.906 229.444 206.946C229.395 206.986 229.354 207.035 229.324 207.092C229.293 207.149 229.274 207.211 229.266 207.276C229.258 207.341 229.262 207.406 229.278 207.469C229.294 207.533 229.321 207.592 229.359 207.643L244.127 227.862C244.17 227.921 244.225 227.969 244.288 228.001C244.351 228.034 244.42 228.051 244.489 228.051C244.6 228.045 244.705 227.998 244.785 227.917H244.756ZM267.788 222.457C267.792 222.326 267.748 222.2 267.665 222.104C267.582 222.008 267.467 221.951 267.345 221.945L247.084 220.849C246.97 220.858 246.863 220.91 246.783 220.997C246.703 221.084 246.656 221.199 246.651 221.321C246.645 221.442 246.682 221.562 246.754 221.656C246.825 221.751 246.927 221.814 247.04 221.834L267.337 222.93C267.46 222.934 267.579 222.887 267.669 222.798C267.758 222.71 267.812 222.587 267.818 222.457H267.788ZM258.231 238.484C258.238 238.419 258.233 238.353 258.216 238.29C258.199 238.228 258.17 238.169 258.131 238.119C258.093 238.068 258.045 238.026 257.991 237.995C257.937 237.965 257.878 237.946 257.817 237.94L242.294 236.309C242.234 236.302 242.173 236.309 242.115 236.327C242.057 236.346 242.003 236.377 241.957 236.418C241.91 236.459 241.871 236.509 241.843 236.566C241.815 236.623 241.797 236.686 241.792 236.75C241.781 236.879 241.819 237.008 241.896 237.108C241.973 237.208 242.084 237.272 242.205 237.286L257.728 238.925H257.772C257.892 238.934 258.009 238.892 258.101 238.81C258.192 238.728 258.249 238.611 258.26 238.484H258.231ZM238.754 247.025C238.856 246.953 238.928 246.84 238.953 246.712C238.978 246.583 238.954 246.449 238.887 246.34L231.214 233.977C231.144 233.87 231.038 233.797 230.918 233.772C230.798 233.747 230.674 233.772 230.571 233.843C230.468 233.915 230.397 234.028 230.372 234.156C230.347 234.285 230.371 234.418 230.438 234.528L238.11 246.891C238.154 246.959 238.213 247.014 238.281 247.052C238.349 247.091 238.425 247.111 238.502 247.112C238.602 247.117 238.701 247.087 238.783 247.025H238.754ZM256.361 251.162C256.359 251.032 256.31 250.908 256.225 250.816C256.139 250.723 256.024 250.669 255.902 250.665L237.652 250.484C237.531 250.484 237.414 250.536 237.328 250.627C237.242 250.719 237.194 250.843 237.194 250.973C237.192 251.038 237.202 251.103 237.224 251.163C237.247 251.224 237.28 251.279 237.323 251.326C237.366 251.372 237.417 251.409 237.474 251.433C237.53 251.458 237.591 251.47 237.652 251.469L255.902 251.65C255.965 251.653 256.027 251.643 256.086 251.62C256.144 251.597 256.198 251.562 256.243 251.516C256.289 251.471 256.325 251.416 256.351 251.355C256.376 251.294 256.389 251.228 256.39 251.162H256.361ZM231.872 280.253C231.909 280.166 235.021 271.026 244.379 268.843C244.499 268.815 244.604 268.737 244.671 268.626C244.737 268.515 244.76 268.381 244.733 268.252C244.704 268.126 244.629 268.018 244.526 267.949C244.423 267.88 244.298 267.856 244.179 267.882C234.311 270.183 231.037 279.835 231 279.93C230.961 280.054 230.97 280.19 231.024 280.307C231.078 280.425 231.172 280.515 231.288 280.56H231.436C231.534 280.569 231.632 280.544 231.716 280.489C231.8 280.433 231.865 280.351 231.901 280.253H231.872Z" fill="black"/>
<path d="M246.019 273.587H225.093V278.204H226.919L230.696 303.395H240.416L244.194 278.204H246.019V273.587Z" fill="#1B98E0"/>
<path opacity="0.3" d="M246.019 273.587H225.093V278.204H226.919L230.696 303.395H240.416L244.194 278.204H246.019V273.587Z" fill="white"/>
<path d="M57.6183 133.962L33.2773 125.492L31.1115 119.393L26.1664 119.228L17.1929 117.415L18.2721 119.393L29.5667 128.131L32.3533 129.613L57.8105 143.788L57.6183 133.962Z" fill="white" stroke="#263238" stroke-width="1.00396" stroke-miterlimit="10"/>
<path d="M31.1119 119.393L28.7909 117.912L24.1562 119.724L24.925 120.709L31.1119 119.393Z" fill="white" stroke="#263238" stroke-width="1.00396" stroke-linejoin="round"/>
<path d="M57.6183 133.962L33.2773 125.492L31.1115 119.393L26.1664 119.228L17.1929 117.415L18.2721 119.393L29.5667 128.131L32.3533 129.613L57.8105 143.788L57.6183 133.962Z" fill="white"/>
<path opacity="0.5" d="M57.6183 133.962L33.2773 125.492L31.1115 119.393L26.1664 119.228L17.1929 117.415L18.2721 119.393L29.5667 128.131L32.3533 129.613L57.8105 143.788L57.6183 133.962Z" fill="#1B98E0" stroke="#263238" stroke-width="1.00396" stroke-miterlimit="10"/>
<path d="M57.6183 133.962L33.2773 125.492L31.1115 119.393L26.1664 119.228L17.1929 117.415L18.2721 119.393L29.5667 128.131L32.3533 129.613L57.8105 143.788L57.6183 133.962Z" stroke="#263238" stroke-width="1.00396" stroke-miterlimit="10"/>
<path d="M31.1119 119.393L28.7909 117.912L24.1562 119.724L24.925 120.709L31.1119 119.393Z" fill="white"/>
<path opacity="0.5" d="M31.1119 119.393L28.7909 117.912L24.1562 119.724L24.925 120.709L31.1119 119.393Z" fill="#1B98E0" stroke="#263238" stroke-width="1.00396" stroke-linejoin="round"/>
<path d="M31.1119 119.393L28.7909 117.912L24.1562 119.724L24.925 120.709L31.1119 119.393Z" stroke="#263238" stroke-width="1.00396" stroke-linejoin="round"/>
<path d="M62.7853 78.9872C62.7853 78.9872 62.4083 82.533 63.3471 84.8102C64.2858 87.0873 69.497 94.8014 69.497 94.8014L59.7695 103.114C59.7695 103.114 55.7336 94.4468 54.9648 93.0442C54.1961 91.6417 53.2721 85.606 55.7779 81.2802C58.2837 76.9543 61.8909 75.7881 62.7853 78.9872Z" fill="white"/>
<g style="mix-blend-mode:multiply" opacity="0.5">
<path d="M57.7883 90.3809L62.009 99.7102L59.7619 103.122L55.519 95.0455L57.7883 90.3809Z" fill="#1B98E0"/>
</g>
<path d="M62.7853 78.9872C62.7853 78.9872 62.4083 82.533 63.3471 84.8102C64.2858 87.0873 69.497 94.8014 69.497 94.8014L59.7695 103.114C59.7695 103.114 55.7336 94.4468 54.9648 93.0442C54.1961 91.6417 53.2721 85.606 55.7779 81.2802C58.2837 76.9543 61.8909 75.7881 62.7853 78.9872Z" stroke="#263238" stroke-width="1.00396" stroke-miterlimit="10"/>
<path d="M65.8012 72.4946C65.2024 68.5548 60.967 60.5414 54.2479 60.8487C49.8867 61.0535 47.8466 61.9912 45.9543 63.1337C44.4119 64.1025 42.9741 65.2493 41.6671 66.5534C38.3852 70.7532 37.2321 71.9036 37.8678 75.1184C37.8156 76.4007 38.0041 77.6812 38.4221 78.8848C39.4274 81.7451 40.1149 83.6125 40.9871 84.9757C40.721 86.3073 40.0262 89.8216 39.9892 90.6253C39.9522 91.429 42.2067 90.8695 43.345 90.5622C45.4591 95.6051 49.3324 99.1036 50.5372 99.5055C52.6365 100.207 55.9554 96.527 57.7146 93.6746C59.4738 90.8223 58.1433 87.6153 58.1507 86.3388C58.1581 85.0624 62.1053 82.2573 63.5689 81.3669C65.0324 80.4765 66.3925 76.4264 65.8012 72.4946Z" fill="white"/>
<g style="mix-blend-mode:multiply" opacity="0.5">
<path d="M37.8971 75.1179C37.8449 76.4002 38.0334 77.6807 38.4515 78.8843C39.4568 81.7446 40.1442 83.612 41.0164 84.9752C40.7503 86.3068 40.0555 89.8211 40.0185 90.6248C39.9816 91.4285 42.2361 90.869 43.3744 90.5617C45.4884 95.6046 49.3617 99.1031 50.5665 99.505C52.6658 100.206 55.9847 96.5265 57.7439 93.6741C58.1834 92.962 58.4688 92.1545 58.5792 91.3103C58.4831 90.9399 58.4166 90.7114 58.4166 90.7114C58.4166 90.7114 57.4261 94.7694 55.4599 94.2414C53.4937 93.7135 50.4852 89.5138 48.8073 88.0639C47.1294 86.6141 47.8168 84.7073 47.4842 82.5483C47.1516 80.3893 42.1843 78.4903 41.8517 77.2533C41.5191 76.0162 42.6796 70.8945 42.6796 70.8945C42.6796 70.8945 44.5645 68.2155 44.1579 69.3186C43.8706 70.2751 43.7663 71.2834 43.8514 72.2836C43.9365 73.2839 44.2091 74.2557 44.6532 75.1415C44.9647 75.8405 45.459 76.4287 46.0766 76.8355C46.6942 77.2422 47.4088 77.4502 48.1347 77.4345L49.9382 67.9082L46.1315 64.5515L41.6965 66.5214C38.385 70.7527 37.254 71.9031 37.8971 75.1179Z" fill="#1B98E0"/>
</g>
<path d="M65.8012 72.4946C65.2024 68.5548 60.967 60.5414 54.2479 60.8487C49.8867 61.0535 47.8466 61.9912 45.9543 63.1337C44.4119 64.1025 42.9741 65.2493 41.6671 66.5534C38.3852 70.7532 37.2321 71.9036 37.8678 75.1184C37.8156 76.4007 38.0041 77.6812 38.4221 78.8848C39.4274 81.7451 40.1149 83.6125 40.9871 84.9757C40.721 86.3073 40.0262 89.8216 39.9892 90.6253C39.9522 91.429 42.2067 90.8695 43.345 90.5622C45.4591 95.6051 49.3324 99.1036 50.5372 99.5055C52.6365 100.207 55.9554 96.527 57.7146 93.6746C59.4738 90.8223 58.1433 87.6153 58.1507 86.3388C58.1581 85.0624 62.1053 82.2573 63.5689 81.3669C65.0324 80.4765 66.3925 76.4264 65.8012 72.4946Z" stroke="#263238" stroke-miterlimit="10"/>
<path d="M41.9038 82.5959L42.643 84.8495C42.643 84.8495 44.2322 85.4089 46.1688 83.1554" stroke="#263238" stroke-miterlimit="10" stroke-linecap="round"/>
<path d="M47.3662 93.1229C47.3662 93.1229 49.1254 92.9338 49.8351 90.302" stroke="#263238" stroke-miterlimit="10" stroke-linecap="round"/>
<path d="M40.6694 80.7126C40.6694 80.7126 41.1942 79.0186 44.3653 79.0186" stroke="#263238" stroke-miterlimit="10" stroke-linecap="round"/>
<path d="M56.9237 57.7125C54.6195 57.3593 52.2958 57.1698 49.968 57.1452C49.968 57.1452 43.005 52.8666 36.3155 57.4289C29.626 61.9911 32.8414 69.9809 32.8414 71.9744C32.8414 73.9679 30.6978 73.9758 32.0357 76.5445C33.3736 79.1132 37.8973 77.6949 37.8973 77.6949C37.9451 76.7261 38.1853 75.7791 38.602 74.9166C39.0187 74.054 39.6023 73.2956 40.3144 72.6914C42.7241 70.6979 44.646 70.2646 45.4443 70.8398C45.4443 70.8398 44.9121 75.1183 45.7104 76.8282C45.7104 76.8282 48.3862 78.2544 49.1919 78.2544C49.9976 78.2544 48.6671 79.4599 51.3355 80.5315C51.8217 80.7177 52.3417 80.7811 52.8547 80.7168C53.3677 80.6526 53.8598 80.4624 54.2922 80.1612C54.684 78.4277 55.5414 75.8196 57.138 76.4263C59.4812 77.3167 61.6174 83.4627 58.4464 85.5586C62.2605 86.2993 66.8803 79.1053 67.1538 72.5496C67.4273 65.9939 60.8856 58.4532 56.9237 57.7125Z" fill="#263238"/>
<path d="M45.5625 68.0267C45.5625 68.0267 47.5287 66.8999 49.9384 69.311C52.3481 71.7221 57.0345 74.9448 63.2435 73.172" stroke="white" stroke-width="0.5" stroke-linecap="round" stroke-linejoin="round"/>
<path d="M45.2891 66.0963C45.2891 66.0963 46.6418 63.8428 48.9036 63.8428C51.1655 63.8428 56.4506 67.2231 60.6713 67.2231" stroke="white" stroke-width="0.5" stroke-linecap="round" stroke-linejoin="round"/>
<path d="M43.7516 70.438C43.7516 70.438 41.1867 67.0655 38.777 69.7997C36.3673 72.5339 37.8974 75.1184 37.8974 75.1184" stroke="white" stroke-width="0.5" stroke-linecap="round" stroke-linejoin="round"/>
<path d="M33.499 72.6913C34.9689 71.2783 35.8826 69.3246 36.0566 67.2229C36.3596 63.685 40.8908 60.6278 43.7514 63.5274" stroke="white" stroke-width="0.5" stroke-linecap="round" stroke-linejoin="round"/>
<path d="M38.1709 59.8242C38.1709 59.8242 42.702 55.1596 46.4718 61.1086" stroke="white" stroke-width="0.5" stroke-linecap="round" stroke-linejoin="round"/>
<path d="M75.0482 289.173C75.0482 289.173 77.8349 293.79 77.5245 296.761L77.2214 299.731C77.2214 299.731 66.9986 302.717 64.8329 302.717C62.6671 302.717 51.2025 301.559 51.2025 301.559L50.7072 299.463C50.6726 299.308 50.6889 299.146 50.7535 299.002C50.8181 298.859 50.927 298.743 51.062 298.675L61.2848 293.593L64.5076 289.834L75.0482 289.173Z" fill="white" stroke="#263238" stroke-width="1.00396" stroke-miterlimit="10"/>
<path d="M66.3851 300.393C69.157 300.621 74.4199 298.817 77.4727 297.667L77.2584 299.731C77.2584 299.731 66.9986 302.717 64.8328 302.717C62.6671 302.717 51.2025 301.559 51.2025 301.559L50.8477 300.062C52.6808 300.07 62.7188 300.093 66.3851 300.393Z" fill="#1B98E0" stroke="#263238" stroke-width="1.00396" stroke-miterlimit="10"/>
<path d="M61.2996 293.593L46.42 300.496C46.42 300.496 45.1487 303.892 46.42 304.569C47.6914 305.247 75.4105 304.569 75.4105 304.569C75.4105 304.569 77.3249 299.203 74.3017 295.602C71.2785 292.001 61.2996 293.593 61.2996 293.593Z" fill="white" stroke="#263238" stroke-width="1.00396" stroke-miterlimit="10"/>
<path d="M75.4106 304.569C75.4106 304.569 47.6916 305.247 46.4202 304.569C45.8067 304.238 45.7845 303.285 45.925 302.379H75.8985C75.8005 303.123 75.6372 303.857 75.4106 304.569Z" fill="#1B98E0" stroke="#263238" stroke-width="1.00396" stroke-miterlimit="10"/>
<path d="M54.2627 173.659C54.2627 173.659 50.3746 192.026 48.9036 203.515C47.4327 215.003 46.5679 238.019 46.8783 240.659C47.1888 243.298 62.6671 287.526 62.6671 287.526L64.212 291.465L75.0482 289.157C75.0482 289.157 70.0958 272.326 68.2405 263.084C66.3851 253.841 62.3271 238.657 62.3271 236.018C62.3271 233.378 71.9363 182.965 72.6238 179.655C73.3112 176.346 76.4305 171.264 76.4305 171.264L55.6819 170.815L54.2627 173.659Z" fill="#1B98E0" stroke="#263238" stroke-width="1.00396" stroke-miterlimit="10"/>
<path d="M54.2626 173.659C54.2626 173.659 51.986 190.435 52.9247 202.096C53.8635 213.758 55.8814 238.586 55.8814 242.282C55.8814 245.977 61.477 268.048 61.7948 274.982C62.2901 284.996 61.5952 289.953 61.5952 289.953L61.2626 293.585C61.2626 293.585 67.7895 294.578 69.2161 295.011C70.8639 295.464 72.5643 295.66 74.2647 295.594C74.2647 295.594 76.6374 284.461 76.6374 274.974C76.6374 265.487 74.6638 245.961 73.6807 238.05C72.6976 230.139 75.7948 199.622 77.554 193.925C79.3132 188.228 83.157 176.165 80.5698 170.003C77.9827 163.841 54.2626 173.659 54.2626 173.659Z" fill="#1B98E0" stroke="#263238" stroke-width="1.00396" stroke-miterlimit="10"/>
<path d="M83.4451 166.914L83.2086 174.416C83.2086 174.416 78.9953 175.306 73.3184 176.354C68.6321 177.221 56.8644 176.125 52.9025 175.716C52.5414 175.682 52.2076 175.497 51.9736 175.202C51.7397 174.907 51.6245 174.525 51.6532 174.14L52.0376 167.363L83.4451 166.914Z" fill="#263238"/>
<path d="M66.9765 92.1379C66.9765 92.1379 60.3239 99.8047 57.8181 104.572C55.3123 109.339 54.3218 116.643 53.3831 122.395C52.4443 128.147 54.9871 141.653 54.2701 147.854L52.0008 167.387C52.0008 167.387 51.513 168.711 53.1466 170.161C54.7801 171.611 62.7558 172.138 69.9628 172.525C72.5942 172.666 80.4516 170.862 81.7378 170.775C83.2901 170.673 83.3418 168.569 83.4084 166.914C83.7188 159.137 85.0345 138.406 85.8994 129.376C87.6808 110.962 77.9311 93.1859 66.9765 92.1379Z" fill="white" stroke="#263238" stroke-width="1.00396" stroke-miterlimit="10"/>
<g style="mix-blend-mode:multiply">
<path d="M85.0864 139.848C85.382 135.759 85.6777 132.048 85.9364 129.377C86.0103 128.589 86.0547 127.801 86.0917 127.013L68.418 130.165L53.2354 124.649C53.237 127.998 53.4147 131.344 53.7676 134.672L68.6619 139.116L85.0864 139.848Z" fill="#1B98E0"/>
</g>
<g style="mix-blend-mode:multiply">
<path d="M66.3187 92.9102C65.3134 94.1 63.3176 96.519 61.418 99.0877L72.6386 111.246L76.3345 109.67L66.3187 92.9102Z" fill="#1B98E0"/>
</g>
<path d="M66.9765 92.1379C66.9765 92.1379 60.324 99.8047 57.8182 104.572C57.0751 106.021 56.4733 107.547 56.022 109.126L69.401 92.6501C68.6106 92.3949 67.7985 92.2233 66.9765 92.1379Z" fill="#263238"/>
<g style="mix-blend-mode:multiply">
<path d="M53.9004 119.291L68.4178 124.381L86.0471 122.222C85.7708 117.541 84.7951 112.936 83.1569 108.583L68.9426 114.658L56.2362 108.52C55.1972 112.04 54.4162 115.641 53.9004 119.291Z" fill="#1B98E0"/>
</g>
<g style="mix-blend-mode:multiply">
<path d="M78.8922 159.137C71.529 160.455 63.9739 159.797 56.9091 157.223L53.3685 155.93L52.2671 165.386L56.303 166.591C63.9754 168.878 71.9944 169.537 79.9048 168.53L83.1646 168.112C83.3342 167.729 83.4297 167.314 83.4455 166.891C83.5342 164.787 83.6894 161.73 83.889 158.223L78.8922 159.137Z" fill="#1B98E0"/>
</g>
<g style="mix-blend-mode:multiply">
<path d="M80.8656 146.262C73.5021 147.585 65.9452 146.924 58.8825 144.339L54.3736 142.693C54.4854 144.409 54.4632 146.133 54.307 147.846L53.7822 152.392L58.2764 153.732C65.9458 156.021 73.9624 156.682 81.8709 155.678L84.0884 155.394C84.2732 152.243 84.4875 148.886 84.7167 145.569L80.8656 146.262Z" fill="#1B98E0"/>
</g>
<path d="M11.5169 112.941L25.8091 125.191L26.4251 124.374L12.1329 112.125L11.5169 112.941Z" fill="#263238"/>
<path d="M73.8582 100.64C73.8582 100.64 79.0989 104.446 79.2172 113.436C79.2689 117.376 78.8846 121.056 78.0345 127.509C77.1845 133.962 71.9068 154.977 67.7969 157.53C63.6871 160.083 57.3081 155.261 57.3081 155.261L26.4549 133.426L18.9967 127.005L15.3008 119.566L16.4613 117.203L25.5605 124.641L20.6598 119.811L21.6207 118.511L23.3947 119.826L28.569 121.891L29.6999 129.77L31.2965 130.937L60.8117 142.433C60.8117 142.433 60.4422 125.5 60.7157 122.261C60.9892 119.023 61.3661 110.883 64.6185 104.982" fill="white"/>
<g style="mix-blend-mode:multiply" opacity="0.5">
<path d="M60.6047 129.636C60.6047 135.483 60.7895 142.433 60.7895 142.433L31.3039 130.984L29.7072 129.818L28.5763 121.938L23.4021 119.874L21.6355 118.534L20.6745 119.834L25.5605 124.641L16.4612 117.203L15.3599 119.527L19.0557 126.965L26.514 133.427L28.3915 134.758L69.157 148.76L60.6047 129.636Z" fill="#1B98E0"/>
</g>
<path d="M73.8582 100.64C73.8582 100.64 79.0989 104.446 79.2172 113.436C79.2689 117.376 78.8846 121.056 78.0345 127.509C77.1845 133.962 71.9068 154.977 67.7969 157.53C63.6871 160.083 57.3081 155.261 57.3081 155.261L26.4549 133.426L18.9967 127.005L15.3008 119.566L16.4613 117.203L25.5605 124.641L20.6598 119.811L21.6207 118.511L23.3947 119.826L28.569 121.891L29.6999 129.77L31.2965 130.937L60.8117 142.433C60.8117 142.433 60.4422 125.5 60.7157 122.261C60.9892 119.023 61.3661 110.883 64.6185 104.982" stroke="#263238" stroke-width="1.00396" stroke-miterlimit="10"/>
<path d="M60.8118 142.433L72.0768 151.1L74.9965 145.584C74.9965 145.584 77.0145 143.89 77.3101 142.614C77.6058 141.337 77.2288 139.265 77.5319 137.989C77.8349 136.712 79.3429 135.514 79.4833 132.426C79.6237 129.337 79.4833 126.76 79.4833 126.76C79.4833 126.76 81.9226 116.068 81.6565 111.419C81.3904 106.77 77.1845 98.5517 73.8138 98.3705C70.4432 98.1892 66.0599 98.7329 62.6597 104.217C59.2595 109.701 59.9543 125.712 59.4221 126.713C58.8899 127.714 59.6291 132.654 59.6291 132.654C59.3337 132.889 59.0886 133.188 58.9101 133.532C58.7317 133.876 58.624 134.256 58.5942 134.648C58.5351 135.932 59.8361 139.092 59.8361 139.092L60.8118 142.433Z" fill="white" stroke="#263238" stroke-width="1.00396" stroke-miterlimit="10"/>
<g style="mix-blend-mode:multiply">
<path d="M59.7177 122.6C59.7409 123.975 59.6444 125.349 59.4294 126.705C58.9563 127.604 59.4959 131.662 59.6142 132.489C65.9502 134.587 72.6501 135.125 79.2097 134.065C79.3506 133.517 79.4349 132.954 79.461 132.386C79.6088 129.306 79.461 126.721 79.461 126.721C79.461 126.721 79.6754 125.768 79.971 124.318C73.1776 124.778 66.3573 124.2 59.7177 122.6Z" fill="#1B98E0"/>
</g>
<g style="mix-blend-mode:multiply">
<path d="M62.2013 105.092C61.1443 107.353 60.5529 110.75 60.2129 114.193C66.9232 116.923 74.1581 117.861 81.2867 116.927C81.5712 115.105 81.6974 113.258 81.6637 111.411C81.5357 109.951 81.2121 108.519 80.7028 107.156C74.4783 107.311 68.2608 106.618 62.2013 105.092Z" fill="#1B98E0"/>
</g>
<path d="M59.8359 139.179L60.7895 142.433L72.0545 151.1L74.9742 145.585C74.9742 145.585 76.9922 143.891 77.2878 142.614C77.3406 142.392 77.3728 142.165 77.3839 141.937C71.4475 141.827 65.5493 140.9 59.8359 139.179Z" fill="#263238"/>
<path d="M67.9889 294.909C67.9889 294.909 68.2402 288.085 69.4673 278.11C70.6943 268.134 67.745 253.967 67.2497 251.603C66.7545 249.239 67.5011 243.992 67.0058 242.148C66.5106 240.304 64.1156 232.44 65.5275 223.316C66.9393 214.191 68.085 190.072 68.085 190.072C68.085 190.072 64.5296 186.991 63.4873 182.981C62.4451 178.97 63.2434 177.709 63.2434 177.709" stroke="#263238" stroke-width="1.00396" stroke-miterlimit="10"/>
<path d="M69.6375 178.08L68.27 186.148" stroke="#263238" stroke-width="1.00396" stroke-miterlimit="10"/>
</svg>
