<svg width="358" height="267" viewBox="0 0 358 267" fill="none" xmlns="http://www.w3.org/2000/svg">
<path d="M358 234.418H0V234.597H358V234.418Z" fill="url(#paint0_linear_114_3016)"/>
<path d="M169.692 202.485H31.4396C30.3565 202.483 29.3185 202.051 28.5533 201.285C27.7882 200.518 27.3584 199.479 27.3584 198.396V4.05256C27.3678 2.97571 27.8017 1.94607 28.5659 1.18728C29.33 0.428496 30.3627 0.00184469 31.4396 0H169.692C170.776 0 171.816 0.430737 172.583 1.19745C173.35 1.96417 173.78 3.00406 173.78 4.08836V198.396C173.78 199.481 173.35 200.521 172.583 201.287C171.816 202.054 170.776 202.485 169.692 202.485ZM31.4396 0.143201C30.404 0.145097 29.4115 0.557811 28.6799 1.29075C27.9483 2.02369 27.5374 3.01697 27.5374 4.05256V198.396C27.5374 199.432 27.9483 200.425 28.6799 201.158C29.4115 201.891 30.404 202.304 31.4396 202.306H169.692C170.728 202.304 171.722 201.891 172.454 201.159C173.187 200.426 173.6 199.433 173.601 198.396V4.05256C173.6 3.01631 173.187 2.02305 172.454 1.29032C171.722 0.557578 170.728 0.145093 169.692 0.143201H31.4396Z" fill="url(#paint1_linear_114_3016)"/>
<path d="M324.57 202.485H186.31C185.227 202.483 184.188 202.052 183.422 201.285C182.655 200.519 182.224 199.48 182.222 198.396V4.05256C182.233 2.97506 182.669 1.94543 183.434 1.18684C184.199 0.428246 185.233 0.00182458 186.31 0H324.57C325.646 0.00372642 326.676 0.43121 327.439 1.1898C328.202 1.94838 328.635 2.97695 328.644 4.05256V198.396C328.644 199.478 328.215 200.516 327.452 201.282C326.688 202.049 325.652 202.481 324.57 202.485ZM186.31 0.143201C185.274 0.145093 184.281 0.557578 183.548 1.29032C182.815 2.02305 182.403 3.01631 182.401 4.05256V198.396C182.403 199.433 182.815 200.426 183.548 201.159C184.281 201.891 185.274 202.304 186.31 202.306H324.57C325.606 202.304 326.6 201.891 327.332 201.159C328.065 200.426 328.477 199.433 328.479 198.396V4.05256C328.477 3.01631 328.065 2.02305 327.332 1.29032C326.6 0.557578 325.606 0.145093 324.57 0.143201H186.31Z" fill="url(#paint2_linear_114_3016)"/>
<path d="M143.515 241.235H124.899V241.414H143.515V241.235Z" fill="url(#paint3_linear_114_3016)"/>
<path d="M76.297 239.294H37.5614V239.473H76.297V239.294Z" fill="url(#paint4_linear_114_3016)"/>
<path d="M124.183 247.886H105.338V248.065H124.183V247.886Z" fill="url(#paint5_linear_114_3016)"/>
<path d="M212.695 246.683H184.893V246.862H212.695V246.683Z" fill="url(#paint6_linear_114_3016)"/>
<path d="M226.721 246.683H219.067V246.862H226.721V246.683Z" fill="url(#paint7_linear_114_3016)"/>
<path d="M322.136 243.662H283.071V243.841H322.136V243.662Z" fill="url(#paint8_linear_114_3016)"/>
<path d="M161.315 25.9551H55.0747V138.066H161.315V25.9551Z" fill="url(#paint9_linear_114_3016)"/>
<path d="M172.706 22.325H48.2012C47.9201 22.325 47.6506 22.4366 47.4519 22.6353C47.2531 22.8341 47.1415 23.1036 47.1415 23.3846C47.1415 23.5235 47.1689 23.6609 47.2223 23.7891C47.2756 23.9172 47.3538 24.0336 47.4523 24.1314C47.5508 24.2292 47.6677 24.3066 47.7962 24.3591C47.9247 24.4116 48.0623 24.4381 48.2012 24.4371H172.706C172.986 24.4371 173.253 24.3263 173.451 24.1289C173.648 23.9315 173.759 23.6638 173.759 23.3846C173.76 23.2458 173.733 23.1082 173.681 22.9796C173.628 22.8511 173.551 22.7342 173.453 22.6358C173.355 22.5373 173.239 22.4591 173.111 22.4057C172.983 22.3524 172.845 22.3249 172.706 22.325Z" fill="url(#paint10_linear_114_3016)"/>
<path d="M165.833 25.9551H57.1869V138.066H165.833V25.9551Z" fill="url(#paint11_linear_114_3016)"/>
<path d="M161.315 138.066H55.0747V142.255H161.315V138.066Z" fill="url(#paint12_linear_114_3016)"/>
<path d="M173.336 138.066H64.6906V142.255H173.336V138.066Z" fill="url(#paint13_linear_114_3016)"/>
<path d="M159.518 131.758V32.27L63.4949 32.27V131.758H159.518Z" fill="#81D1FF"/>
<path d="M85.2899 131.758L122.336 32.2629H139.82L102.782 131.758H85.2899Z" fill="white"/>
<path d="M106.534 131.758L143.58 32.2629H150.396L113.35 131.758H106.534Z" fill="white"/>
<path d="M159.518 131.751V32.2629H158.716V131.751H159.518Z" fill="url(#paint14_linear_114_3016)"/>
<g opacity="0.6">
<path opacity="0.6" d="M60.8886 121.706H47.5496L54.7382 20.4419H68.0773L60.8886 121.706Z" fill="url(#paint15_linear_114_3016)"/>
<path opacity="0.6" d="M66.0868 121.706H55.6904L62.8791 20.4419H73.2754L66.0868 121.706Z" fill="url(#paint16_linear_114_3016)"/>
<path opacity="0.6" d="M74.2277 121.706H60.8887L68.0773 20.4419H81.4164L74.2277 121.706Z" fill="url(#paint17_linear_114_3016)"/>
<path opacity="0.6" d="M79.4259 121.706H69.0295L76.2253 20.4419H86.6145L79.4259 121.706Z" fill="url(#paint18_linear_114_3016)"/>
<path opacity="0.6" d="M87.5667 121.706H74.2277L81.4163 20.4419H94.7625L87.5667 121.706Z" fill="url(#paint19_linear_114_3016)"/>
</g>
<g opacity="0.6">
<path opacity="0.6" d="M163.627 121.706H171.167L167.107 20.4419H159.568L163.627 121.706Z" fill="url(#paint20_linear_114_3016)"/>
<path opacity="0.6" d="M160.692 121.706H166.563L162.503 20.4419H156.625L160.692 121.706Z" fill="url(#paint21_linear_114_3016)"/>
<path opacity="0.6" d="M156.088 121.706H163.627L159.568 20.4419H152.028L156.088 121.706Z" fill="url(#paint22_linear_114_3016)"/>
<path opacity="0.6" d="M153.152 121.706H159.024L154.964 20.4419H149.085L153.152 121.706Z" fill="url(#paint23_linear_114_3016)"/>
<path opacity="0.6" d="M148.548 121.706H156.088L152.028 20.4419H144.489L148.548 121.706Z" fill="url(#paint24_linear_114_3016)"/>
</g>
<path d="M305.489 20.4419H232.02V118.119H305.489V20.4419Z" fill="url(#paint25_linear_114_3016)"/>
<path d="M311.066 20.4419H234.311V118.119H311.066V20.4419Z" fill="#81D1FF"/>
<path d="M244.255 24.4297L237.424 108.971L301.112 114.118L307.944 29.5763L244.255 24.4297Z" fill="white"/>
<path d="M306.369 29.4482L299.538 113.99L301.108 114.117L307.939 29.5751L306.369 29.4482Z" fill="url(#paint26_linear_114_3016)"/>
<path d="M315.119 154.606H274.085V234.418H315.119V154.606Z" fill="#81D1FF"/>
<path d="M315.119 154.606H311.732V234.418H315.119V154.606Z" fill="url(#paint27_linear_114_3016)"/>
<path d="M182.766 190.649H277.25V156.876H182.766V190.649Z" fill="url(#paint28_linear_114_3016)"/>
<path d="M187.313 160.584L315.112 160.584V154.599L187.313 154.599V160.584Z" fill="url(#paint29_linear_114_3016)"/>
<path d="M187.32 154.606H146.286V234.418H187.32V154.606Z" fill="#81D1FF"/>
<path d="M147.768 180.031H147.954C150.573 180.031 153.084 181.071 154.936 182.923C156.788 184.775 157.828 187.286 157.828 189.905V234.418H137.894V189.905C137.894 187.286 138.935 184.775 140.786 182.923C142.638 181.071 145.149 180.031 147.768 180.031Z" fill="url(#paint30_linear_114_3016)"/>
<path d="M187.32 154.606H183.933V234.418H187.32V154.606Z" fill="url(#paint31_linear_114_3016)"/>
<path d="M233.502 154.606H224.652L226.8 137.372H235.657L233.502 154.606Z" fill="url(#paint32_linear_114_3016)"/>
<path d="M235.464 154.606H226.607L228.762 137.372H237.612L235.464 154.606Z" fill="#81D1FF"/>
<path d="M236.538 145.985H227.688L228.762 137.372H237.612L236.538 145.985Z" fill="url(#paint33_linear_114_3016)"/>
<path d="M204.01 143.916H266.631C266.754 143.916 266.875 143.89 266.987 143.839C267.099 143.789 267.199 143.715 267.28 143.623C267.362 143.531 267.422 143.423 267.459 143.305C267.495 143.188 267.506 143.064 267.49 142.942L262.665 104.336C262.638 104.126 262.537 103.933 262.378 103.794C262.22 103.654 262.016 103.577 261.805 103.577H199.184C199.064 103.579 198.945 103.606 198.835 103.657C198.726 103.707 198.628 103.78 198.548 103.87C198.468 103.96 198.408 104.066 198.37 104.18C198.333 104.295 198.32 104.416 198.332 104.536L203.144 143.2C203.181 143.402 203.288 143.585 203.446 143.716C203.605 143.847 203.804 143.918 204.01 143.916Z" fill="url(#paint34_linear_114_3016)"/>
<path d="M204.941 143.916H267.562C267.685 143.916 267.806 143.89 267.918 143.839C268.03 143.789 268.13 143.715 268.211 143.623C268.292 143.531 268.353 143.423 268.389 143.305C268.426 143.188 268.436 143.064 268.421 142.942L263.595 104.336C263.569 104.126 263.467 103.933 263.309 103.794C263.151 103.654 262.947 103.577 262.736 103.577H200.115C199.992 103.577 199.87 103.603 199.758 103.654C199.646 103.704 199.545 103.778 199.464 103.87C199.382 103.961 199.32 104.07 199.283 104.187C199.246 104.304 199.234 104.428 199.248 104.55L204.06 143.2C204.097 143.405 204.207 143.589 204.368 143.721C204.53 143.852 204.733 143.921 204.941 143.916Z" fill="#81D1FF"/>
<path d="M266.402 141.768L261.884 105.631C261.876 105.573 261.846 105.52 261.801 105.482C261.757 105.444 261.7 105.423 261.641 105.424H201.497C201.462 105.424 201.428 105.431 201.396 105.445C201.365 105.459 201.337 105.479 201.314 105.505C201.291 105.531 201.273 105.561 201.263 105.594C201.253 105.627 201.249 105.662 201.253 105.696L205.771 141.832C205.78 141.891 205.809 141.944 205.854 141.982C205.899 142.02 205.956 142.041 206.015 142.04H266.159C266.193 142.04 266.227 142.033 266.259 142.019C266.291 142.005 266.319 141.985 266.342 141.959C266.365 141.933 266.382 141.903 266.393 141.87C266.403 141.837 266.406 141.802 266.402 141.768Z" fill="url(#paint35_linear_114_3016)"/>
<path d="M259.987 142.069L244.092 105.445H230.151L246.046 142.069H259.987Z" fill="url(#paint36_linear_114_3016)"/>
<path d="M243.361 142.069L227.466 105.445H222.447L238.342 142.069H243.361Z" fill="url(#paint37_linear_114_3016)"/>
<path d="M243.497 154.606H229.077V154.427C229.077 154.047 229.228 153.683 229.497 153.414C229.765 153.146 230.129 152.995 230.509 152.995H242.065C242.445 152.995 242.809 153.146 243.078 153.414C243.346 153.683 243.497 154.047 243.497 154.427V154.606Z" fill="#81D1FF"/>
<path d="M230.767 154.606H220.986V154.427C220.986 154.047 221.137 153.683 221.406 153.414C221.674 153.146 222.039 152.995 222.418 152.995H229.328C229.707 152.995 230.072 153.146 230.34 153.414C230.609 153.683 230.76 154.047 230.76 154.427V154.606H230.767Z" fill="url(#paint38_linear_114_3016)"/>
<path d="M259.45 154.606H214.872L213.669 151.026H253.65L259.45 154.606Z" fill="#81D1FF"/>
<path d="M219.776 154.606H212.409L211.413 151.026H218.781L219.776 154.606Z" fill="url(#paint39_linear_114_3016)"/>
<path d="M205.592 154.599H192.905C192.905 153.805 193.22 153.044 193.781 152.482C194.343 151.921 195.104 151.606 195.898 151.606H202.599C203.393 151.606 204.154 151.921 204.716 152.482C205.277 153.044 205.592 153.805 205.592 154.599Z" fill="url(#paint40_linear_114_3016)"/>
<path d="M63.8816 234.418H76.3185V176.616H63.8816L63.8816 234.418Z" fill="#81D1FF"/>
<path d="M119.099 234.418H68.8219L62.6071 166.112H112.885L119.099 234.418Z" fill="url(#paint41_linear_114_3016)"/>
<path d="M121.706 234.418H71.4282L65.2062 166.112H115.491L121.706 234.418Z" fill="url(#paint42_linear_114_3016)"/>
<path d="M78.3018 226.857L73.4545 173.673H108.617L113.457 226.857H78.3018Z" fill="white"/>
<path d="M179 266.753C255.671 266.753 317.825 263.124 317.825 258.648C317.825 254.171 255.671 250.543 179 250.543C102.329 250.543 40.1748 254.171 40.1748 258.648C40.1748 263.124 102.329 266.753 179 266.753Z" fill="url(#paint43_linear_114_3016)"/>
<path d="M70.9363 87.3487L70.2207 87.3721L70.5322 96.9113L71.2478 96.8879L70.9363 87.3487Z" fill="#1B98E0"/>
<path d="M70.668 79.1163L69.9524 79.1396L70.1005 83.6767L70.8161 83.6533L70.668 79.1163Z" fill="#1B98E0"/>
<path d="M80.3353 148.119H216.991C217.722 148.122 218.445 147.978 219.118 147.694C219.791 147.411 220.4 146.994 220.908 146.469C221.416 145.943 221.812 145.321 222.073 144.639C222.334 143.956 222.454 143.228 222.425 142.498L219.382 49.2537C219.322 47.7515 218.686 46.3302 217.606 45.2839C216.527 44.2377 215.086 43.6466 213.583 43.6331H76.9271C76.1964 43.6297 75.4724 43.7741 74.7989 44.0577C74.1254 44.3412 73.5161 44.758 73.0078 45.2831C72.4995 45.8081 72.1026 46.4305 71.841 47.1129C71.5794 47.7952 71.4585 48.5234 71.4855 49.2537L74.5285 142.484C74.5873 143.989 75.2232 145.414 76.3043 146.463C77.3855 147.513 78.8289 148.105 80.3353 148.119Z" fill="#1B98E0"/>
<path d="M80.772 148.119H217.428C218.159 148.122 218.882 147.978 219.556 147.694C220.229 147.411 220.839 146.994 221.347 146.469C221.855 145.944 222.252 145.322 222.514 144.639C222.775 143.957 222.896 143.229 222.869 142.498L219.812 49.2537C219.75 47.7509 219.112 46.3295 218.031 45.2834C216.951 44.2373 215.509 43.6465 214.005 43.6331H77.3638C76.6334 43.6297 75.9098 43.7741 75.2366 44.0577C74.5635 44.3414 73.9547 44.7583 73.4469 45.2835C72.9392 45.8086 72.543 46.4311 72.2822 47.1134C72.0214 47.7957 71.9014 48.5238 71.9294 49.2537L74.9724 142.484C75.0294 143.989 75.6637 145.414 76.7437 146.463C77.8237 147.512 79.2663 148.105 80.772 148.119Z" fill="#1B98E0"/>
<path opacity="0.5" d="M80.772 148.119H217.428C218.159 148.122 218.882 147.978 219.556 147.694C220.229 147.411 220.839 146.994 221.347 146.469C221.855 145.944 222.252 145.322 222.514 144.639C222.775 143.957 222.896 143.229 222.869 142.498L219.812 49.2537C219.75 47.7509 219.112 46.3295 218.031 45.2834C216.951 44.2373 215.509 43.6465 214.005 43.6331H77.3638C76.6334 43.6297 75.9098 43.7741 75.2366 44.0577C74.5635 44.3414 73.9547 44.7583 73.4469 45.2835C72.9392 45.8086 72.543 46.4311 72.2822 47.1134C72.0214 47.7957 71.9014 48.5238 71.9294 49.2537L74.9724 142.484C75.0294 143.989 75.6637 145.414 76.7437 146.463C77.8237 147.512 79.2663 148.105 80.772 148.119Z" fill="white"/>
<path opacity="0.5" d="M213.676 46.4399H77.0131H76.5548C73.0536 46.7263 73.5548 52.0391 77.0847 52.0391H213.977C217.499 52.0391 217.657 46.7263 214.134 46.4399C213.984 46.4471 213.826 46.4399 213.676 46.4399Z" fill="#1B98E0"/>
<path d="M80.4641 49.2537C80.4699 49.4205 80.4419 49.5868 80.3818 49.7426C80.3217 49.8983 80.2307 50.0403 80.1144 50.16C79.998 50.2798 79.8586 50.3747 79.7047 50.4392C79.5507 50.5037 79.3852 50.5364 79.2183 50.5353C78.8741 50.5338 78.5438 50.3998 78.2958 50.1611C78.0478 49.9225 77.9012 49.5975 77.8865 49.2537C77.8797 49.0862 77.907 48.9192 77.9666 48.7626C78.0263 48.606 78.1171 48.4631 78.2336 48.3426C78.3501 48.2221 78.4898 48.1265 78.6442 48.0616C78.7987 47.9967 78.9648 47.9638 79.1324 47.9649C79.4782 47.9647 79.8106 48.0991 80.0592 48.3396C80.3077 48.5802 80.453 48.908 80.4641 49.2537Z" fill="#81D1FF"/>
<path d="M84.8461 49.2537C84.8529 49.4208 84.8256 49.5875 84.7659 49.7437C84.7061 49.9 84.6152 50.0424 84.4986 50.1623C84.3821 50.2822 84.2423 50.3771 84.0878 50.4413C83.9334 50.5054 83.7675 50.5374 83.6002 50.5353C83.2566 50.5321 82.9272 50.3975 82.6796 50.1592C82.432 49.9209 82.2849 49.5969 82.2685 49.2537C82.2617 49.0862 82.2889 48.9192 82.3486 48.7626C82.4083 48.606 82.4991 48.4631 82.6155 48.3426C82.732 48.2221 82.8717 48.1265 83.0262 48.0616C83.1807 47.9967 83.3467 47.9638 83.5143 47.9649C83.8602 47.9647 84.1926 48.0991 84.4411 48.3396C84.6897 48.5802 84.8349 48.908 84.8461 49.2537Z" fill="#81D1FF"/>
<path d="M88.88 50.1755C89.3707 49.6764 89.3501 48.8605 88.8341 48.3532C88.318 47.8459 87.5019 47.8393 87.0112 48.3384C86.5206 48.8376 86.5411 49.6534 87.0572 50.1607C87.5733 50.668 88.3894 50.6747 88.88 50.1755Z" fill="#81D1FF"/>
<path d="M83.4213 138.811H214.177C214.442 138.813 214.704 138.761 214.948 138.659C215.192 138.557 215.413 138.406 215.597 138.216C215.781 138.026 215.925 137.8 216.019 137.553C216.114 137.306 216.157 137.042 216.146 136.777L213.64 60.0867C213.611 59.5445 213.378 59.0333 212.988 58.656C212.597 58.2787 212.078 58.0634 211.535 58.0533H80.7864C80.5217 58.0511 80.2594 58.1028 80.0153 58.205C79.7712 58.3073 79.5503 58.458 79.3662 58.6482C79.1821 58.8383 79.0385 59.0638 78.9442 59.3111C78.8499 59.5584 78.8067 59.8223 78.8174 60.0867L81.3162 136.756C81.3398 137.302 81.5707 137.819 81.9618 138.2C82.3529 138.582 82.8748 138.801 83.4213 138.811Z" fill="white"/>
<g opacity="0.3">
<path opacity="0.3" d="M179.38 129.324H176.988V128.644H178.678L178.621 126.954L179.301 126.932L179.38 129.324Z" fill="#1B98E0"/>
<path opacity="0.3" d="M173.186 129.324H169.384V128.608H173.186V129.324ZM165.582 129.324H161.816V128.608H165.618L165.582 129.324ZM157.978 129.324H154.176V128.608H157.978V129.324ZM150.374 129.324H146.572V128.608H150.36L150.374 129.324ZM142.778 129.324H138.968V128.608H142.778V129.324ZM135.174 129.324H131.372V128.608H135.174V129.324ZM127.57 129.324H123.768V128.608H127.57V129.324Z" fill="#1B98E0"/>
<path opacity="0.3" d="M119.966 129.324H117.596L117.524 126.954L118.197 126.932L118.255 128.644H119.966V129.324Z" fill="#1B98E0"/>
<path opacity="0.3" d="M117.424 123.152L117.302 119.35H118.018L118.14 123.152H117.424ZM117.181 115.548L117.052 111.746H117.732L117.854 115.548H117.181ZM116.93 107.944L116.808 104.142H117.481L117.61 107.944H116.93ZM116.679 100.347L116.558 96.5454H117.238L117.36 100.347H116.679ZM116.436 92.7434L116.307 88.9415H116.987L117.109 92.7434H116.436ZM116.185 85.1324L116.064 81.3376H116.737L116.866 85.1395L116.185 85.1324ZM115.935 77.5356L115.813 73.7336H116.493L116.615 77.5356H115.935Z" fill="#1B98E0"/>
<path opacity="0.3" d="M115.663 69.9246L115.584 67.5403H117.968V68.2205H116.286L116.336 69.9031L115.663 69.9246Z" fill="#1B98E0"/>
<path opacity="0.3" d="M171.196 68.2205H167.394V67.5403H171.196V68.2205ZM163.592 68.2205H159.79V67.5403H163.592V68.2205ZM155.988 68.2205H152.186V67.5403H155.988V68.2205ZM148.384 68.2205H144.582V67.5403H148.384V68.2205ZM140.78 68.2205H136.978V67.5403H140.78V68.2205ZM133.176 68.2205H129.374V67.5403H133.176V68.2205ZM125.572 68.2205H121.77V67.5403H125.572V68.2205Z" fill="#1B98E0"/>
<path opacity="0.3" d="M176.759 69.9246L176.702 68.2205H174.998V67.5403H177.36L177.439 69.9031L176.759 69.9246Z" fill="#1B98E0"/>
<path opacity="0.3" d="M178.499 123.152L178.377 119.35H179.05L179.179 123.152H178.499ZM178.284 115.548L178.162 111.746H178.843L178.964 115.548H178.284ZM178.041 107.951L177.912 104.149H178.592L178.714 107.951H178.041ZM177.79 100.347L177.668 96.5454H178.341L178.47 100.347H177.79ZM177.539 92.7434L177.418 88.9415H178.098L178.22 92.7434H177.539ZM177.296 85.1395L177.167 81.3376H177.883L178.005 85.1395H177.296ZM177.045 77.5356L176.924 73.7336H177.597L177.726 77.5356H177.045Z" fill="#1B98E0"/>
</g>
<path d="M160.971 108.116H135.976C133.657 108.098 131.435 107.188 129.77 105.574C128.105 103.961 127.125 101.769 127.033 99.4525C126.951 97.3712 127.647 95.334 128.985 93.7378C130.324 92.1416 132.208 91.1006 134.272 90.8176C134.812 88.7489 136.025 86.9185 137.719 85.6135C139.412 84.3085 141.492 83.6029 143.63 83.6074C145.39 83.6102 147.119 84.0661 148.652 84.9315C150.184 85.7968 151.468 87.0422 152.379 88.5478C153.165 88.3041 153.984 88.181 154.806 88.1827C156.939 88.2026 158.99 89.0023 160.573 90.4309C162.155 91.8595 163.161 93.818 163.398 95.937C164.49 96.4585 165.42 97.2668 166.089 98.2757C166.757 99.2845 167.139 100.456 167.193 101.665C167.226 102.501 167.089 103.336 166.791 104.118C166.493 104.9 166.039 105.613 165.458 106.215C164.877 106.818 164.179 107.296 163.408 107.621C162.637 107.947 161.808 108.113 160.971 108.109V108.116ZM143.63 85.2757C141.772 85.2645 139.968 85.9021 138.531 87.0785C137.093 88.255 136.111 89.8965 135.754 91.7197L135.632 92.357L134.988 92.3999C133.233 92.5071 131.591 93.2971 130.412 94.6006C129.233 95.9041 128.611 97.6175 128.68 99.3738C128.753 101.258 129.55 103.042 130.905 104.354C132.26 105.666 134.068 106.406 135.954 106.419H160.95C161.562 106.425 162.169 106.305 162.734 106.069C163.299 105.833 163.81 105.484 164.236 105.044C164.661 104.604 164.993 104.082 165.211 103.51C165.429 102.937 165.529 102.327 165.503 101.715C165.458 100.742 165.13 99.8026 164.559 99.0129C163.988 98.2232 163.199 97.6171 162.289 97.2687L161.773 97.0682V96.5169C161.682 94.7246 160.91 93.0346 159.616 91.7919C158.321 90.5491 156.601 89.8472 154.806 89.8295C153.952 89.8276 153.106 89.993 152.315 90.3164L151.599 90.6028L151.248 89.9297C150.524 88.5331 149.431 87.362 148.088 86.5438C146.745 85.7257 145.203 85.292 143.63 85.29V85.2757Z" fill="#1B98E0"/>
<path d="M153.768 100.011L146.873 93.3306L140.415 100.011H144.195L144.424 106.913H150.217L149.988 100.011H153.768Z" fill="#1B98E0"/>
<path d="M262.772 72.8889C263.431 73.8412 263.96 74.6431 264.505 75.531C265.049 76.4188 265.564 77.278 266.066 78.173C267.068 79.9487 267.999 81.753 268.851 83.6432C269.728 85.5284 270.502 87.4597 271.171 89.4285C271.884 91.4491 272.449 93.519 272.86 95.6219L273.132 97.2544L273.168 97.462L273.211 97.7198C273.211 97.9704 273.268 98.1852 273.276 98.4358C273.29 98.7172 273.29 98.9992 273.276 99.2807L273.24 99.7318L273.161 100.233C273.101 100.589 273.01 100.938 272.889 101.278C272.758 101.656 272.59 102.021 272.388 102.367C271.986 103.068 271.448 103.681 270.805 104.171C269.86 104.89 268.75 105.362 267.576 105.546C266.805 105.672 266.022 105.71 265.242 105.66C264.605 105.631 263.971 105.556 263.345 105.438C262.238 105.225 261.145 104.946 260.073 104.601C258.112 103.944 256.198 103.154 254.345 102.238C252.516 101.356 250.742 100.366 249.032 99.2735L251.094 94.7054C254.651 95.6671 258.255 96.4461 261.891 97.0396C262.695 97.1611 263.506 97.2305 264.318 97.2472C264.838 97.2919 265.361 97.2335 265.858 97.0754C265.901 97.0396 265.736 96.9895 265.264 97.3045C264.871 97.5913 264.573 97.9873 264.404 98.443C264.36 98.5545 264.324 98.6694 264.297 98.7866L264.254 99.0157C264.256 99.0563 264.256 99.0969 264.254 99.1375C264.254 99.1733 264.254 99.1375 264.254 99.1375V99.0444V98.894L263.932 97.6912C262.894 94.3304 261.547 91.073 259.908 87.9607C259.099 86.3426 258.211 84.7459 257.309 83.1635C256.858 82.3687 256.392 81.5883 255.927 80.8079C255.462 80.0274 254.96 79.2112 254.545 78.5596L262.772 72.8889Z" fill="#FFB573"/>
<path d="M251.882 95.0919L248.774 91.9988L245.688 98.8795C245.688 98.8795 248.61 100.505 251.209 99.3235L251.882 95.0919Z" fill="#FFB573"/>
<path d="M244.185 89.5286L241.893 95.3425L245.681 98.8795L248.774 91.9988L244.185 89.5286Z" fill="#FFB573"/>
<path d="M254.668 75.1915L195.055 64.6909L184.554 124.304L244.167 134.804L254.668 75.1915Z" fill="#1B98E0"/>
<path opacity="0.6" d="M254.668 75.1915L195.055 64.6909L184.554 124.304L244.167 134.804L254.668 75.1915Z" fill="white"/>
<path d="M251.252 77.578L197.443 68.0996L187.964 121.909L241.774 131.388L251.252 77.578Z" fill="white"/>
<path opacity="0.3" d="M222.769 95.5917C227.333 92.3951 228.441 86.1044 225.244 81.5408C222.048 76.9773 215.757 75.8692 211.193 79.0658C206.63 82.2624 205.522 88.5532 208.718 93.1167C211.915 97.6802 218.206 98.7883 222.769 95.5917Z" fill="#1B98E0"/>
<path opacity="0.2" d="M229.592 102.016L211.556 114.646L203.265 102.803L189.654 112.333L187.964 121.92L241.772 131.393L243.461 121.813L229.592 102.016Z" fill="#1B98E0"/>
<path d="M232.55 51.2011C232.55 51.6808 232.32 52.0746 232.005 52.0818C231.69 52.0889 231.433 51.7023 231.425 51.2297C231.418 50.7572 231.662 50.3562 231.97 50.3562C232.277 50.3562 232.542 50.7285 232.55 51.2011Z" fill="#263238"/>
<path d="M232.363 52.0676C231.823 53.5351 231.086 54.9225 230.172 56.1918C230.503 56.4169 230.878 56.5674 231.273 56.633C231.667 56.6985 232.071 56.6774 232.457 56.5713L232.363 52.0676Z" fill="#FF5652"/>
<path d="M234.232 48.5233C234.158 48.538 234.08 48.5225 234.017 48.4803C233.737 48.2678 233.409 48.1273 233.062 48.0711C232.715 48.015 232.36 48.0448 232.027 48.1581C231.958 48.1866 231.88 48.1864 231.811 48.1575C231.741 48.1286 231.687 48.0735 231.658 48.0042C231.63 47.9349 231.63 47.8571 231.659 47.7879C231.688 47.7188 231.743 47.6639 231.812 47.6354C232.234 47.4951 232.683 47.457 233.122 47.5242C233.562 47.5914 233.979 47.7621 234.34 48.0221C234.4 48.064 234.442 48.1282 234.455 48.2006C234.468 48.2731 234.453 48.3478 234.411 48.4087C234.368 48.4684 234.304 48.5094 234.232 48.5233Z" fill="#263238"/>
<path d="M246.354 53.0198C246.053 57.416 246.397 66.2873 249.755 68.7718C249.755 68.7718 248.932 72.3518 240.963 73.3613C232.206 74.4568 236.23 69.5379 236.23 69.5379C240.869 67.7908 240.304 64.261 239.051 61.0318L246.354 53.0198Z" fill="#FFB573"/>
<path d="M268.063 243.132H268.013C267.907 243.077 267.821 242.99 267.767 242.883C267.713 242.777 267.694 242.656 267.712 242.538C267.714 242.444 267.737 242.351 267.779 242.267C267.822 242.183 267.882 242.109 267.956 242.051C268.629 241.478 270.591 241.729 270.677 241.736C270.703 241.741 270.727 241.753 270.747 241.77C270.768 241.788 270.783 241.811 270.791 241.836C270.799 241.862 270.799 241.889 270.791 241.914C270.783 241.94 270.769 241.962 270.748 241.979C270.29 242.352 268.772 243.376 268.063 243.132ZM270.304 241.958C269.638 241.908 268.536 241.901 268.156 242.237C268.113 242.272 268.078 242.315 268.054 242.365C268.029 242.414 268.015 242.468 268.013 242.524C268.013 242.788 268.113 242.839 268.149 242.86C268.5 243.039 269.581 242.495 270.304 241.958Z" fill="#1B98E0"/>
<path d="M269.667 241.779C268.951 241.543 268.235 241.135 268.128 240.719C268.099 240.618 268.107 240.51 268.148 240.414C268.19 240.317 268.264 240.238 268.357 240.189C268.445 240.129 268.545 240.089 268.649 240.07C268.754 240.052 268.862 240.056 268.965 240.082C269.832 240.261 270.734 241.722 270.777 241.779C270.791 241.8 270.799 241.825 270.799 241.851C270.799 241.876 270.791 241.901 270.777 241.922C270.766 241.945 270.748 241.963 270.727 241.976C270.705 241.989 270.68 241.995 270.655 241.994C270.317 241.968 269.985 241.896 269.667 241.779ZM269.008 240.383H268.908C268.841 240.365 268.771 240.362 268.703 240.375C268.635 240.387 268.571 240.414 268.514 240.454C268.364 240.555 268.385 240.633 268.393 240.669C268.507 241.049 269.624 241.578 270.376 241.714C270.047 241.157 269.575 240.697 269.008 240.383Z" fill="#1B98E0"/>
<path d="M224.588 252.92C223.829 252.92 223.098 252.812 222.848 252.476C222.785 252.386 222.751 252.278 222.751 252.168C222.751 252.058 222.785 251.95 222.848 251.86C222.897 251.78 222.961 251.71 223.038 251.655C223.114 251.6 223.2 251.56 223.292 251.538C224.273 251.266 226.342 252.44 226.428 252.49C226.453 252.506 226.472 252.528 226.484 252.555C226.495 252.582 226.498 252.612 226.492 252.641C226.488 252.668 226.476 252.694 226.457 252.715C226.437 252.735 226.412 252.749 226.385 252.755C225.791 252.86 225.19 252.915 224.588 252.92ZM223.65 251.774C223.559 251.763 223.468 251.763 223.378 251.774C223.321 251.787 223.267 251.812 223.221 251.846C223.174 251.881 223.135 251.924 223.106 251.975C223.005 252.147 223.041 252.232 223.106 252.283C223.378 252.662 224.874 252.669 225.97 252.519C225.253 252.12 224.465 251.867 223.65 251.774Z" fill="#1B98E0"/>
<path d="M226.371 252.748H226.313C225.597 252.433 224.165 251.151 224.294 250.486C224.294 250.328 224.43 250.135 224.817 250.092C224.955 250.078 225.095 250.092 225.228 250.134C225.361 250.176 225.484 250.244 225.59 250.335C226.342 250.951 226.507 252.54 226.507 252.612C226.509 252.636 226.505 252.659 226.495 252.681C226.485 252.702 226.469 252.721 226.449 252.734C226.426 252.749 226.398 252.754 226.371 252.748ZM224.939 250.349H224.824C224.573 250.349 224.559 250.478 224.552 250.507C224.487 250.908 225.447 251.939 226.17 252.347C226.106 251.676 225.836 251.04 225.397 250.528C225.266 250.42 225.101 250.36 224.931 250.357L224.939 250.349Z" fill="#1B98E0"/>
<path d="M232.865 252.612H226.958L226.37 238.936H232.277L232.865 252.612Z" fill="#FFB573"/>
<path d="M277.035 240.139L271.557 241.643L264.548 228.819L270.025 227.316L277.035 240.139Z" fill="#FFB573"/>
<path d="M270.734 241.049L276.648 238.02C276.753 237.969 276.872 237.955 276.987 237.979C277.101 238.004 277.203 238.066 277.278 238.156L280.708 242.294C280.79 242.396 280.848 242.516 280.878 242.643C280.908 242.77 280.909 242.903 280.881 243.031C280.853 243.159 280.796 243.279 280.715 243.382C280.635 243.485 280.532 243.568 280.414 243.626C278.338 244.643 277.271 245.058 274.686 246.369C273.09 247.185 268.335 250.722 265.937 251.381C263.538 252.039 262.607 249.712 263.531 249.233C266.562 247.674 268.893 245.031 270.061 241.829C270.181 241.494 270.42 241.216 270.734 241.049Z" fill="#263238"/>
<path d="M226.972 251.932H233.416C233.532 251.932 233.646 251.972 233.737 252.045C233.828 252.118 233.891 252.219 233.917 252.333L235.084 257.588C235.114 257.715 235.114 257.847 235.085 257.974C235.055 258.101 234.997 258.219 234.915 258.32C234.833 258.421 234.728 258.502 234.61 258.556C234.492 258.611 234.362 258.637 234.232 258.634C231.905 258.598 228.54 258.462 225.64 258.462C222.218 258.462 219.268 258.648 215.258 258.648C212.831 258.648 212.158 256.192 213.175 255.97C217.793 254.961 221.566 254.853 225.561 252.39C225.98 252.11 226.469 251.952 226.972 251.932Z" fill="#263238"/>
<path d="M252.376 79.7122C252.991 81.2946 253.672 82.8412 254.359 84.2946C255.533 86.8078 256.707 88.9988 257.559 90.5095C258.318 91.8771 258.82 92.6575 258.82 92.6575L271.708 86.2565C271.708 86.2565 266.509 71.3136 261.082 69.6453C255.533 68.02 249.59 72.588 252.376 79.7122Z" fill="#263238"/>
<path opacity="0.2" d="M258.096 81.1873C256.972 82.0107 256.17 84.2374 255.598 86.8508C256.314 88.2828 257.03 89.5358 257.559 90.5096C258.318 91.8771 258.82 92.6576 258.82 92.6576L260.295 91.9416C260.266 88.2482 259.519 84.5957 258.096 81.1873Z" fill="black"/>
<path d="M225.096 89.2424C225.096 91.2472 225.146 93.4596 225.253 95.9012C225.547 102.524 226.27 110.78 227.652 121.04H259.242C259.464 116.193 256.414 92.5288 261.096 69.6741C257.601 69.0045 254.066 68.5597 250.514 68.3423C246.04 68.0845 241.555 68.0845 237.082 68.3423C234.016 68.6578 230.978 69.2059 227.996 69.982C227.996 69.982 225.089 73.2684 225.096 89.2424Z" fill="#263238"/>
<path d="M233.223 79.8626C232.753 80.8454 232.23 81.8016 231.655 82.7266C231.132 83.5714 230.602 84.3877 230.058 85.1753C228.97 86.7505 227.831 88.2684 226.635 89.7505C224.229 92.759 221.562 95.5502 218.666 98.0919C217.122 99.4454 215.467 100.667 213.719 101.744L213.003 102.159L212.817 102.259L212.559 102.388L212.036 102.639C211.364 102.956 210.658 103.196 209.931 103.355C208.645 103.613 207.328 103.68 206.022 103.555C203.842 103.296 201.725 102.658 199.764 101.672C198.857 101.228 197.979 100.725 197.136 100.168C196.283 99.615 195.467 99.005 194.695 98.3425L197.229 94.0465C200.33 94.8628 203.824 95.5931 206.229 95.2494C206.727 95.2019 207.212 95.0662 207.661 94.8485C207.809 94.776 207.949 94.6872 208.077 94.5835L208.141 94.5191H208.184L208.284 94.4403L208.721 94.1396C209.947 93.2058 211.109 92.1917 212.201 91.1038C214.538 88.7381 216.713 86.2168 218.709 83.5571C219.733 82.2182 220.721 80.8435 221.674 79.4616C222.139 78.7456 222.604 78.0869 223.034 77.4067C223.464 76.7265 223.893 76.032 224.115 75.5952L233.223 79.8626Z" fill="#FFB573"/>
<path d="M198.489 94.6409L193.041 92.0562L192.547 99.3665C192.547 99.3665 196.785 100.083 199.026 98.4429L198.489 94.6409Z" fill="#FFB573"/>
<path d="M186.174 93.302L188.272 98.8725L192.547 99.3665L193.041 92.0562L186.174 93.302Z" fill="#FFB573"/>
<path d="M237.125 75.9891C236.939 81.6384 225.311 94.6409 225.311 94.6409L213.031 86.6361C213.031 86.6361 216.948 79.3329 221.96 74.0559C229.614 66.1083 237.347 69.2158 237.125 75.9891Z" fill="#263238"/>
<path opacity="0.2" d="M226.37 238.936L226.671 245.989H232.585L232.285 238.936H226.37Z" fill="black"/>
<path opacity="0.2" d="M270.025 227.316L264.548 228.826L268.163 235.435L273.641 233.924L270.025 227.316Z" fill="black"/>
<path d="M248.452 49.8623C248.216 55.7192 248.38 59.1703 245.488 62.2276C241.134 66.8315 233.86 64.304 232.342 58.4973C230.974 53.2633 231.59 44.5639 237.268 42.1152C238.517 41.5682 239.886 41.3501 241.243 41.4816C242.601 41.613 243.902 42.0898 245.023 42.8663C246.144 43.6429 247.048 44.6935 247.648 45.9181C248.248 47.1427 248.525 48.5005 248.452 49.8623Z" fill="#FFB573"/>
<path d="M236.76 52.6547C234.647 51.1511 232.578 48.0508 232.743 45.7453C230.788 45.6665 229.478 42.4445 230.552 40.096C231.225 41.6068 233.552 40.497 234.461 39.3013C233.974 38.1485 234.053 36.2368 237.397 34.8835C237.118 35.8573 237.261 37.4969 240.619 36.3155C244.693 34.8835 251.853 35.843 249.755 40.6903C252.619 41.213 256.349 47.1343 253.185 50.2489C250.02 53.3635 249.368 58.397 246.662 58.9125C243.955 59.428 236.917 59.607 236.76 52.6547Z" fill="#263238"/>
<path d="M247.85 40.497C248.989 40.0232 250.255 39.947 251.442 40.2809C252.63 40.6148 253.67 41.3392 254.395 42.3372C252.335 41.3537 250.121 40.7313 247.85 40.497Z" fill="#263238"/>
<path d="M238.299 52.4041C238.24 53.7052 237.755 54.9508 236.917 55.9483C235.8 57.2514 234.576 56.4925 234.325 54.9531C234.103 53.5712 234.418 51.2227 235.807 50.4852C237.196 49.7478 238.349 50.8361 238.299 52.4041Z" fill="#FFB573"/>
<path d="M238.858 121.04C238.858 121.04 236.072 165.74 241.356 182.222C249.719 208.327 264.641 234.998 264.641 234.998L275.309 231.791C275.309 231.791 263.574 203.638 259.715 181.671C256.249 161.916 259.242 137.2 259.242 121.061L238.858 121.04Z" fill="#1B98E0"/>
<path opacity="0.2" d="M238.428 131.028C241.407 130.162 243.734 130.491 244.335 133.14C245.91 140.064 241.185 158.329 238.829 166.685C237.855 154.656 238.077 140.336 238.428 131.028Z" fill="black"/>
<path d="M261.626 231.941C261.583 231.941 264.412 235.242 264.412 235.242L276.068 231.733L274.586 227.795L261.626 231.941Z" fill="#263238"/>
<path d="M227.688 121.04C227.688 121.04 218.788 158.752 218.158 176.766C217.442 196.972 224.509 244.621 224.509 244.621H234.533C234.533 244.621 235.764 196.599 236.208 178.198C236.695 158.15 248.466 121.04 248.466 121.04H227.688Z" fill="#1B98E0"/>
<path d="M222.547 240.64C222.504 240.64 223.113 244.793 223.113 244.793H235.285L235.614 241.084L222.547 240.64Z" fill="#263238"/>
<path d="M232.07 66.9603C233.43 66.4877 243.748 65.1774 251.237 65.5784C255.533 65.8075 257.925 66.2944 259.672 67.1178C261.419 67.9412 258.29 72.2157 256.844 72.7384C257.431 74.3709 254.173 76.4544 252.318 77.4425C251.602 78.9748 244.249 80.3924 239.953 77.0988C236.652 74.5642 228.211 68.2992 232.07 66.9603Z" fill="#1B98E0"/>
<defs>
<linearGradient id="paint0_linear_114_3016" x1="-1.43077e-06" y1="234.42" x2="2.18053e-05" y2="234.636" gradientUnits="userSpaceOnUse">
<stop stop-color="#E8F6FF"/>
<stop stop-color="#DAF0FD"/>
<stop stop-color="#E8F6FF"/>
<stop stop-color="#80D0FF"/>
<stop stop-color="#DAF0FD"/>
<stop offset="0.00340487" stop-color="#DAF0FD"/>
<stop offset="0.299008" stop-color="#E9F7FF"/>
</linearGradient>
<linearGradient id="paint1_linear_114_3016" x1="27.3584" y1="1.87024" x2="94.1376" y2="226.194" gradientUnits="userSpaceOnUse">
<stop stop-color="#E8F6FF"/>
<stop stop-color="#DAF0FD"/>
<stop stop-color="#E8F6FF"/>
<stop stop-color="#80D0FF"/>
<stop stop-color="#DAF0FD"/>
<stop offset="0.00340487" stop-color="#DAF0FD"/>
<stop offset="0.299008" stop-color="#E9F7FF"/>
</linearGradient>
<linearGradient id="paint2_linear_114_3016" x1="182.222" y1="1.87024" x2="249.001" y2="226.194" gradientUnits="userSpaceOnUse">
<stop stop-color="#E8F6FF"/>
<stop stop-color="#DAF0FD"/>
<stop stop-color="#E8F6FF"/>
<stop stop-color="#80D0FF"/>
<stop stop-color="#DAF0FD"/>
<stop offset="0.00340487" stop-color="#DAF0FD"/>
<stop offset="0.299008" stop-color="#E9F7FF"/>
</linearGradient>
<linearGradient id="paint3_linear_114_3016" x1="124.899" y1="241.236" x2="124.899" y2="241.452" gradientUnits="userSpaceOnUse">
<stop stop-color="#E8F6FF"/>
<stop stop-color="#DAF0FD"/>
<stop stop-color="#E8F6FF"/>
<stop stop-color="#80D0FF"/>
<stop stop-color="#DAF0FD"/>
<stop offset="0.00340487" stop-color="#DAF0FD"/>
<stop offset="0.299008" stop-color="#E9F7FF"/>
</linearGradient>
<linearGradient id="paint4_linear_114_3016" x1="37.5614" y1="239.296" x2="37.5616" y2="239.512" gradientUnits="userSpaceOnUse">
<stop stop-color="#E8F6FF"/>
<stop stop-color="#DAF0FD"/>
<stop stop-color="#E8F6FF"/>
<stop stop-color="#80D0FF"/>
<stop stop-color="#DAF0FD"/>
<stop offset="0.00340487" stop-color="#DAF0FD"/>
<stop offset="0.299008" stop-color="#E9F7FF"/>
</linearGradient>
<linearGradient id="paint5_linear_114_3016" x1="105.338" y1="247.888" x2="105.338" y2="248.104" gradientUnits="userSpaceOnUse">
<stop stop-color="#E8F6FF"/>
<stop stop-color="#DAF0FD"/>
<stop stop-color="#E8F6FF"/>
<stop stop-color="#80D0FF"/>
<stop stop-color="#DAF0FD"/>
<stop offset="0.00340487" stop-color="#DAF0FD"/>
<stop offset="0.299008" stop-color="#E9F7FF"/>
</linearGradient>
<linearGradient id="paint6_linear_114_3016" x1="184.893" y1="246.685" x2="184.893" y2="246.901" gradientUnits="userSpaceOnUse">
<stop stop-color="#E8F6FF"/>
<stop stop-color="#DAF0FD"/>
<stop stop-color="#E8F6FF"/>
<stop stop-color="#80D0FF"/>
<stop stop-color="#DAF0FD"/>
<stop offset="0.00340487" stop-color="#DAF0FD"/>
<stop offset="0.299008" stop-color="#E9F7FF"/>
</linearGradient>
<linearGradient id="paint7_linear_114_3016" x1="219.067" y1="246.685" x2="219.068" y2="246.901" gradientUnits="userSpaceOnUse">
<stop stop-color="#E8F6FF"/>
<stop stop-color="#DAF0FD"/>
<stop stop-color="#E8F6FF"/>
<stop stop-color="#80D0FF"/>
<stop stop-color="#DAF0FD"/>
<stop offset="0.00340487" stop-color="#DAF0FD"/>
<stop offset="0.299008" stop-color="#E9F7FF"/>
</linearGradient>
<linearGradient id="paint8_linear_114_3016" x1="283.071" y1="243.664" x2="283.071" y2="243.879" gradientUnits="userSpaceOnUse">
<stop stop-color="#E8F6FF"/>
<stop stop-color="#DAF0FD"/>
<stop stop-color="#E8F6FF"/>
<stop stop-color="#80D0FF"/>
<stop stop-color="#DAF0FD"/>
<stop offset="0.00340487" stop-color="#DAF0FD"/>
<stop offset="0.299008" stop-color="#E9F7FF"/>
</linearGradient>
<linearGradient id="paint9_linear_114_3016" x1="55.0747" y1="26.9906" x2="84.2824" y2="155.565" gradientUnits="userSpaceOnUse">
<stop stop-color="#E8F6FF"/>
<stop stop-color="#DAF0FD"/>
<stop stop-color="#E8F6FF"/>
<stop stop-color="#80D0FF"/>
<stop stop-color="#DAF0FD"/>
<stop offset="0.00340487" stop-color="#DAF0FD"/>
<stop offset="0.299008" stop-color="#E9F7FF"/>
</linearGradient>
<linearGradient id="paint10_linear_114_3016" x1="47.1415" y1="22.3445" x2="47.1506" y2="24.8918" gradientUnits="userSpaceOnUse">
<stop stop-color="#E8F6FF"/>
<stop stop-color="#DAF0FD"/>
<stop stop-color="#E8F6FF"/>
<stop stop-color="#80D0FF"/>
<stop stop-color="#DAF0FD"/>
<stop offset="0.00340487" stop-color="#DAF0FD"/>
<stop offset="0.299008" stop-color="#E9F7FF"/>
</linearGradient>
<linearGradient id="paint11_linear_114_3016" x1="57.1869" y1="26.9906" x2="85.8093" y2="155.842" gradientUnits="userSpaceOnUse">
<stop stop-color="#E8F6FF"/>
<stop stop-color="#DAF0FD"/>
<stop stop-color="#E8F6FF"/>
<stop stop-color="#80D0FF"/>
<stop stop-color="#DAF0FD"/>
<stop offset="0.00340487" stop-color="#DAF0FD"/>
<stop offset="0.299008" stop-color="#E9F7FF"/>
</linearGradient>
<linearGradient id="paint12_linear_114_3016" x1="55.0747" y1="138.105" x2="55.1176" y2="143.156" gradientUnits="userSpaceOnUse">
<stop stop-color="#E8F6FF"/>
<stop stop-color="#DAF0FD"/>
<stop stop-color="#E8F6FF"/>
<stop stop-color="#80D0FF"/>
<stop stop-color="#DAF0FD"/>
<stop offset="0.00340487" stop-color="#DAF0FD"/>
<stop offset="0.299008" stop-color="#E9F7FF"/>
</linearGradient>
<linearGradient id="paint13_linear_114_3016" x1="64.6906" y1="138.105" x2="64.7325" y2="143.156" gradientUnits="userSpaceOnUse">
<stop stop-color="#E8F6FF"/>
<stop stop-color="#DAF0FD"/>
<stop stop-color="#E8F6FF"/>
<stop stop-color="#80D0FF"/>
<stop stop-color="#DAF0FD"/>
<stop offset="0.00340487" stop-color="#DAF0FD"/>
<stop offset="0.299008" stop-color="#E9F7FF"/>
</linearGradient>
<linearGradient id="paint14_linear_114_3016" x1="159.51" y1="32.2629" x2="158.543" y2="32.2646" gradientUnits="userSpaceOnUse">
<stop stop-color="#E8F6FF"/>
<stop stop-color="#DAF0FD"/>
<stop stop-color="#E8F6FF"/>
<stop stop-color="#80D0FF"/>
<stop stop-color="#DAF0FD"/>
<stop offset="0.00340487" stop-color="#DAF0FD"/>
<stop offset="0.299008" stop-color="#E9F7FF"/>
</linearGradient>
<linearGradient id="paint15_linear_114_3016" x1="47.5496" y1="21.3772" x2="108.503" y2="78.7764" gradientUnits="userSpaceOnUse">
<stop stop-color="#E8F6FF"/>
<stop stop-color="#DAF0FD"/>
<stop stop-color="#E8F6FF"/>
<stop stop-color="#80D0FF"/>
<stop stop-color="#DAF0FD"/>
<stop offset="0.00340487" stop-color="#DAF0FD"/>
<stop offset="0.299008" stop-color="#E9F7FF"/>
</linearGradient>
<linearGradient id="paint16_linear_114_3016" x1="55.6904" y1="21.3772" x2="115.372" y2="69.5216" gradientUnits="userSpaceOnUse">
<stop stop-color="#E8F6FF"/>
<stop stop-color="#DAF0FD"/>
<stop stop-color="#E8F6FF"/>
<stop stop-color="#80D0FF"/>
<stop stop-color="#DAF0FD"/>
<stop offset="0.00340487" stop-color="#DAF0FD"/>
<stop offset="0.299008" stop-color="#E9F7FF"/>
</linearGradient>
<linearGradient id="paint17_linear_114_3016" x1="60.8887" y1="21.3772" x2="121.842" y2="78.7764" gradientUnits="userSpaceOnUse">
<stop stop-color="#E8F6FF"/>
<stop stop-color="#DAF0FD"/>
<stop stop-color="#E8F6FF"/>
<stop stop-color="#80D0FF"/>
<stop stop-color="#DAF0FD"/>
<stop offset="0.00340487" stop-color="#DAF0FD"/>
<stop offset="0.299008" stop-color="#E9F7FF"/>
</linearGradient>
<linearGradient id="paint18_linear_114_3016" x1="69.0295" y1="21.3772" x2="128.711" y2="69.5216" gradientUnits="userSpaceOnUse">
<stop stop-color="#E8F6FF"/>
<stop stop-color="#DAF0FD"/>
<stop stop-color="#E8F6FF"/>
<stop stop-color="#80D0FF"/>
<stop stop-color="#DAF0FD"/>
<stop offset="0.00340487" stop-color="#DAF0FD"/>
<stop offset="0.299008" stop-color="#E9F7FF"/>
</linearGradient>
<linearGradient id="paint19_linear_114_3016" x1="74.2277" y1="21.3772" x2="135.183" y2="78.7976" gradientUnits="userSpaceOnUse">
<stop stop-color="#E8F6FF"/>
<stop stop-color="#DAF0FD"/>
<stop stop-color="#E8F6FF"/>
<stop stop-color="#80D0FF"/>
<stop stop-color="#DAF0FD"/>
<stop offset="0.00340487" stop-color="#DAF0FD"/>
<stop offset="0.299008" stop-color="#E9F7FF"/>
</linearGradient>
<linearGradient id="paint20_linear_114_3016" x1="159.568" y1="21.3772" x2="210.213" y2="48.3253" gradientUnits="userSpaceOnUse">
<stop stop-color="#E8F6FF"/>
<stop stop-color="#DAF0FD"/>
<stop stop-color="#E8F6FF"/>
<stop stop-color="#80D0FF"/>
<stop stop-color="#DAF0FD"/>
<stop offset="0.00340487" stop-color="#DAF0FD"/>
<stop offset="0.299008" stop-color="#E9F7FF"/>
</linearGradient>
<linearGradient id="paint21_linear_114_3016" x1="156.625" y1="21.3772" x2="202.722" y2="42.3926" gradientUnits="userSpaceOnUse">
<stop stop-color="#E8F6FF"/>
<stop stop-color="#DAF0FD"/>
<stop stop-color="#E8F6FF"/>
<stop stop-color="#80D0FF"/>
<stop stop-color="#DAF0FD"/>
<stop offset="0.00340487" stop-color="#DAF0FD"/>
<stop offset="0.299008" stop-color="#E9F7FF"/>
</linearGradient>
<linearGradient id="paint22_linear_114_3016" x1="152.028" y1="21.3772" x2="202.673" y2="48.3253" gradientUnits="userSpaceOnUse">
<stop stop-color="#E8F6FF"/>
<stop stop-color="#DAF0FD"/>
<stop stop-color="#E8F6FF"/>
<stop stop-color="#80D0FF"/>
<stop stop-color="#DAF0FD"/>
<stop offset="0.00340487" stop-color="#DAF0FD"/>
<stop offset="0.299008" stop-color="#E9F7FF"/>
</linearGradient>
<linearGradient id="paint23_linear_114_3016" x1="149.085" y1="21.3772" x2="195.182" y2="42.3926" gradientUnits="userSpaceOnUse">
<stop stop-color="#E8F6FF"/>
<stop stop-color="#DAF0FD"/>
<stop stop-color="#E8F6FF"/>
<stop stop-color="#80D0FF"/>
<stop stop-color="#DAF0FD"/>
<stop offset="0.00340487" stop-color="#DAF0FD"/>
<stop offset="0.299008" stop-color="#E9F7FF"/>
</linearGradient>
<linearGradient id="paint24_linear_114_3016" x1="144.489" y1="21.3772" x2="195.134" y2="48.3253" gradientUnits="userSpaceOnUse">
<stop stop-color="#E8F6FF"/>
<stop stop-color="#DAF0FD"/>
<stop stop-color="#E8F6FF"/>
<stop stop-color="#80D0FF"/>
<stop stop-color="#DAF0FD"/>
<stop offset="0.00340487" stop-color="#DAF0FD"/>
<stop offset="0.299008" stop-color="#E9F7FF"/>
</linearGradient>
<linearGradient id="paint25_linear_114_3016" x1="232.02" y1="21.3441" x2="263.182" y2="130.227" gradientUnits="userSpaceOnUse">
<stop stop-color="#E8F6FF"/>
<stop stop-color="#DAF0FD"/>
<stop stop-color="#E8F6FF"/>
<stop stop-color="#80D0FF"/>
<stop stop-color="#DAF0FD"/>
<stop offset="0.00340487" stop-color="#DAF0FD"/>
<stop offset="0.299008" stop-color="#E9F7FF"/>
</linearGradient>
<linearGradient id="paint26_linear_114_3016" x1="299.552" y1="113.991" x2="301.446" y2="114.137" gradientUnits="userSpaceOnUse">
<stop stop-color="#E8F6FF"/>
<stop stop-color="#DAF0FD"/>
<stop stop-color="#E8F6FF"/>
<stop stop-color="#80D0FF"/>
<stop stop-color="#DAF0FD"/>
<stop offset="0.00340487" stop-color="#DAF0FD"/>
<stop offset="0.299008" stop-color="#E9F7FF"/>
</linearGradient>
<linearGradient id="paint27_linear_114_3016" x1="311.732" y1="155.343" x2="329.996" y2="158.943" gradientUnits="userSpaceOnUse">
<stop stop-color="#E8F6FF"/>
<stop stop-color="#DAF0FD"/>
<stop stop-color="#E8F6FF"/>
<stop stop-color="#80D0FF"/>
<stop stop-color="#DAF0FD"/>
<stop offset="0.00340487" stop-color="#DAF0FD"/>
<stop offset="0.299008" stop-color="#E9F7FF"/>
</linearGradient>
<linearGradient id="paint28_linear_114_3016" x1="277.25" y1="190.337" x2="274.134" y2="149.845" gradientUnits="userSpaceOnUse">
<stop stop-color="#E8F6FF"/>
<stop stop-color="#DAF0FD"/>
<stop stop-color="#E8F6FF"/>
<stop stop-color="#80D0FF"/>
<stop stop-color="#DAF0FD"/>
<stop offset="0.00340487" stop-color="#DAF0FD"/>
<stop offset="0.299008" stop-color="#E9F7FF"/>
</linearGradient>
<linearGradient id="paint29_linear_114_3016" x1="315.112" y1="160.529" x2="315.039" y2="153.311" gradientUnits="userSpaceOnUse">
<stop stop-color="#E8F6FF"/>
<stop stop-color="#DAF0FD"/>
<stop stop-color="#E8F6FF"/>
<stop stop-color="#80D0FF"/>
<stop stop-color="#DAF0FD"/>
<stop offset="0.00340487" stop-color="#DAF0FD"/>
<stop offset="0.299008" stop-color="#E9F7FF"/>
</linearGradient>
<linearGradient id="paint30_linear_114_3016" x1="137.894" y1="180.533" x2="166.539" y2="229.302" gradientUnits="userSpaceOnUse">
<stop stop-color="#E8F6FF"/>
<stop stop-color="#DAF0FD"/>
<stop stop-color="#E8F6FF"/>
<stop stop-color="#80D0FF"/>
<stop stop-color="#DAF0FD"/>
<stop offset="0.00340487" stop-color="#DAF0FD"/>
<stop offset="0.299008" stop-color="#E9F7FF"/>
</linearGradient>
<linearGradient id="paint31_linear_114_3016" x1="183.933" y1="155.343" x2="202.197" y2="158.943" gradientUnits="userSpaceOnUse">
<stop stop-color="#E8F6FF"/>
<stop stop-color="#DAF0FD"/>
<stop stop-color="#E8F6FF"/>
<stop stop-color="#80D0FF"/>
<stop stop-color="#DAF0FD"/>
<stop offset="0.00340487" stop-color="#DAF0FD"/>
<stop offset="0.299008" stop-color="#E9F7FF"/>
</linearGradient>
<linearGradient id="paint32_linear_114_3016" x1="224.652" y1="137.531" x2="230.944" y2="156.195" gradientUnits="userSpaceOnUse">
<stop stop-color="#E8F6FF"/>
<stop stop-color="#DAF0FD"/>
<stop stop-color="#E8F6FF"/>
<stop stop-color="#80D0FF"/>
<stop stop-color="#DAF0FD"/>
<stop offset="0.00340487" stop-color="#DAF0FD"/>
<stop offset="0.299008" stop-color="#E9F7FF"/>
</linearGradient>
<linearGradient id="paint33_linear_114_3016" x1="227.688" y1="137.451" x2="229.563" y2="147.489" gradientUnits="userSpaceOnUse">
<stop stop-color="#E8F6FF"/>
<stop stop-color="#DAF0FD"/>
<stop stop-color="#E8F6FF"/>
<stop stop-color="#80D0FF"/>
<stop stop-color="#DAF0FD"/>
<stop offset="0.00340487" stop-color="#DAF0FD"/>
<stop offset="0.299008" stop-color="#E9F7FF"/>
</linearGradient>
<linearGradient id="paint34_linear_114_3016" x1="198.328" y1="103.949" x2="204.341" y2="151.845" gradientUnits="userSpaceOnUse">
<stop stop-color="#E8F6FF"/>
<stop stop-color="#DAF0FD"/>
<stop stop-color="#E8F6FF"/>
<stop stop-color="#80D0FF"/>
<stop stop-color="#DAF0FD"/>
<stop offset="0.00340487" stop-color="#DAF0FD"/>
<stop offset="0.299008" stop-color="#E9F7FF"/>
</linearGradient>
<linearGradient id="paint35_linear_114_3016" x1="201.252" y1="105.762" x2="206.517" y2="149.285" gradientUnits="userSpaceOnUse">
<stop stop-color="#E8F6FF"/>
<stop stop-color="#DAF0FD"/>
<stop stop-color="#E8F6FF"/>
<stop stop-color="#80D0FF"/>
<stop stop-color="#DAF0FD"/>
<stop offset="0.00340487" stop-color="#DAF0FD"/>
<stop offset="0.299008" stop-color="#E9F7FF"/>
</linearGradient>
<linearGradient id="paint36_linear_114_3016" x1="230.151" y1="105.784" x2="241.061" y2="147.07" gradientUnits="userSpaceOnUse">
<stop stop-color="#E8F6FF"/>
<stop stop-color="#DAF0FD"/>
<stop stop-color="#E8F6FF"/>
<stop stop-color="#80D0FF"/>
<stop stop-color="#DAF0FD"/>
<stop offset="0.00340487" stop-color="#DAF0FD"/>
<stop offset="0.299008" stop-color="#E9F7FF"/>
</linearGradient>
<linearGradient id="paint37_linear_114_3016" x1="222.447" y1="105.784" x2="237.025" y2="144.457" gradientUnits="userSpaceOnUse">
<stop stop-color="#E8F6FF"/>
<stop stop-color="#DAF0FD"/>
<stop stop-color="#E8F6FF"/>
<stop stop-color="#80D0FF"/>
<stop stop-color="#DAF0FD"/>
<stop offset="0.00340487" stop-color="#DAF0FD"/>
<stop offset="0.299008" stop-color="#E9F7FF"/>
</linearGradient>
<linearGradient id="paint38_linear_114_3016" x1="230.767" y1="154.591" x2="230.698" y2="152.651" gradientUnits="userSpaceOnUse">
<stop stop-color="#E8F6FF"/>
<stop stop-color="#DAF0FD"/>
<stop stop-color="#E8F6FF"/>
<stop stop-color="#80D0FF"/>
<stop stop-color="#DAF0FD"/>
<stop offset="0.00340487" stop-color="#DAF0FD"/>
<stop offset="0.299008" stop-color="#E9F7FF"/>
</linearGradient>
<linearGradient id="paint39_linear_114_3016" x1="211.413" y1="151.059" x2="211.808" y2="155.34" gradientUnits="userSpaceOnUse">
<stop stop-color="#E8F6FF"/>
<stop stop-color="#DAF0FD"/>
<stop stop-color="#E8F6FF"/>
<stop stop-color="#80D0FF"/>
<stop stop-color="#DAF0FD"/>
<stop offset="0.00340487" stop-color="#DAF0FD"/>
<stop offset="0.299008" stop-color="#E9F7FF"/>
</linearGradient>
<linearGradient id="paint40_linear_114_3016" x1="205.592" y1="154.571" x2="205.409" y2="150.971" gradientUnits="userSpaceOnUse">
<stop stop-color="#E8F6FF"/>
<stop stop-color="#DAF0FD"/>
<stop stop-color="#E8F6FF"/>
<stop stop-color="#80D0FF"/>
<stop stop-color="#DAF0FD"/>
<stop offset="0.00340487" stop-color="#DAF0FD"/>
<stop offset="0.299008" stop-color="#E9F7FF"/>
</linearGradient>
<linearGradient id="paint41_linear_114_3016" x1="62.6071" y1="166.743" x2="82.6889" y2="243.896" gradientUnits="userSpaceOnUse">
<stop stop-color="#E8F6FF"/>
<stop stop-color="#DAF0FD"/>
<stop stop-color="#E8F6FF"/>
<stop stop-color="#80D0FF"/>
<stop stop-color="#DAF0FD"/>
<stop offset="0.00340487" stop-color="#DAF0FD"/>
<stop offset="0.299008" stop-color="#E9F7FF"/>
</linearGradient>
<linearGradient id="paint42_linear_114_3016" x1="65.2062" y1="166.743" x2="85.2858" y2="243.897" gradientUnits="userSpaceOnUse">
<stop stop-color="#E8F6FF"/>
<stop stop-color="#DAF0FD"/>
<stop stop-color="#E8F6FF"/>
<stop stop-color="#80D0FF"/>
<stop stop-color="#DAF0FD"/>
<stop offset="0.00340487" stop-color="#DAF0FD"/>
<stop offset="0.299008" stop-color="#E9F7FF"/>
</linearGradient>
<linearGradient id="paint43_linear_114_3016" x1="40.1748" y1="250.692" x2="40.4205" y2="270.239" gradientUnits="userSpaceOnUse">
<stop stop-color="#E8F6FF"/>
<stop stop-color="#DAF0FD"/>
<stop stop-color="#E8F6FF"/>
<stop stop-color="#80D0FF"/>
<stop stop-color="#DAF0FD"/>
<stop offset="0.00340487" stop-color="#DAF0FD"/>
<stop offset="0.299008" stop-color="#E9F7FF"/>
</linearGradient>
</defs>
</svg>
