<svg xmlns="http://www.w3.org/2000/svg" version="1.1" xmlns:xlink="http://www.w3.org/1999/xlink" xmlns:svgjs="http://svgjs.com/svgjs" width="512" height="512" x="0" y="0" viewBox="0 0 128 128" style="enable-background:new 0 0 512 512" xml:space="preserve" class=""><g><g xmlns="http://www.w3.org/2000/svg" id="Layer_3" data-name="Layer 3"><path d="m84.7312 36.3923c-.6224-.9475-1.8429-.5417-2.7683.2874a.97.97 0 0 0 -.4832-.1969l1.1014-3.7453c.3214-1.0925-.5961-1.5845-1.5238-1.3721-.053.0121-.1021.0366-.1539.0528-2.5-2.3495-5.14-5.291-8.3971-6.32-3.75-1.185-9.0416-.643-12.8834-.3095-6.6333.5759-13.0906 4.2529-14.2462 11.2738-.25 1.5214.7569 1.5953 1.811 1.0626a1.7664 1.7664 0 0 0 -.1756.7282l.0009.0335a.94.94 0 0 0 -.1817-.0973c-1.0855-.3484-2.2793.8278-2.81 1.6078a6.1075 6.1075 0 0 0 -1.205 4.2818c.0256.0494.0555.0934.0777.1468a17.1363 17.1363 0 0 0 2.2617 3.6141 1.0352 1.0352 0 0 1 1.1184.2773 4.8881 4.8881 0 0 1 1.0243 1.9238 2.358 2.358 0 0 0 .213-.17 4.2383 4.2383 0 0 0 .551-.665c.2355 1.2575.5282 2.5087.8718 3.7384a3.1822 3.1822 0 0 0 -.097.5774c-.23 3.724.599 7.4977 3.5239 10.024a1.2807 1.2807 0 0 0 1.299.1711 2.57 2.57 0 0 0 -.1848.3725 1.9455 1.9455 0 0 0 -.0462 1.508 2.0954 2.0954 0 0 0 -.35 1.1163 55.0218 55.0218 0 0 1 -.2449 7.547c-.2292 2.4171-.3054 3.2227-2.49 4.5123-.8463.5-2.1373 1.774-1.9021 2.89.2082.9881 1.0271 1.1552 1.8479.7736a.9826.9826 0 0 0 .6955 1.0781c4.44 1.5467 9.4859 3.1014 14.2551 2.6192 3.3683-.3406 8.1092-1.4487 10.4976-3.9829.5381-.5711 1.1785-1.6817.8219-2.5039l-.1164-.2682a.97.97 0 0 0 -.3784-.444 1.1368 1.1368 0 0 0 -.0848-.2608 24.534 24.534 0 0 1 -2.3552-5.8969c-.53-2.53.152-4.8519.88-7.2629 1.7455-1.0353 2.9137-3.0363 3.9184-4.787a21.1835 21.1835 0 0 0 2.3941-7.0859 8.8616 8.8616 0 0 0 .7174-2.1213 1.259 1.259 0 0 0 -.2171-1.0785 12.3863 12.3863 0 0 0 1.2757-4.2817l-.0373-.1106a1.03 1.03 0 0 1 .6961-1.3548c1.2633-2.3455 3.1268-5.393 1.4786-7.9023z" fill="#f9bea5" data-original="#f9bea5" class=""></path><path d="m74.2233 117.8076c5.6233-.4825 11.3421.065 17.0055-.3326a47.43 47.43 0 0 1 12.4447.8421l.0194-.0175a3.6169 3.6169 0 0 0 3.0368-2.6408 23.4818 23.4818 0 0 0 -.8332-8.9559.8022.8022 0 0 0 -.3977-.5208 29.8653 29.8653 0 0 0 -2.8-12.6473c-3.0478-5.837-12.1175-8.0719-17.5984-10.49-.7451-.3287-1.7444.2559-2.4549 1.0885a3.3639 3.3639 0 0 0 -1.5992 1.1953c-3.0182 4.2169-12.5525 4.1622-17.1563 4.0914-6.73-.1035-11.2821-1.974-16.2279-6.3719a1.1063 1.1063 0 0 0 -.7946-.2678c.4291-.9757.3673-1.8413-.7621-1.7165a28.6471 28.6471 0 0 0 -18.531 9.57c-6.0872 6.9454-6.511 15.9566-10.2832 24.0267-1 2.14.8482 2.05 2.2774 1.1321a.7535.7535 0 0 0 .6757.6526c17.6086 3.2929 35.3491 4.15 53.1276 3.8968a1.44 1.44 0 0 1 .8514-2.5344z" fill="#96b8ea" data-original="#96b8ea" class=""></path><path d="m84.7312 36.3923c-.6224-.9475-1.8429-.5417-2.7683.2874a.97.97 0 0 0 -.4832-.1969l1.1014-3.7453c.3214-1.0925-.5961-1.5845-1.5238-1.3721-.053.0121-.1021.0366-.1539.0528-.4645-.4366-.9365-.8951-1.4138-1.3564a1.8278 1.8278 0 0 0 .0161-1.2644 7.09 7.09 0 0 0 -2.9972-3.2809 12.6306 12.6306 0 0 0 -.76-1.3734 6.5736 6.5736 0 0 0 -5.217-3.0139 2.3 2.3 0 0 0 -1.67.795 10.9848 10.9848 0 0 0 -9.1-.158 4.5506 4.5506 0 0 0 -2.21 3.3137c-5.8551 1.1-11.1405 4.697-12.1751 10.9824-.25 1.5214.7569 1.5953 1.811 1.0626a1.7664 1.7664 0 0 0 -.1756.7282l.0009.0335a.94.94 0 0 0 -.1817-.0973c-1.0855-.3484-2.2793.8278-2.81 1.6078a6.1075 6.1075 0 0 0 -1.205 4.2818c.0256.0494.0555.0934.0777.1468a17.1363 17.1363 0 0 0 2.262 3.6143 1.0352 1.0352 0 0 1 1.1184.2773 4.8881 4.8881 0 0 1 1.0243 1.9238 2.358 2.358 0 0 0 .213-.17 4.2383 4.2383 0 0 0 .551-.665c.2355 1.2575.5282 2.5087.8718 3.7384a3.1822 3.1822 0 0 0 -.097.5774c-.23 3.724.599 7.4977 3.5239 10.024a1.2807 1.2807 0 0 0 1.299.1711 2.57 2.57 0 0 0 -.1848.3725 1.9455 1.9455 0 0 0 -.0462 1.508 2.0954 2.0954 0 0 0 -.35 1.1163 55.0218 55.0218 0 0 1 -.2449 7.547c-.2292 2.4171-.3054 3.2227-2.49 4.5123-.8463.5-2.1373 1.774-1.9021 2.89.2082.9881 1.0271 1.1552 1.8479.7736a.9826.9826 0 0 0 .6955 1.0781c4.44 1.5467 9.4859 3.1014 14.2551 2.6192 3.3683-.3406 8.1092-1.4487 10.4976-3.9829.5381-.5711 1.1785-1.6817.8219-2.5039l-.1164-.2682a.97.97 0 0 0 -.3784-.444 1.1368 1.1368 0 0 0 -.0848-.2608 24.534 24.534 0 0 1 -2.3552-5.8969c-.53-2.53.152-4.8519.88-7.2629 1.7455-1.0353 2.9137-3.0363 3.9184-4.787a21.1835 21.1835 0 0 0 2.3941-7.0859 8.8616 8.8616 0 0 0 .7174-2.1213 1.259 1.259 0 0 0 -.2171-1.0785 12.3863 12.3863 0 0 0 1.2757-4.2817l-.0373-.1106a1.03 1.03 0 0 1 .6961-1.3548c1.2633-2.3455 3.1268-5.393 1.4786-7.9023z" fill="#d89687" data-original="#d89687" class=""></path><path d="m64.2722 91.377c1.0427-.0348 2.1128-.1166 3.1916-.2413q1.0752-.0345 2.1581-.1357a1.9343 1.9343 0 0 0 .8438-.34c5.2327-1.0591 10.322-3.3787 13.3748-7.6728a10.3314 10.3314 0 0 1 -3.2005-2.8284c-.0514.0385-.1048.0764-.1512.1162a16.7775 16.7775 0 0 1 -5.5727 3.1837c-.0221.0011-.0376-.0055-.0606-.0034-2.5952.2442-5.1028 1.5348-7.712 1.4241-.85-.0361-1.8555.8693-2.4218 1.8469-.6094-.0721-1.218-.1485-1.8213-.2575-3.031-.1044-5.8942-.887-8.9783-1.3246a.7043.7043 0 0 1 -.4229-.2163 4.6027 4.6027 0 0 0 -.769.9215c-2.6042-.8448-4.83-2.2729-5.8967-4.7425-.8491-1.9665-4.5509 1.3258-3.7991 3.0671 3.1615 7.3232 14.3993 7.4309 21.2378 7.203z" fill="#6f8fc9" data-original="#6f8fc9" class=""></path><path d="m89.66 33.2319a.9831.9831 0 0 0 -.9531-.9532.9589.9589 0 0 0 -.603.2367c.0221-1.9871-.4783-3.8771-1.931-4.7466a6.9877 6.9877 0 0 0 .8968-5.2924c-.61-2.1944-2.2194-2.3528-4.0332-2.2249a7.9249 7.9249 0 0 0 -1.7447-3.8357 3.5594 3.5594 0 0 0 -.8787-1.3105 14.1815 14.1815 0 0 0 -1.2625-1.2553.9114.9114 0 0 0 -1.3055.09 7.692 7.692 0 0 0 -5.8568.1 12.54 12.54 0 0 0 -1.7883-1.6441 6.6758 6.6758 0 0 0 -5.7583-2.8333 5.2849 5.2849 0 0 0 -4.2717 2.3629c-.6448-.1193-1.3056-.294-2.0244-.4947l-.29-.1116a.8173.8173 0 0 0 -.3166-.0541c-.1979-.0544-.39-.1084-.5989-.163-1.3381-.35-1.1618-.5868-2.5864-.6715a.9245.9245 0 0 0 -.89.4582 5.0182 5.0182 0 0 0 -4.6828 2.0735c-.0331.0439-.0623.0946-.0945.14a5.0988 5.0988 0 0 0 -1.97 4.3034.9607.9607 0 0 0 .7351 1.0054c-.06.052-.1194.1092-.1794.1579-.7806.6329-1.5765 1.2441-2.3981 1.8232a.7358.7358 0 0 0 -.3219.6488 12.6613 12.6613 0 0 1 -3.9277-.1636c-.6875-.1256-1.2067.8282-.5057 1.1994a7.6956 7.6956 0 0 0 2.2325.7744 11.5216 11.5216 0 0 1 -3.5386.2744.8354.8354 0 0 0 -.5855 1.4137c2.0395 1.6562 4.386.5959 6.6054-.3168.9694-.3986 1.9368-.8231 2.8977-1.2648a.8078.8078 0 0 0 .3331.336 11.5584 11.5584 0 0 0 -6.5068 10.9734 1.2 1.2 0 0 0 1.71 1.0518 3.2211 3.2211 0 0 0 1.259 2.7087.6689.6689 0 0 0 .775-.0844.789.789 0 0 0 .6461-.577c.0065-.02.0078-.0409.0137-.0611a.7619.7619 0 0 0 .6322-.5544 5.2772 5.2772 0 0 0 .2172-1.5744.8856.8856 0 0 0 .0645-.1627.8907.8907 0 0 0 .8195-.2071 6.3255 6.3255 0 0 0 1.2927-2.01l1.1575-2.2217a.911.911 0 0 0 -.3717-1.2472 9.0012 9.0012 0 0 1 1.8573-1.3353 5.4783 5.4783 0 0 0 4.3347-1.6117.831.831 0 0 0 .95.2876 5.9057 5.9057 0 0 0 3.3065-3.0406 16.7512 16.7512 0 0 0 2.71-.0379 5.745 5.745 0 0 0 3.3363-.9121.7237.7237 0 0 0 -.3171-1.2013 3.1335 3.1335 0 0 0 -.7584-.0916c.4679-.2031.925-.4222 1.3731-.652a.8411.8411 0 0 0 .7614.1767 19.6058 19.6058 0 0 0 2.1678-.6176 1.0087 1.0087 0 0 0 .5952.4974 39.2209 39.2209 0 0 0 5.4191 1.8158 11.9258 11.9258 0 0 1 4.1342 4.5528.9748.9748 0 0 0 -.083 1.6531c1.1541.7943 1.2253 4.4939 1.491 5.8291a1.1381 1.1381 0 0 0 1.3973.7933 7.1472 7.1472 0 0 0 1.168-.6008 1.1475 1.1475 0 0 0 1.3417.5212 6.2142 6.2142 0 0 1 -.2895.7333c-.7636 1.6078 1.659 3.0074 2.388 1.3959.0162-.0357.0311-.0769.047-.1135a1.081 1.081 0 0 0 .2345-.0148c1.7249-.3901 2.5158-2.54 2.3227-4.1227zm-29.0465-13.33a1.0127 1.0127 0 0 0 -.1124.0732 1.2506 1.2506 0 0 0 -.1469.1442 3.9963 3.9963 0 0 0 -.5066-.9872 1.0478 1.0478 0 0 0 -.0753-.3733c.0529-.02.1038-.0414.1563-.0614a1.1745 1.1745 0 0 0 .695.2083.96.96 0 0 0 -.0105.9961z" fill="#6d473a" data-original="#6d473a" class=""></path></g><g xmlns="http://www.w3.org/2000/svg" id="Layer_2" data-name="Layer 2"><path d="m111.4088 115.0269c-1.7479-5.33-3.1341-10.77-4.8458-16.1111-1.3156-4.1051-2.5255-8.889-6.3219-11.3274-4.6147-2.964-10.3243-4.9759-15.4965-6.7056a40.4534 40.4534 0 0 1 -5.1063-1.767 1.3827 1.3827 0 0 0 -.5437-.3029 6.9161 6.9161 0 0 1 -3.1146-4.7374c-.6974-2.9119-.5062-6.3267-.563-9.3646 5.5058-4.4908 7.0315-12.1195 7.0185-19.8328 2.1588-.6385 3.9727-3.8059 3.9506-5.8491a.7759.7759 0 0 0 1.0005.2654c2.5559-1.2066 2.9569-2.86 2.59-5.5915-.2626-1.956-.9513-3.7767-2.7019-4.6176a5.7694 5.7694 0 0 0 1.76-6.152 6.1949 6.1949 0 0 0 -1.5489-2.4649c-.809-.802-2.0619-.9441-2.8228-1.6018-.6526-.564-.6549-1.7548-1.1118-2.69a6.9486 6.9486 0 0 0 -1.8975-2.4066 7.224 7.224 0 0 0 -6.8427-.8682.55.55 0 0 0 .2919 1.0589 5.5894 5.5894 0 0 1 6.3518 2.3355c.7028 1.1261.3517 2.8537 1.1354 3.8328.6944.8678 2.1788.8882 3.0077 1.672 1.9237 1.819 1.1376 3.9983-.243 5.834a.9982.9982 0 0 0 .4263 1.5779.64.64 0 0 0 .4059.7979c1.8409.6664 2.11 2.6492 2.2156 4.34a3.3377 3.3377 0 0 1 -1.79 3.6192.7531.7531 0 0 0 -.3007.3449 4.3089 4.3089 0 0 0 -4.5989-3.5749c-.0838-.6677-.17-1.3276-.26-1.9705a.9161.9161 0 0 0 -.9061-.7791c1.7254-2.6679-1.27-7.0442-3.3463-8.7444a13.1108 13.1108 0 0 0 -11.9646-2.0963.68.68 0 0 0 .3615 1.311c3.8733-.8591 7.8579-.0451 10.45 3.1158a9.2615 9.2615 0 0 1 1.9949 4.0278c.2527 1.2326.14 1.8068.9842 2.7551a.7509.7509 0 0 0 .3368.2033.8711.8711 0 0 0 -.102.5034c.1109 1.0468.2343 2.1367.3565 3.2554-.1013.0193-.2.0378-.295.0529-.657.1049-1.3859.16-2.052.3333-.0148-.1521-.03-.3053-.0443-.4541-.1665-1.7343-.2622-3.0363-2.0019-3.7637a14.48 14.48 0 0 0 -7.4385-.4899.6745.6745 0 0 0 -.5946.84c-1.9854-.9986-2.6368 1.5533-2.8174 4.1308a3.0541 3.0541 0 0 0 -3.1194.3383c-.007-.0716-.0143-.1453-.0211-.2161-.1665-1.7343-.2622-3.0363-2.0019-3.7636a14.4785 14.4785 0 0 0 -7.4391-.4892.6744.6744 0 0 0 -.5946.8395c-2.2424-1.1279-2.7827 2.2742-2.8659 5.124a3.3425 3.3425 0 0 0 -.5343-.0836c-.022-1.0992-.058-2.1735-.1282-3.2036a.6715.6715 0 0 0 -1.3422 0c-.0027.6137-.0145 1.2457-.03 1.8859-2.8215-.5542-4.5719 2.7053-4.51 5.1851.0556 2.231 1.8589 5.8157 4.36 5.3956.1709 5.01.964 9.9411 3.5963 13.8162a15.3381 15.3381 0 0 0 2.8254 3.1292c-.0776 2.5242-.1292 5.0491-.364 7.5655-.5127 5.4934-3.5345 6.6241-8.066 8.0935-5.4683 1.7731-11.5163 3.8766-16.38 7.0011-3.6063 2.3167-4.766 6.6132-6.0572 10.5191-1.8735 5.667-3.3085 11.47-5.1791 17.1382-.3264.9894.8973 1.5133 1.5647 1.015 6.7947 2.1836 14.1556 2.6623 21.2094 3.4147a221.0976 221.0976 0 0 0 24.3009.9848 253.2766 253.2766 0 0 0 47.0987-4.2235 1.1348 1.1348 0 0 0 .1416-.0258c.1368-.0267.2752-.0478.4119-.0748.6361-.1263.628-1.0431.1587-1.3094zm-26.8954-74.8418a6.655 6.655 0 0 1 -2.1234 2.4708c-.0825-2.2215-.2713-4.4234-.5119-6.5364 1.8995.4556 3.6019 1.8339 2.6353 4.0656zm-17.62-6.3591a.509.509 0 0 0 .6244-.3976.8788.8788 0 0 0 .7227.2191 16.7735 16.7735 0 0 1 3.9485-.1623c2.2476.218 3.0292.8319 3.4886 3.1928.4711 2.4207.9513 6.2992-1.8263 7.3614a9.7822 9.7822 0 0 1 -3.7328.3045c-2.321-.1148-3.2483-.6725-3.7337-3.1156-.1348-.6771-.6992-7.7298.5084-7.4023zm-15.9935.84a.5089.5089 0 0 0 .6244-.3975.8788.8788 0 0 0 .7227.2191 16.7735 16.7735 0 0 1 3.9485-.1623c2.2476.2181 3.0291.832 3.4886 3.1929.4711 2.4206.9512 6.2992-1.8264 7.3612a9.7778 9.7778 0 0 1 -3.7327.3046c-2.321-.1148-3.2483-.6725-3.7337-3.1155-.1347-.6776-.6992-7.7304.5087-7.4029zm-4.9484 10.9115a2.947 2.947 0 0 1 -2.17-2.0914c-.7135-1.676-.08-5.1275 2.4812-4.7431-.067 2.2041-.16 4.5225-.1593 6.8572zm4.4085 13.3916c-2.6238-5.2623-2.48-12.1927-2.5373-18.477a3.4292 3.4292 0 0 0 .5037-.0821c.0155.762.0509 1.37.068 1.6581.1058 1.7934.2267 3.7659 2.09 4.5551a12.5927 12.5927 0 0 0 7.217.2049c3.8727-.99 3.97-4.65 3.6929-8.0091.7962-.2631 1.9486-.8806 2.6623-.22a.6876.6876 0 0 0 .2565.1484c-.0037 1.1394.0525 2.0948.0753 2.4813.1058 1.7934.2268 3.766 2.09 4.5551a12.5919 12.5919 0 0 0 7.217.205c3.7973-.9707 3.9644-4.5085 3.7086-7.8126a9.7688 9.7688 0 0 0 2.1811-.2714l.1981-.0393c1.1216 10.8529 1.5682 23.8512-10.3993 28.1545-7.1673 2.5777-15.5098-.0039-19.0239-7.0509zm2.4432 19.6822c1.7853-3.0607 1.4535-8.6537 1.1561-12.6868a18.2079 18.2079 0 0 0 13.8339 2.2389 18.2614 18.2614 0 0 0 6.2685-2.5126c-.298 4.09-.6583 9.706 1.1343 12.9605a4.9884 4.9884 0 0 0 1.2838 1.472c-8.6958 5.9215-17.7948 5.1319-27.2135 1.2727a7.1282 7.1282 0 0 0 3.5373-2.7447zm-34.1917 36.5413c1.7416-5.7948 3.34-11.6428 5.46-17.3128 1.6249-4.346 2.8634-7.1792 7.18-9.5406a81.2694 81.2694 0 0 1 10.8243-4.7392c1.4293-.5282 3.3747-.928 5.2526-1.5073 8.9912 7.595 22.3243 5.8234 31.3352-.7092 2.4142 1.0333 5.3775 1.5206 7.2606 2.2165a105.097 105.097 0 0 1 9.9889 4.3267c4.6432 2.2862 6.2724 5.2956 8.0151 9.9532 2.1143 5.6508 3.7085 11.48 5.4434 17.2558-14.93 1.66-29.757 3.0551-44.8012 3.2287-15.3368.1769-30.9173-.0026-45.9589-3.1718z" fill="#000000" data-original="#000000" class=""></path><path d="m64.0553 57.5024a5.7429 5.7429 0 0 0 4.1588-3.2119c.23-.6218-.5918-.9233-1.0051-.5851-1.111.9092-1.8894 1.7967-3.36 2.12a5.7217 5.7217 0 0 1 -4.5613-.9694c-.5958-.4305-1.3719.5618-.7922 1.0266a6.4941 6.4941 0 0 0 5.5598 1.6198z" fill="#000000" data-original="#000000" class=""></path><path d="m63.8911 50.9213a.4133.4133 0 0 0 .3986-.6846 6.8393 6.8393 0 0 0 -2.5685-1.6431c.1847-1.08 1.0065-2.2972 1.2625-3.3309a10.2891 10.2891 0 0 0 .2191-3.43.41.41 0 0 0 -.8193 0 12.6583 12.6583 0 0 1 -1.0443 4.3583 7.5648 7.5648 0 0 0 -.6983 2.1706c-.1702 1.5674 1.9344 2.3284 3.2502 2.5597z" fill="#000000" data-original="#000000" class=""></path><path d="m55.688 39.9272a6.1464 6.1464 0 0 0 .0262-.884 2.4165 2.4165 0 0 1 .0469-.8608.6542.6542 0 0 0 -1.2606-.3476 3.54 3.54 0 0 0 -.1887 1.3036 1.7628 1.7628 0 0 0 .5728 1.1215.4757.4757 0 0 0 .8034-.3327z" fill="#000000" data-original="#000000" class=""></path><path d="m72.1419 39.2767c.4639-.5172.2827-1.2638.252-1.9087a.6715.6715 0 0 0 -1.3422 0c-.0308.6471-.2137 1.3894.2521 1.9087a.5967.5967 0 0 0 .8381 0z" fill="#000000" data-original="#000000" class=""></path><path d="m52.2108 26.3654a3.0474 3.0474 0 0 0 -1.5508 1.1046 7.1773 7.1773 0 0 1 -4.39 2.508.817.817 0 0 0 0 1.5632 4.9882 4.9882 0 0 0 4.5942-1.4181c1.0914-1.0387 1.69-1.7821 3.2849-1.8054a8.9207 8.9207 0 0 0 3.0575-.2488c3.2913-1.1579 5.1915-6.2442 3.3166-9.1675-.2721-.4243-1.0647-.1576-.86.3627.7928 2.0164-.2645 4.6383-1.7634 6.0867-2.0412 1.972-3.5158.4079-5.689 1.0146z" fill="#000000" data-original="#000000" class=""></path><path d="m42.4543 35.7973c-.505-2.5579-.9188-5.39.65-7.7072 1.708-2.5238 4.7669-2.7863 7.3435-3.8414 2.6769-1.0962 4.7506-2.806 4.9481-5.8161a.6216.6216 0 0 0 -1.2155-.1645c-1.351 5.4-8.9432 4.1253-12.2281 7.7265-2.4983 2.7388-2.809 7.0176-1.649 10.3958a1.1165 1.1165 0 0 0 2.151-.5931z" fill="#000000" data-original="#000000" class=""></path><path d="m41.15 21.77c2.6566.5283 6.06-1.4143 7.3652-3.68a.6391.6391 0 0 0 -.9993-.771 7.1983 7.1983 0 0 1 -.7419.5757c.4268-6.0012 7.9138-8.9723 12.4507-5.4568a.7726.7726 0 0 0 1.1849-.1527c4.2322-5.8709 8.6417-1.8742 11.3255 1.9577a.6066.6066 0 0 0 1.1206-.3035c-.1177-3.1758-2.8234-5.55-5.9491-6.0173a7.8008 7.8008 0 0 0 -4.354.6317c-1.1134.51-2.1787 1.8775-3.3275 1.9544-.8983.06-2.4744-.9478-3.5539-1.02a11.3807 11.3807 0 0 0 -5.2938.91c-3.3467 1.4885-5.1474 4.2132-4.5174 7.8118a.4026.4026 0 0 0 .08.1806 11.5159 11.5159 0 0 1 -1.7615.7209 10.7769 10.7769 0 0 0 -3.2244 1.1606c-.5082.3771-.5654 1.3461.1959 1.4979z" fill="#000000" data-original="#000000" class=""></path><path d="m78.8339 84.8126c-4.7765 2.8009-9.0023 5.2661-14.751 5.4464-5.389.1692-13.1181-1.2277-17.4573-4.6737a.7326.7326 0 0 0 -1.0356 1.0354c3.5872 4.5876 12.2378 5.6883 17.7052 5.7329 5.8282.0476 12.4421-1.973 16.4572-6.35a.7615.7615 0 0 0 -.9185-1.191z" fill="#000000" data-original="#000000" class=""></path></g></g></svg>