<svg width="300" height="300" viewBox="0 0 300 300" fill="none" xmlns="http://www.w3.org/2000/svg">
<path d="M20.8991 225.746C22.487 226.455 26.3594 226.391 26.3594 226.391C26.3594 226.391 25.5309 223.811 25.4556 223.631C24.602 221.8 21.9159 218.788 19.7318 219.117C19.373 219.178 19.0306 219.316 18.7266 219.521C18.4225 219.726 18.1635 219.994 17.9662 220.308C17.7688 220.622 17.6375 220.974 17.5805 221.343C17.5236 221.712 17.5423 222.09 17.6355 222.451C17.9996 223.985 19.556 225.14 20.8991 225.746Z" fill="#1B98E0"/>
<path d="M22.2362 237.281C23.8805 237.526 27.3387 236.495 27.6086 236.411C28.1786 238.442 28.8789 240.432 29.7048 242.369C30.1818 243.504 30.6964 244.625 31.2236 245.747C30.9098 245.27 30.596 244.851 30.596 244.793C29.3408 243.265 25.9391 241.086 23.9119 241.969C23.5783 242.125 23.2805 242.352 23.0379 242.634C22.7952 242.917 22.6132 243.249 22.5037 243.608C22.3942 243.968 22.3596 244.347 22.4021 244.721C22.4447 245.095 22.5635 245.456 22.7508 245.78C23.504 247.185 25.2989 247.875 26.755 248.095C28.2111 248.314 31.1985 247.501 31.9768 247.269C32.1839 247.701 32.3847 248.127 32.6044 248.559C33.6023 250.609 34.6065 252.647 35.5353 254.678C35.868 255.394 36.1629 256.109 36.4642 256.825C36.1818 256.406 35.9433 256.051 35.8993 256C34.6441 254.472 31.2424 252.292 29.2153 253.182C28.8817 253.338 28.5838 253.565 28.3412 253.848C28.0986 254.13 27.9166 254.462 27.807 254.821C27.6975 255.181 27.6629 255.56 27.7055 255.934C27.7481 256.308 27.8669 256.669 28.0542 256.993C28.8073 258.392 30.6023 259.088 32.0583 259.301C33.5144 259.514 36.2131 258.785 37.142 258.521C37.4244 259.263 37.7131 260.004 37.9579 260.739C38.1148 261.242 38.2968 261.719 38.4223 262.235L38.8366 263.744C39.0625 264.711 39.301 265.711 39.4642 266.658C39.6085 267.303 39.7341 267.948 39.8596 268.593C39.5395 267.877 38.8868 266.491 38.824 266.381C37.7759 264.666 34.7696 261.99 32.6295 262.545C32.2768 262.648 31.9493 262.827 31.6681 263.069C31.387 263.311 31.1585 263.611 30.9975 263.95C30.8366 264.288 30.7467 264.658 30.7338 265.035C30.7208 265.411 30.7851 265.787 30.9224 266.136C31.4621 267.638 33.1316 268.599 34.5374 269.044C36.0876 269.528 39.5207 269.083 39.9474 269.044C40.1546 270.102 40.3428 271.127 40.506 272.094C40.8763 274.241 41.1336 276.163 41.3596 277.788H42.8094C42.5583 276.105 42.2257 274.099 41.7926 271.849C41.5855 270.779 41.347 269.637 41.0897 268.47C42.1275 268.025 43.1378 267.515 44.1148 266.942C45.2445 268.199 48.1378 269.67 48.5081 269.857C48.119 270.856 47.7236 271.791 47.3407 272.72C46.5374 274.609 45.778 276.292 45.1064 277.717H46.6755C47.2466 276.427 47.8805 274.905 48.5583 273.242C48.96 272.236 49.3742 271.146 49.8135 270.018C50.2277 270.108 53.6231 270.811 55.2047 270.45C56.6357 270.115 58.3428 269.276 59.0206 267.819C59.183 267.482 59.2744 267.113 59.2887 266.737C59.3031 266.361 59.2401 265.986 59.1039 265.637C58.9676 265.288 58.7612 264.972 58.4982 264.71C58.2351 264.448 57.9212 264.247 57.5771 264.118C55.4871 263.396 52.2926 265.833 51.1252 267.464C51.0562 267.555 50.4223 268.683 50.0332 269.399C50.1964 268.941 50.3658 268.496 50.529 268.025C50.8616 267.09 51.1566 266.149 51.5018 265.13C51.6462 264.64 51.7905 264.137 51.9411 263.634C52.0918 263.131 52.1985 262.59 52.3302 262.061C52.619 260.836 52.8449 259.578 53.052 258.308C53.8491 258.605 56.6984 259.598 58.1671 259.514C59.6357 259.43 61.4809 258.869 62.3281 257.515C62.5351 257.207 62.6772 256.858 62.7451 256.491C62.8131 256.123 62.8054 255.745 62.7227 255.381C62.6399 255.016 62.4839 254.674 62.2646 254.375C62.0454 254.076 61.7677 253.828 61.4495 253.646C59.4913 252.608 55.9767 254.523 54.5771 255.948C54.4892 256.038 53.6043 257.18 53.1273 257.812C53.2403 257.051 53.3658 256.284 53.46 255.51C53.7298 253.259 53.9369 250.996 54.1503 248.701C54.2194 248.004 54.2884 247.308 54.3637 246.611C54.6461 246.721 58.0039 248.004 59.6545 247.901C61.1231 247.791 62.962 247.256 63.8093 245.902C64.0175 245.595 64.1607 245.247 64.2297 244.879C64.2986 244.512 64.2918 244.133 64.2095 243.769C64.1273 243.404 63.9716 243.061 63.7524 242.762C63.5332 242.463 63.2554 242.215 62.9369 242.033C60.9725 240.989 57.4579 242.904 56.0332 244.335C55.9265 244.445 54.6461 246.083 54.3449 246.521C54.5018 244.987 54.6713 243.465 54.8972 241.969C55.1887 239.948 55.608 237.95 56.1524 235.985C56.2842 236.037 59.78 237.391 61.4746 237.275C62.9432 237.172 64.7821 236.63 65.6294 235.276C65.8376 234.969 65.9808 234.62 66.0497 234.253C66.1187 233.885 66.1118 233.507 66.0296 233.142C65.9474 232.778 65.7917 232.435 65.5724 232.136C65.3532 231.837 65.0754 231.589 64.757 231.407C62.7926 230.369 59.2779 232.284 57.8532 233.709C57.7403 233.819 56.3658 235.585 56.1399 235.927C56.1399 235.811 56.1964 235.695 56.2277 235.579C56.8339 233.626 57.6067 231.731 58.5373 229.918C59.0394 228.905 59.5729 227.983 60.1127 227.074C60.7403 227.396 63.6147 228.828 65.1336 228.892C66.6524 228.957 68.4913 228.609 69.4829 227.377C69.7251 227.094 69.9066 226.762 70.0155 226.402C70.1245 226.043 70.1584 225.663 70.1152 225.289C70.072 224.915 69.9526 224.555 69.7647 224.231C69.5768 223.907 69.3247 223.628 69.0248 223.411C67.1859 222.154 63.4892 223.663 61.9453 224.927C61.8637 224.991 61.0855 225.791 60.5332 226.378C60.7779 225.971 61.029 225.552 61.2737 225.172C62.1963 223.747 63.1566 222.496 63.9662 221.4C64.4432 220.755 64.8888 220.226 65.3093 219.71C66.0813 219.71 69.2068 219.601 70.5687 218.943C71.9306 218.285 73.4243 217.105 73.7444 215.538C73.8323 215.173 73.8443 214.792 73.7796 214.422C73.715 214.051 73.5751 213.699 73.3691 213.387C73.163 213.076 72.8955 212.812 72.5839 212.614C72.2723 212.416 71.9235 212.288 71.5603 212.237C69.37 211.992 66.7654 215.081 65.962 216.931C65.893 217.092 65.0896 219.717 65.1273 219.717H65.2716C64.8574 220.2 64.4181 220.723 63.9474 221.303C63.0875 222.386 62.1273 223.618 61.1733 225.03C60.1259 226.543 59.1641 228.117 58.2926 229.743C57.3116 231.558 56.4904 233.459 55.8386 235.424V235.495C55.8386 234.85 55.8386 232.974 55.801 232.832C55.5499 230.827 53.9181 227.1 51.7403 226.687C51.3782 226.629 51.0082 226.649 50.6544 226.748C50.3006 226.846 49.9708 227.019 49.6867 227.257C49.4025 227.495 49.1703 227.792 49.005 228.128C48.8398 228.464 48.7453 228.832 48.7278 229.208C48.6022 230.807 49.7319 232.4 50.824 233.406C52.0792 234.547 55.4997 235.643 55.7696 235.734C55.1569 237.75 54.6726 239.804 54.3198 241.885C54.1127 243.097 53.9369 244.329 53.7738 245.56C53.7738 244.987 53.7738 244.471 53.7738 244.4C53.5164 242.394 51.8909 238.668 49.7131 238.255C49.3507 238.197 48.9805 238.219 48.6267 238.318C48.2729 238.417 47.9433 238.591 47.6592 238.83C47.3752 239.068 47.1431 239.365 46.9779 239.701C46.8128 240.038 46.7183 240.406 46.7006 240.782C46.575 242.375 47.6985 243.974 48.7968 244.98C49.8951 245.986 52.7194 246.953 53.5164 247.218C53.46 247.695 53.3972 248.165 53.3407 248.643C53.0771 250.912 52.8261 253.188 52.506 255.407C52.3993 256.187 52.2612 256.954 52.1231 257.721C52.1231 257.212 52.1231 256.78 52.1231 256.716C51.8721 254.71 50.2403 250.983 48.0625 250.571C47.7007 250.512 47.331 250.533 46.9776 250.631C46.6241 250.729 46.2947 250.903 46.0111 251.141C45.7274 251.379 45.4957 251.676 45.3312 252.012C45.1666 252.348 45.073 252.716 45.0562 253.092C44.9244 254.691 46.0541 256.316 47.1462 257.289C48.2382 258.263 50.9118 259.224 51.8093 259.52C51.6462 260.301 51.4893 261.081 51.2947 261.835C51.1566 262.338 51.0562 262.841 50.8867 263.344C50.7173 263.847 50.5729 264.344 50.416 264.834C50.0834 265.769 49.7508 266.736 49.4056 267.645C49.1671 268.29 48.9286 268.87 48.6964 269.47C48.8156 268.696 49.0165 267.168 49.0227 267.039C48.9946 265.258 48.5259 263.514 47.6608 261.971C47.6671 261.772 47.6544 261.573 47.6232 261.377C47.5774 261.004 47.4558 260.645 47.2662 260.323C47.0766 260.002 46.8232 259.724 46.5226 259.51C46.2219 259.295 45.8807 259.148 45.521 259.077C45.1613 259.007 44.7913 259.015 44.4349 259.101C42.301 259.688 40.9453 263.531 40.8449 265.549C40.8449 265.672 40.9202 266.974 40.9767 267.793C40.87 267.316 40.7696 266.852 40.6566 266.362C40.4307 265.395 40.1797 264.427 39.9161 263.402C39.7717 262.906 39.6211 262.409 39.4767 261.9C39.3324 261.39 39.1315 260.887 38.9621 260.372C38.5353 259.185 38.052 258.005 37.5437 256.832C38.3659 256.625 41.3094 255.864 42.4579 254.936C43.6064 254.007 44.8617 252.511 44.8554 250.912C44.8644 250.536 44.7965 250.163 44.6561 249.815C44.5157 249.468 44.3059 249.155 44.0404 248.896C43.7748 248.637 43.4593 248.438 43.1143 248.312C42.7693 248.187 42.4024 248.136 42.0374 248.165C39.8407 248.41 37.9391 252.002 37.5374 253.969C37.5374 254.091 37.3868 255.548 37.3303 256.348C37.0165 255.645 36.7027 254.936 36.3638 254.233C35.3847 252.208 34.3303 250.184 33.2885 248.165C32.9684 247.521 32.6609 246.927 32.347 246.302C32.642 246.237 36.1127 245.406 37.4433 244.368C38.6106 243.445 39.847 241.943 39.8345 240.344C39.8444 239.968 39.7772 239.593 39.6372 239.246C39.4971 238.898 39.2874 238.584 39.0216 238.325C38.7558 238.066 38.4399 237.867 38.0944 237.742C37.749 237.616 37.3817 237.567 37.0165 237.597C34.8261 237.842 32.9182 241.434 32.5228 243.4C32.4914 243.549 32.3094 245.644 32.2906 246.179C31.5939 244.812 30.9224 243.445 30.3073 242.066C29.4683 240.212 28.7492 238.304 28.1546 236.353C28.2927 236.32 31.9203 235.469 33.2822 234.418C34.4495 233.496 35.6859 231.994 35.6797 230.395C35.6897 230.018 35.6224 229.643 35.4819 229.295C35.3415 228.946 35.1312 228.632 34.8647 228.373C34.5982 228.114 34.2815 227.915 33.9353 227.79C33.5891 227.665 33.2211 227.617 32.8554 227.648C30.665 227.893 28.7634 231.478 28.3617 233.451C28.3617 233.606 28.1358 235.856 28.1295 236.269C28.0918 236.159 28.0479 236.043 28.0165 235.927C27.4693 233.956 27.0954 231.938 26.8994 229.898C26.7738 228.77 26.7174 227.687 26.686 226.635C27.3826 226.545 30.5521 226.113 31.8638 225.294C33.1755 224.475 34.5186 223.16 34.6755 221.567C34.7259 221.194 34.6992 220.814 34.5971 220.452C34.495 220.09 34.3198 219.754 34.083 219.467C33.8461 219.179 33.5529 218.946 33.2224 218.782C32.892 218.618 32.5317 218.528 32.165 218.517C29.9621 218.517 27.6839 221.864 27.0814 223.792C27.0437 223.895 26.824 224.998 26.6734 225.804C26.6734 225.327 26.6734 224.836 26.6734 224.379C26.6734 222.663 26.7801 221.097 26.8868 219.71C26.9496 218.917 27.0249 218.208 27.1002 217.537C27.7278 217.086 30.2885 215.242 31.0793 213.914C31.8701 212.585 32.4663 210.76 31.8952 209.277C31.7707 208.917 31.5727 208.588 31.3145 208.313C31.0562 208.038 30.7437 207.822 30.3978 207.681C30.0519 207.54 29.6806 207.477 29.3089 207.495C28.9371 207.513 28.5736 207.613 28.2425 207.788C26.278 208.832 25.732 212.882 26.0897 214.881C26.0897 215.055 26.8554 217.699 26.8931 217.679L26.9307 217.647C26.8429 218.292 26.7613 218.975 26.6797 219.723C26.5479 221.116 26.4035 222.689 26.3659 224.404C26.3028 226.258 26.3468 228.114 26.4977 229.963C26.6525 232.033 26.9865 234.085 27.4956 236.095C27.4956 236.095 27.4956 236.146 27.4956 236.166C27.1504 235.611 26.1274 234.076 26.0333 233.967C24.778 232.439 21.3826 230.259 19.3492 231.143C19.0161 231.3 18.7189 231.527 18.4769 231.809C18.235 232.092 18.0536 232.424 17.9447 232.783C17.8358 233.143 17.8017 233.522 17.8447 233.896C17.8877 234.27 18.0069 234.63 18.1944 234.953C18.9852 236.353 20.7801 237.049 22.2362 237.281Z" fill="#1B98E0"/>
<path d="M60.0687 226.616C60.1 226.616 60.7716 223.973 60.7967 223.805C61.0666 221.8 60.4452 217.763 58.4557 216.777C58.1223 216.621 57.7606 216.54 57.3945 216.538C57.0284 216.537 56.6661 216.614 56.3313 216.767C55.9965 216.919 55.6967 217.142 55.4518 217.422C55.2068 217.701 55.022 218.031 54.9097 218.389C54.3762 219.891 55.0478 221.742 55.8511 223.005C56.7862 224.495 60.0624 226.616 60.0687 226.616Z" fill="#1B98E0"/>
<path d="M69.2128 244.742C70.217 245.193 72.6772 245.135 72.6772 245.135C72.6772 245.135 72.15 243.478 72.1061 243.381C71.5663 242.22 69.8592 240.305 68.4722 240.499C68.244 240.54 68.0267 240.629 67.8342 240.761C67.6416 240.894 67.4781 241.066 67.354 241.267C67.2299 241.467 67.1481 241.693 67.1137 241.928C67.0793 242.163 67.0931 242.403 67.1542 242.633C67.3739 243.62 68.3592 244.374 69.2128 244.742Z" fill="#1B98E0"/>
<path d="M70.0601 252.054C71.1019 252.208 73.2985 251.557 73.4743 251.506C73.834 252.795 74.2786 254.057 74.8048 255.284C75.1061 256 75.4324 256.716 75.7651 257.425C75.5642 257.122 75.3822 256.857 75.3571 256.825C74.5349 255.852 72.4011 254.465 71.1144 255.033C70.9023 255.131 70.7129 255.275 70.5587 255.454C70.4044 255.633 70.2888 255.844 70.2195 256.072C70.1501 256.301 70.1286 256.542 70.1563 256.779C70.184 257.017 70.2603 257.246 70.3801 257.451C70.8509 258.34 71.9931 258.779 72.8906 258.914C73.7881 259.05 75.7086 258.54 76.2044 258.392L76.5998 259.211C77.2274 260.501 77.855 261.79 78.4826 263.08C78.6897 263.531 78.878 263.989 79.0663 264.44C78.8906 264.176 78.74 263.95 78.7086 263.918C77.8927 262.951 75.7588 261.564 74.4659 262.125C74.2545 262.225 74.0658 262.369 73.9121 262.548C73.7584 262.728 73.6432 262.938 73.5739 263.166C73.5047 263.394 73.4829 263.635 73.5101 263.872C73.5372 264.109 73.6127 264.338 73.7316 264.543C74.2086 265.433 75.3508 265.878 76.242 266.014C77.3359 266.021 78.4242 265.854 79.468 265.517C79.65 265.988 79.832 266.459 79.9826 266.923C80.083 267.245 80.2023 267.568 80.2839 267.877C80.3655 268.187 80.4533 268.522 80.5412 268.831C80.6856 269.444 80.8362 270.082 80.9617 270.682C81.0558 271.101 81.1312 271.501 81.2127 271.907C81.0119 271.449 80.5851 270.572 80.5538 270.501C79.8885 269.412 77.9805 267.716 76.6249 268.071C76.4009 268.136 76.1927 268.248 76.014 268.401C75.8352 268.555 75.6899 268.745 75.5874 268.96C75.485 269.174 75.4278 269.409 75.4194 269.648C75.4111 269.887 75.4519 270.125 75.5391 270.347C75.8843 271.301 76.945 271.914 77.8362 272.191C78.7274 272.468 80.9743 272.191 81.2692 272.191C81.401 272.836 81.5203 273.513 81.6207 274.125C81.8592 275.486 82.0349 276.704 82.1667 277.736H83.083C82.9261 276.666 82.7127 275.395 82.4554 273.964C82.3299 273.319 82.173 272.565 82.0098 271.823C82.668 271.557 83.3094 271.249 83.9303 270.901C84.7781 271.646 85.7222 272.267 86.7357 272.745C86.4847 273.39 86.2399 273.99 85.9952 274.564C85.4868 275.763 85.0035 276.827 84.5768 277.736H85.5684C85.9387 276.898 86.3404 275.95 86.7609 274.893C87.0119 274.248 87.2755 273.564 87.5391 272.855C87.8027 272.913 89.9554 273.364 90.9596 273.132C91.8696 272.919 92.9742 272.391 93.3822 271.462C93.4854 271.248 93.5435 271.014 93.5526 270.775C93.5618 270.536 93.5219 270.297 93.4354 270.075C93.349 269.853 93.2179 269.652 93.0509 269.486C92.8838 269.319 92.6845 269.191 92.4659 269.109C91.1416 268.651 89.1144 270.198 88.3738 271.237C88.3299 271.295 87.9282 272.01 87.6772 272.468L87.9973 271.598C88.2106 271.004 88.3989 270.405 88.6249 269.76C88.719 269.444 88.8069 269.115 88.901 268.812C88.9951 268.509 89.0705 268.167 89.1521 267.813C89.3341 267.032 89.4784 266.233 89.6102 265.427C90.6458 265.856 91.7408 266.115 92.855 266.194C93.7901 266.13 94.9575 265.775 95.4972 264.905C95.6309 264.709 95.7228 264.487 95.7671 264.253C95.8115 264.018 95.8071 263.777 95.7544 263.545C95.7017 263.312 95.6017 263.094 95.4612 262.903C95.3206 262.713 95.1425 262.556 94.9387 262.441C93.6834 261.797 91.4617 262.996 90.5767 263.899C90.5203 263.957 89.9491 264.679 89.6542 265.085C89.7295 264.601 89.8048 264.111 89.8675 263.621C90.037 262.196 90.1688 260.746 90.3069 259.301L90.4387 257.973C90.6207 258.044 92.7483 258.856 93.7964 258.785C94.7315 258.714 95.8989 258.366 96.4387 257.496C96.5724 257.3 96.6644 257.077 96.7088 256.842C96.7532 256.608 96.7489 256.366 96.6962 256.133C96.6435 255.9 96.5435 255.681 96.4029 255.49C96.2623 255.299 96.0842 255.141 95.8801 255.026C94.6248 254.381 92.4031 255.581 91.5182 256.49C91.4554 256.554 90.6395 257.599 90.4449 257.876C90.5454 256.903 90.6583 255.942 90.8027 254.987C90.9885 253.705 91.2569 252.436 91.606 251.19C91.6939 251.222 93.9094 252.079 94.9826 252.002C95.9177 251.938 97.0851 251.583 97.6248 250.712C97.7585 250.517 97.8504 250.295 97.8948 250.061C97.9391 249.826 97.9347 249.585 97.882 249.352C97.8293 249.12 97.7294 248.901 97.5888 248.711C97.4482 248.521 97.2702 248.364 97.0663 248.249C95.811 247.604 93.5956 248.804 92.7044 249.707C92.6353 249.777 91.7629 250.899 91.6186 251.119C91.6186 251.048 91.6562 250.97 91.6751 250.899C92.0579 249.657 92.5495 248.453 93.1437 247.301C93.4575 246.657 93.7713 246.07 94.1416 245.496C94.537 245.702 96.3633 246.611 97.3424 246.65C98.3215 246.689 99.47 246.476 100.098 245.689C100.251 245.51 100.366 245.3 100.435 245.072C100.504 244.844 100.526 244.603 100.499 244.366C100.472 244.129 100.396 243.9 100.277 243.695C100.158 243.49 99.9988 243.312 99.8089 243.175C98.6416 242.375 96.2943 243.336 95.3152 244.135C95.265 244.181 94.7692 244.684 94.4177 245.058C94.5746 244.8 94.7378 244.535 94.8947 244.29C95.4784 243.387 96.0684 242.594 96.5956 241.898C96.9031 241.505 97.1855 241.15 97.4491 240.828C97.9449 240.828 99.9219 240.757 100.788 240.338C101.654 239.918 102.602 239.17 102.809 238.177C102.865 237.945 102.872 237.704 102.831 237.468C102.79 237.233 102.701 237.009 102.571 236.812C102.44 236.614 102.27 236.447 102.072 236.321C101.874 236.195 101.653 236.114 101.422 236.082C100.029 235.927 98.3717 237.887 97.8633 239.061C97.8194 239.164 97.311 240.828 97.3361 240.828H97.3675C97.1039 241.137 96.8215 241.472 96.5265 241.84C95.9805 242.523 95.3717 243.304 94.7692 244.2C94.1022 245.158 93.4923 246.158 92.9428 247.192C92.3187 248.343 91.7957 249.549 91.3801 250.796C91.3809 250.811 91.3809 250.826 91.3801 250.841C91.3801 250.422 91.3801 249.242 91.3801 249.152C91.2232 247.862 90.1813 245.515 88.8069 245.251C88.579 245.219 88.3472 245.237 88.1262 245.302C87.9052 245.367 87.6997 245.479 87.5228 245.63C87.3459 245.78 87.2013 245.967 87.0982 246.179C86.9952 246.39 86.9359 246.621 86.924 246.857C86.8487 247.869 87.5516 248.881 88.2546 249.52C88.9575 250.158 91.2232 250.938 91.3926 250.99C91.0012 252.27 90.693 253.575 90.47 254.897C90.332 255.671 90.2253 256.451 90.1249 257.231C90.1249 256.87 90.1249 256.541 90.1249 256.496C89.9617 255.207 88.9198 252.86 87.5454 252.627C87.3173 252.595 87.0852 252.612 86.8638 252.676C86.6424 252.741 86.4365 252.853 86.2594 253.004C86.0822 253.155 85.9376 253.342 85.8349 253.554C85.7321 253.765 85.6734 253.997 85.6625 254.233C85.5809 255.239 86.2901 256.258 86.9868 256.896C87.925 257.535 88.954 258.02 90.037 258.334L89.924 259.237C89.7546 260.681 89.5977 262.125 89.3968 263.531C89.3215 264.028 89.2336 264.518 89.1521 265.001C89.1521 264.679 89.1521 264.408 89.1521 264.356C88.9952 263.067 87.9533 260.72 86.5788 260.455C86.351 260.424 86.1192 260.441 85.8982 260.506C85.6772 260.572 85.4717 260.683 85.2948 260.834C85.1178 260.985 84.9733 261.172 84.8702 261.383C84.7672 261.594 84.7078 261.825 84.696 262.061C84.6144 263.073 85.3236 264.086 86.0265 264.724C86.9343 265.35 87.9317 265.826 88.9826 266.136C88.8822 266.633 88.7818 267.129 88.6562 267.606C88.5684 267.929 88.5056 268.251 88.3989 268.567L87.9282 269.521C87.7211 270.115 87.5077 270.734 87.3006 271.307C87.15 271.707 86.9993 272.088 86.8487 272.468C86.924 271.972 87.0558 271.004 87.0558 270.921C87.042 269.788 86.746 268.678 86.196 267.697C86.2053 267.57 86.2053 267.443 86.196 267.316C86.167 267.079 86.0898 266.851 85.9692 266.646C85.8486 266.441 85.6874 266.265 85.4962 266.129C85.3049 265.993 85.0879 265.899 84.8592 265.855C84.6305 265.811 84.3952 265.816 84.1688 265.872C82.8194 266.246 81.9596 268.683 81.8969 269.966C81.8969 270.044 81.9408 270.869 81.9784 271.391C81.9094 271.088 81.8466 270.792 81.7713 270.482C81.6332 269.837 81.4701 269.257 81.3069 268.599L81.0245 267.651C80.9366 267.329 80.8048 267.007 80.6981 266.678C80.4282 265.923 80.1207 265.175 79.7943 264.427C80.3215 264.298 82.173 263.783 82.9324 263.228C83.6918 262.674 84.4575 261.687 84.4512 260.649C84.4582 260.41 84.416 260.172 84.3273 259.951C84.2386 259.73 84.1055 259.531 83.9366 259.367C83.7677 259.202 83.5669 259.076 83.3473 258.997C83.1277 258.918 82.8944 258.888 82.6625 258.908C81.2692 259.063 80.0579 261.339 79.8069 262.596C79.8069 262.674 79.7128 263.602 79.6751 264.105C79.4743 263.66 79.2797 263.215 79.0475 262.764C78.4199 261.474 77.7546 260.185 77.0893 258.895L76.4931 257.715C76.6814 257.67 78.8969 257.141 79.7253 256.483C80.5538 255.826 81.2567 254.942 81.2504 253.904C81.2555 253.665 81.2118 253.428 81.1221 253.207C81.0323 252.987 80.8985 252.788 80.7294 252.624C80.5602 252.46 80.3594 252.334 80.14 252.255C79.9205 252.175 79.6873 252.144 79.4554 252.163C78.0684 252.318 76.8571 254.594 76.6061 255.852C76.6061 255.948 76.468 257.277 76.4554 257.618C76.0161 256.748 75.5893 255.877 75.2002 255.039C74.6682 253.863 74.2112 252.652 73.832 251.415C73.9199 251.415 76.2358 250.854 77.0893 250.177C77.8299 249.597 78.6144 248.643 78.6082 247.598C78.6152 247.359 78.5729 247.121 78.4843 246.9C78.3956 246.679 78.2624 246.48 78.0935 246.316C77.9246 246.151 77.7238 246.026 77.5042 245.946C77.2846 245.867 77.0513 245.837 76.8195 245.857C75.4261 246.012 74.2149 248.288 73.9638 249.545C73.9638 249.648 73.8195 251.074 73.8132 251.338C73.8132 251.267 73.763 251.196 73.7442 251.119C73.3964 249.869 73.1591 248.589 73.0349 247.295C72.9596 246.579 72.922 245.889 72.9032 245.219C73.3425 245.167 75.3571 244.89 76.1918 244.374C77.0266 243.858 77.8738 243.013 77.9743 242.001C78.0051 241.764 77.9873 241.524 77.922 241.294C77.8567 241.065 77.7453 240.853 77.5951 240.67C77.4449 240.488 77.2592 240.34 77.0499 240.236C76.8406 240.132 76.6125 240.075 76.3801 240.067C74.9805 240.067 73.537 242.195 73.1479 243.42C73.1479 243.484 72.991 244.181 72.8906 244.709C72.8906 244.406 72.8906 244.065 72.8906 243.807C72.8906 242.717 72.9596 241.717 73.0287 240.84C73.0663 240.338 73.1165 239.886 73.1667 239.461C73.5684 239.177 75.1877 238.003 75.6772 237.165C76.1667 236.327 76.5559 235.16 76.1981 234.218C76.1199 233.993 75.9964 233.787 75.8357 233.614C75.675 233.44 75.4807 233.304 75.2653 233.213C75.0499 233.121 74.8183 233.078 74.5855 233.084C74.3526 233.091 74.1237 233.148 73.9136 233.251C72.6584 233.896 72.3446 236.475 72.5517 237.765C72.5517 237.874 73.0349 239.557 73.0601 239.538C73.0036 239.944 72.9471 240.376 72.8969 240.828C72.8153 241.711 72.7274 242.71 72.7023 243.8C72.6591 244.976 72.6864 246.154 72.7839 247.327C72.8812 248.633 73.0912 249.928 73.4115 251.196C73.4152 251.211 73.4152 251.226 73.4115 251.241C73.1919 250.887 72.5454 249.913 72.4889 249.842C71.6667 248.868 69.5329 247.488 68.2463 248.049C68.0341 248.148 67.8447 248.292 67.6905 248.471C67.5362 248.65 67.4206 248.861 67.3513 249.089C67.2819 249.318 67.2604 249.558 67.2881 249.796C67.3158 250.033 67.3921 250.262 67.5119 250.467C68.0015 251.467 69.1375 251.912 70.0601 252.054Z" fill="#1B98E0"/>
<path d="M94.0728 245.296C94.0728 245.296 94.5184 243.613 94.5372 243.504C94.7066 242.214 94.3112 239.673 93.0497 239.048C92.8377 238.95 92.608 238.899 92.3756 238.899C92.1432 238.898 91.9133 238.948 91.7008 239.045C91.4883 239.141 91.298 239.283 91.1422 239.46C90.9865 239.637 90.8687 239.846 90.7966 240.073C90.4577 241.027 90.8845 242.195 91.4242 243.001C91.9891 243.948 94.0728 245.296 94.0728 245.296Z" fill="#1B98E0"/>
<path d="M160.669 34.6584C159.784 33.7169 158.246 32.8465 155.579 32.782C149.585 32.6272 151.185 36.9861 149.585 38.0371C147.985 39.0881 147.533 37.4374 145.926 38.4885C144.319 39.5395 145.047 41.6416 143.736 41.9446C142.424 42.2477 140.66 40.5905 139.054 41.6416C137.447 42.6926 137.447 43.576 136.713 43.576C135.978 43.576 134.522 42.9763 133.644 43.576C132.765 44.1756 131.761 44.9301 131.761 44.9301H147.451" stroke="#263238" stroke-linecap="round" stroke-linejoin="round"/>
<path d="M162.288 37.3472L161.836 37.1345C161.766 36.5748 161.582 36.0365 161.296 35.5547" stroke="#263238" stroke-linecap="round" stroke-linejoin="round"/>
<path d="M149.422 44.9494H168.708C168.708 44.9494 169.148 43.5953 167.535 42.6926C165.922 41.7899 165.2 42.5443 164.61 41.7963C164.02 41.0483 165.771 39.5008 163.054 37.7792" stroke="#263238" stroke-linecap="round" stroke-linejoin="round"/>
<path d="M85.0724 75.7453C84.1875 74.7974 82.6498 73.9334 79.9825 73.8625C73.9888 73.7142 75.5892 78.073 73.9888 79.1241C72.3884 80.1751 71.9428 78.5179 70.3298 79.5754C68.7168 80.6329 69.4574 82.7285 68.1394 83.0251C66.8214 83.3217 65.0704 81.6775 63.4574 82.7285C61.8445 83.7795 61.8507 84.6629 61.1227 84.6629C60.3947 84.6629 58.926 84.0568 58.0474 84.6629C57.1687 85.269 56.1646 86.0105 56.1646 86.0105H71.8549" stroke="#263238" stroke-linecap="round" stroke-linejoin="round"/>
<path d="M86.7231 78.434L86.2712 78.2212C86.2018 77.6594 86.0178 77.1189 85.7314 76.635" stroke="#263238" stroke-linecap="round" stroke-linejoin="round"/>
<path d="M73.8633 86.0298H93.1436C93.1436 86.0298 93.5829 84.6822 91.9762 83.7795C90.3695 82.8767 89.6352 83.6312 89.0515 82.8767C88.4678 82.1223 90.2126 80.5877 87.4888 78.8596" stroke="#263238" stroke-linecap="round" stroke-linejoin="round"/>
<path d="M243.783 44.9494H282.018C282.018 44.9494 283.323 40.9323 278.547 38.2564C273.771 35.5804 271.599 37.8115 269.861 35.5805C268.122 33.3494 274.637 27.5462 261.608 21.7494C261.608 21.7494 260.742 9.25315 242.936 8.80823C235.248 8.61479 231.771 10.9167 229.919 13.8441" stroke="#263238" stroke-linecap="round" stroke-linejoin="round"/>
<path d="M232.116 44.9495H238.48" stroke="#263238" stroke-linecap="round" stroke-linejoin="round"/>
<path d="M227.597 19.9827C227.051 21.9171 226.468 23.5226 225.131 24.3996C220.355 27.5204 219.049 22.6135 214.273 25.7343C209.497 28.8552 211.668 35.1291 207.74 36.0254C203.811 36.9216 198.62 32.0082 193.844 35.1291C189.068 38.2499 189.062 40.9323 186.89 40.9323C184.719 40.9323 180.376 39.1462 177.771 40.9323C175.166 42.7184 172.123 44.9494 172.123 44.9494H220.982" stroke="#263238" stroke-linecap="round" stroke-linejoin="round"/>
<path d="M269.924 190.926L255.081 245.735L263.101 278.703" stroke="#263238" stroke-width="5" stroke-linecap="round" stroke-linejoin="round"/>
<path d="M255.08 245.735H214.166L206.949 278.703" stroke="#263238" stroke-width="5" stroke-linecap="round" stroke-linejoin="round"/>
<path d="M133.543 190.926L118.706 245.735L126.727 278.703" stroke="#263238" stroke-width="5" stroke-linecap="round" stroke-linejoin="round"/>
<path d="M118.706 245.735H77.7922L70.5684 278.703" stroke="#263238" stroke-width="5" stroke-linecap="round" stroke-linejoin="round"/>
<path d="M127.273 195.234H275.786L277.788 188.051H129.269L127.273 195.234Z" fill="white" stroke="#263238" stroke-linecap="round" stroke-linejoin="round"/>
<path d="M124.173 206.357H272.685L274.687 199.18H126.169L124.173 206.357Z" fill="white" stroke="#263238" stroke-linecap="round" stroke-linejoin="round"/>
<path d="M121.072 217.486H269.584L271.587 210.303H123.068L121.072 217.486Z" fill="white" stroke="#263238" stroke-linecap="round" stroke-linejoin="round"/>
<path d="M117.972 228.609H266.484L268.486 221.432H119.968L117.972 228.609Z" fill="white" stroke="#263238" stroke-linecap="round" stroke-linejoin="round"/>
<path d="M114.865 239.738H263.384L265.386 232.561H116.867L114.865 239.738Z" fill="white" stroke="#263238" stroke-linecap="round" stroke-linejoin="round"/>
<path d="M124.926 195.234H273.438L275.44 188.051H126.928L124.926 195.234Z" fill="white" stroke="#263238" stroke-linecap="round" stroke-linejoin="round"/>
<path d="M121.826 206.357H270.338L272.34 199.18H123.828L121.826 206.357Z" fill="white" stroke="#263238" stroke-linecap="round" stroke-linejoin="round"/>
<path d="M118.725 217.486H267.237L269.239 210.303H120.727L118.725 217.486Z" fill="white" stroke="#263238" stroke-linecap="round" stroke-linejoin="round"/>
<path d="M115.625 228.609H264.137L266.139 221.432H117.627L115.625 228.609Z" fill="white" stroke="#263238" stroke-linecap="round" stroke-linejoin="round"/>
<path d="M112.524 239.738H261.037L263.039 232.561H114.527L112.524 239.738Z" fill="white" stroke="#263238" stroke-linecap="round" stroke-linejoin="round"/>
<path d="M261.131 243.265H74.5791V247.385H261.131V243.265Z" fill="white" stroke="#263238" stroke-linecap="round" stroke-linejoin="round"/>
<path d="M261.137 243.265H213.853V247.385H261.137V243.265Z" fill="white" stroke="#263238" stroke-linecap="round" stroke-linejoin="round"/>
<path d="M61.7129 271.888H51.2568L52.8259 41.2869H60.1438L61.7129 271.888Z" fill="#263238" stroke="#263238" stroke-linecap="round" stroke-linejoin="round"/>
<path d="M64.6435 39.9651H47.654L45.5327 14.3278H66.7711L64.6435 39.9651Z" fill="#263238" stroke="#263238" stroke-linecap="round" stroke-linejoin="round"/>
<path d="M62.7483 39.9651H49.5559L47.9053 14.3278H64.399L62.7483 39.9651Z" fill="white" stroke="#263238" stroke-linecap="round" stroke-linejoin="round"/>
<path d="M68.5599 11.9613H43.8696V16.2363H68.5599V11.9613Z" fill="#263238" stroke="#263238" stroke-linecap="round" stroke-linejoin="round"/>
<path d="M66.6145 37.186H45.8091V42.4605H66.6145V37.186Z" fill="#263238" stroke="#263238" stroke-linecap="round" stroke-linejoin="round"/>
<path d="M64.951 9.11133H47.1958V11.9614H64.951V9.11133Z" fill="#263238" stroke="#263238" stroke-linecap="round" stroke-linejoin="round"/>
<path d="M57.2065 4.86206H54.1562V9.1371H57.2065V4.86206Z" fill="#263238" stroke="#263238" stroke-linecap="round" stroke-linejoin="round"/>
<path d="M65.8991 255.581H47.4912V278.542H65.8991V255.581Z" fill="#263238" stroke="#263238" stroke-linecap="round" stroke-linejoin="round"/>
<path d="M290.835 278.897H297.771" stroke="#263238" stroke-linecap="round" stroke-linejoin="round"/>
<path d="M12.4136 278.897H284.471" stroke="#263238" stroke-linecap="round" stroke-linejoin="round"/>
<path d="M182.905 133.707L185.541 145.384C185.541 145.384 182.083 149.44 178.958 147.918C175.832 146.396 174.671 137.936 174.671 137.936L182.905 133.707Z" fill="white" stroke="#263238" stroke-linecap="round" stroke-linejoin="round"/>
<path d="M174.884 104.787C176.748 106.458 177.999 108.733 178.43 111.235C179.02 115.278 187.92 142.256 187.92 142.256C184.676 141.712 181.352 141.997 178.242 143.088C173.522 144.913 168.652 140.09 168.652 140.09L168.407 108.224" fill="#1B98E0"/>
<path d="M174.884 104.787C176.748 106.458 177.999 108.733 178.43 111.235C179.02 115.278 187.92 142.256 187.92 142.256C184.676 141.712 181.352 141.997 178.242 143.088C173.522 144.913 168.652 140.09 168.652 140.09L168.407 108.224" stroke="#263238" stroke-linecap="round" stroke-linejoin="round"/>
<path d="M174.872 129.889L177.244 117.703" stroke="#263238" stroke-linecap="round" stroke-linejoin="round"/>
<path d="M118.619 139.142H118.663C121.236 129.702 126.464 113.827 127.449 110.423C128.824 105.774 131.184 104.561 131.184 104.561L134.723 127.194L133.349 130.225C133.349 130.225 129.527 141.148 126.627 146.545L134.56 163.774L137.315 169.835L133.776 175.09C133.776 175.09 117.646 149.427 116.83 147.608C116.014 145.79 118.619 139.142 118.619 139.142Z" fill="white" stroke="#263238" stroke-linecap="round" stroke-linejoin="round"/>
<path d="M132.2 104.181C130.209 104.795 128.52 106.167 127.481 108.017C125.51 111.241 115.876 143.791 115.876 143.791C117.912 145.347 120.278 146.386 122.78 146.822C124.79 147.199 126.844 147.269 128.874 147.028L134.579 131.669" fill="#1B98E0"/>
<path d="M132.2 104.181C130.209 104.795 128.52 106.167 127.481 108.017C125.51 111.241 115.876 143.791 115.876 143.791C117.912 145.347 120.278 146.386 122.78 146.822C124.79 147.199 126.844 147.269 128.874 147.028L134.579 131.669" stroke="#263238" stroke-linecap="round" stroke-linejoin="round"/>
<path d="M128.604 120.14L133.349 133.951L126.822 125.621" stroke="#263238" stroke-linecap="round" stroke-linejoin="round"/>
<path d="M177.866 274.409C177.866 274.409 177.866 275.234 182.886 279.567C187.907 283.9 188.88 285.113 187.481 286.544C186.081 287.975 179.29 285.312 177.087 283.875C174.884 282.437 175.889 282.437 173.29 281.205C170.692 279.973 171.891 275.666 172.292 274.634C172.694 273.603 177.866 274.409 177.866 274.409Z" fill="white" stroke="#263238" stroke-linecap="round" stroke-linejoin="round"/>
<path d="M129.527 273.48C129.527 273.48 129.527 274.299 124.506 278.639C119.485 282.978 118.506 284.184 119.905 285.622C121.305 287.06 128.102 284.39 130.299 282.952C132.495 281.515 131.504 281.515 134.102 280.283C136.7 279.051 135.495 274.738 135.1 273.712C134.705 272.687 129.527 273.48 129.527 273.48Z" fill="white" stroke="#263238" stroke-linecap="round" stroke-linejoin="round"/>
<path d="M132.595 196.62C131.968 189.707 133.38 176.147 133.38 174.509C133.38 172.872 136.399 166.185 137.271 164.315L137.359 162.149C137.359 162.149 168.451 160.943 172.556 159.44C172.556 159.44 177.357 176.773 177.94 193.048C178.524 209.322 181.173 229.215 180.583 240.666C180.112 249.835 179.698 268.115 179.328 274.254C179.289 274.957 179.027 275.627 178.583 276.162C178.139 276.698 177.536 277.069 176.867 277.22L176.146 277.394C175.713 277.495 175.265 277.501 174.829 277.413C174.394 277.325 173.982 277.145 173.619 276.883C173.256 276.621 172.95 276.284 172.722 275.893C172.493 275.503 172.347 275.067 172.292 274.615C170.848 262.699 165.52 222.696 163.298 215.351C160.662 206.608 155.233 182.95 155.233 182.95C155.233 182.95 142.763 241.266 141.3 249.107C139.838 256.948 135.137 274.725 135.137 274.725C133.911 275.202 132.627 275.506 131.321 275.627C130.231 275.577 129.152 275.375 128.114 275.028L132.595 196.62Z" fill="#263238" stroke="#263238" stroke-linecap="round" stroke-linejoin="round"/>
<path d="M154.499 98.6485C154.499 98.6485 162.087 100.203 167.208 101.763C172.33 103.323 175.731 104.297 175.731 106.051C175.731 107.805 173.459 160.214 173.459 160.214C173.459 160.214 173.271 162.362 168.715 162.942C164.158 163.522 140.083 164.309 138.589 163.922C137.095 163.535 136.505 161.988 136.317 159.634C136.129 157.28 130.248 107.611 130.625 105.277C131.001 102.943 149.591 99.4287 150.156 99.2353C151.525 98.6366 153.026 98.4337 154.499 98.6485Z" fill="#1B98E0" stroke="#263238" stroke-linecap="round" stroke-linejoin="round"/>
<path d="M152.528 113.234C157.114 113.234 160.832 110.05 160.832 106.122C160.832 102.194 157.114 99.0095 152.528 99.0095C147.943 99.0095 144.225 102.194 144.225 106.122C144.225 110.05 147.943 113.234 152.528 113.234Z" fill="#1B98E0" stroke="#263238" stroke-linecap="round" stroke-linejoin="round"/>
<path d="M174.169 128.774C174.169 128.774 166.317 146.789 155.886 155.991" stroke="#263238" stroke-linecap="round" stroke-linejoin="round"/>
<path d="M144.213 160.55C143.436 161.172 142.594 161.702 141.702 162.129" stroke="#263238" stroke-linecap="round" stroke-linejoin="round"/>
<path d="M158.497 144.488C158.497 144.488 151.731 153.837 145.945 159.079" stroke="#263238" stroke-linecap="round" stroke-linejoin="round"/>
<path d="M159.884 85.2431C159.884 85.2431 161.641 80.7295 162.514 84.3469C163.386 87.9642 160.323 92.452 158.572 91.0979" fill="white"/>
<path d="M159.884 85.2431C159.884 85.2431 161.641 80.7295 162.514 84.3469C163.386 87.9642 160.323 92.452 158.572 91.0979" stroke="#263238" stroke-linecap="round" stroke-linejoin="round"/>
<path d="M141.916 86.3972C141.916 86.3972 138.194 83.9212 138.414 87.3C138.633 90.6787 141.916 94.5024 143.014 92.4584" fill="white"/>
<path d="M141.916 86.3972C141.916 86.3972 138.194 83.9212 138.414 87.3C138.633 90.6787 141.916 94.5024 143.014 92.4584" stroke="#263238" stroke-linecap="round" stroke-linejoin="round"/>
<path d="M158.572 91.0979L158.353 105.058C158.314 105.843 158.124 106.613 157.794 107.322C157.464 108.032 157 108.667 156.429 109.191C155.858 109.714 155.191 110.116 154.468 110.373C153.744 110.63 152.978 110.737 152.215 110.687C146.302 110.687 146.522 103.704 146.522 103.704L145.204 92.452C145.204 92.452 154.625 93.5739 158.572 91.0979Z" fill="white" stroke="#263238" stroke-linecap="round" stroke-linejoin="round"/>
<path d="M152.541 102.769C154.361 102.427 156.652 100.228 158.434 98.1972L158.516 92.884L154.876 90.6272C152.809 90.9435 150.718 91.0579 148.631 90.9689L145.606 93.9479L146.183 98.8871C147.765 100.751 150.338 103.162 152.541 102.769Z" fill="#263238"/>
<path d="M140.341 83.1732C140.341 83.1732 137.711 74.8423 144.734 69.8902C151.757 64.9382 159.169 71.2379 160.073 77.5441C160.976 83.8502 160.292 92.1746 157.004 96.8881C153.715 101.602 151.675 101.956 148.023 99.1385C144.37 96.3207 140.585 88.5573 140.341 83.1732Z" fill="white" stroke="#263238" stroke-linecap="round" stroke-linejoin="round"/>
<path d="M144.558 87.7319C144.558 87.7319 146.046 89.0215 148.487 87.7319" stroke="#263238" stroke-linecap="round" stroke-linejoin="round"/>
<path d="M152.83 87.3193C152.83 87.3193 156.087 88.4348 157.443 86.6229" stroke="#263238" stroke-linecap="round" stroke-linejoin="round"/>
<path d="M149.71 92.7551C149.71 92.7551 150.928 93.7287 151.744 93.4515C152.013 93.3136 152.25 93.1169 152.437 92.8752C152.625 92.6335 152.759 92.3527 152.83 92.0522" stroke="#263238" stroke-linecap="round" stroke-linejoin="round"/>
<path d="M150 95.5406C150.63 95.8421 151.34 95.9234 152.02 95.772C152.699 95.6207 153.312 95.2451 153.765 94.7024" stroke="#263238" stroke-linecap="round" stroke-linejoin="round"/>
<path d="M144.012 85.5075C144.012 85.5075 146.591 84.1147 148.625 84.8111" stroke="#263238" stroke-linecap="round" stroke-linejoin="round"/>
<path d="M152.014 84.6692C152.014 84.6692 154.186 82.8573 156.495 83.9728" stroke="#263238" stroke-linecap="round" stroke-linejoin="round"/>
<path d="M142.048 79.8267C142.048 79.8267 142.889 82.6316 142.675 83.6955C142.462 84.7594 143.723 87.79 141.834 87.5643C139.945 87.3386 139.104 79.8267 139.104 79.8267H142.048Z" fill="#263238" stroke="#263238" stroke-linecap="round" stroke-linejoin="round"/>
<path d="M160.091 84.1404C160.091 84.1404 158.416 85.6493 158.416 83.9212C158.416 82.1931 159.671 81.342 158.623 80.0524C157.575 78.7628 155.485 77.8923 155.485 75.7386V72.0762C155.485 72.0762 151.091 76.5898 147.326 78.7563C143.56 80.9229 139.794 82.206 136.838 81.1292C133.882 80.0524 137.886 76.1707 137.886 76.1707C137.886 76.1707 133.493 78.5435 133.493 74.4426C133.493 70.3416 140.836 64.964 147.552 64.964C154.267 64.964 156.571 69.4776 156.571 69.4776C156.571 69.4776 160.556 69.4776 161.19 73.1401C161.824 76.8026 160.091 84.1404 160.091 84.1404Z" fill="#263238" stroke="#263238" stroke-linecap="round" stroke-linejoin="round"/>
<path d="M150.733 114.562L153.338 133.126L161.924 132.217L160.104 113.041L150.733 114.562Z" fill="#263238" stroke="#263238" stroke-linecap="round" stroke-linejoin="round"/>
<path d="M165.119 125.247L163.801 122.197L160.838 120.172L161.165 122.197L162.319 124.905L157.217 124.06L152.767 123.893C152.767 123.893 152.271 124.905 152.767 125.079C153.263 125.253 156.533 126.601 156.533 126.601L151.757 127.104C151.757 127.104 151.098 128.458 151.757 128.799C152.416 129.141 153.564 132.185 155.378 132.668C157.192 133.152 163.807 131.675 163.807 131.675C163.807 131.675 174.351 151.135 176.491 152.657C178.631 154.179 182.585 153.334 183.57 152.825C184.556 152.315 186.388 149.639 186.206 146.564C186.125 145.216 166.28 127.955 166.28 127.955L165.119 125.247Z" fill="white" stroke="#263238" stroke-linecap="round" stroke-linejoin="round"/>
<path d="M174.721 116.432L192.815 109.249V95.1409C192.816 94.2419 193.165 93.3802 193.784 92.7445C194.402 92.1089 195.241 91.751 196.116 91.7493H236.239C237.114 91.751 237.953 92.1089 238.572 92.7445C239.191 93.3802 239.539 94.2419 239.541 95.1409V117.993C239.539 118.892 239.191 119.753 238.572 120.389C237.953 121.025 237.114 121.383 236.239 121.384H196.116C195.241 121.383 194.402 121.025 193.784 120.389C193.165 119.753 192.816 118.892 192.815 117.993V114.504L174.721 116.432Z" fill="#263238"/>
<path d="M173.321 116.426L190.725 107.102V92.9937C190.725 92.0942 191.073 91.2315 191.692 90.5954C192.311 89.9594 193.151 89.6021 194.026 89.6021H234.143C235.019 89.6021 235.859 89.9594 236.478 90.5954C237.097 91.2315 237.445 92.0942 237.445 92.9937V115.807C237.445 116.252 237.361 116.694 237.195 117.106C237.029 117.518 236.786 117.892 236.479 118.207C236.173 118.522 235.809 118.772 235.408 118.942C235.007 119.112 234.577 119.199 234.143 119.198H194.026C193.592 119.199 193.163 119.112 192.762 118.942C192.361 118.772 191.997 118.522 191.69 118.207C191.383 117.892 191.14 117.518 190.975 117.106C190.809 116.694 190.724 116.252 190.725 115.807V112.325L173.321 116.426Z" fill="white" stroke="#263238" stroke-linecap="round" stroke-linejoin="round"/>
<path d="M209.265 108.166C208.248 108.166 207.765 107.798 207.551 107.341V101.028C207.552 100.007 207.252 99.0103 206.692 98.1671C206.133 97.3239 205.338 96.6738 204.413 96.3016C204.439 96.1895 204.451 96.0749 204.451 95.9598C204.449 95.5351 204.284 95.1284 203.991 94.8287C203.698 94.529 203.302 94.3607 202.888 94.3607H202.487C202.282 94.3599 202.079 94.4006 201.889 94.4806C201.699 94.5606 201.527 94.6782 201.382 94.8268C201.237 94.9754 201.121 95.152 201.043 95.3464C200.964 95.5408 200.924 95.7493 200.924 95.9598C200.925 96.0617 200.935 96.1632 200.955 96.2629C200.003 96.6187 199.18 97.2667 198.599 98.1191C198.017 98.9715 197.705 99.987 197.704 101.028V107.341C197.491 107.798 197.007 108.166 195.991 108.166V109.926H201.012C201.012 109.926 201.012 109.997 201.012 110.029C201.012 110.469 201.182 110.89 201.484 111.201C201.787 111.512 202.197 111.687 202.625 111.687C203.052 111.687 203.463 111.512 203.765 111.201C204.068 110.89 204.238 110.469 204.238 110.029C204.238 109.997 204.238 109.959 204.238 109.926H209.258L209.265 108.166Z" fill="#263238"/>
<path d="M212.34 99.5062H230.334" stroke="#263238" stroke-linecap="round" stroke-linejoin="round"/>
<path d="M212.34 104.665H230.334" stroke="#263238" stroke-linecap="round" stroke-linejoin="round"/>
<path d="M212.34 109.823H230.334" stroke="#263238" stroke-linecap="round" stroke-linejoin="round"/>
<path d="M144.262 119.444L128.873 112.499V98.3908C128.872 97.4918 128.523 96.6301 127.905 95.9944C127.286 95.3587 126.447 95.0008 125.572 94.9991H91.3608C90.4853 94.9991 89.6456 95.3565 89.0265 95.9925C88.4074 96.6286 88.0596 97.4913 88.0596 98.3908V121.217C88.0596 122.116 88.4074 122.979 89.0265 123.615C89.6456 124.251 90.4853 124.608 91.3608 124.608H125.572C126.447 124.607 127.286 124.249 127.905 123.613C128.523 122.978 128.872 122.116 128.873 121.217V117.728L144.262 119.444Z" fill="#263238"/>
<path d="M144.978 119.818L127.574 110.494V96.3854C127.573 95.4864 127.224 94.6248 126.606 93.9891C125.987 93.3534 125.148 92.9955 124.273 92.9938H90.0556C89.1806 92.9955 88.3419 93.3534 87.7231 93.9891C87.1044 94.6248 86.7561 95.4864 86.7544 96.3854V119.199C86.7544 120.098 87.1022 120.961 87.7213 121.597C88.3404 122.233 89.1801 122.59 90.0556 122.59H124.267C125.142 122.59 125.982 122.233 126.601 121.597C127.22 120.961 127.568 120.098 127.568 119.199V115.71L144.978 119.818Z" fill="white" stroke="#263238" stroke-linecap="round" stroke-linejoin="round"/>
<path d="M106.562 118.276C112.364 118.276 117.068 113.444 117.068 107.482C117.068 101.521 112.364 96.6884 106.562 96.6884C100.759 96.6884 96.0557 101.521 96.0557 107.482C96.0557 113.444 100.759 118.276 106.562 118.276Z" fill="#1B98E0"/>
<path d="M104.679 112.976C104.663 112.666 104.709 112.355 104.813 112.064C104.918 111.772 105.079 111.505 105.287 111.28C105.495 111.054 105.746 110.874 106.024 110.752C106.302 110.629 106.601 110.566 106.904 110.566C107.206 110.566 107.506 110.629 107.784 110.752C108.062 110.874 108.312 111.054 108.521 111.28C108.729 111.505 108.89 111.772 108.995 112.064C109.099 112.355 109.145 112.666 109.129 112.976C109.145 113.278 109.098 113.58 108.991 113.862C108.885 114.144 108.721 114.399 108.51 114.611C108.3 114.823 108.048 114.986 107.772 115.09C107.495 115.194 107.201 115.236 106.907 115.214C106.605 115.229 106.304 115.179 106.022 115.068C105.74 114.957 105.483 114.787 105.269 114.569C105.073 114.357 104.92 114.107 104.819 113.833C104.717 113.56 104.67 113.269 104.679 112.976ZM108.947 100.97C108.947 101.331 108.947 101.86 108.947 102.55C108.947 103.24 108.903 103.988 108.853 104.794C108.802 105.6 108.746 106.393 108.671 107.199C108.595 108.005 108.501 108.695 108.388 109.281C108.304 109.343 108.211 109.391 108.112 109.423C107.983 109.475 107.851 109.516 107.717 109.546C107.579 109.546 107.44 109.597 107.302 109.617C107.164 109.636 107.039 109.617 106.932 109.617C106.545 109.628 106.159 109.553 105.802 109.397C105.648 109.319 105.515 109.202 105.416 109.056C105.317 108.911 105.256 108.742 105.237 108.566C105.138 108.014 105.073 107.456 105.043 106.896C104.986 106.154 104.936 105.342 104.886 104.465C104.836 103.588 104.811 102.73 104.786 101.886C104.761 101.041 104.748 100.293 104.748 99.6932C105.082 99.5101 105.436 99.3693 105.802 99.2741C106.186 99.1723 106.58 99.1203 106.976 99.1193C107.504 99.0845 108.027 99.2445 108.451 99.5707C108.63 99.7509 108.768 99.9702 108.854 100.212C108.939 100.455 108.971 100.713 108.947 100.97Z" fill="black"/>
</svg>
