<svg xmlns="http://www.w3.org/2000/svg" xmlns:xlink="http://www.w3.org/1999/xlink" width="500" zoomAndPan="magnify" viewBox="0 0 375 374.999991" height="500" preserveAspectRatio="xMidYMid meet" version="1.0"><defs><g/><clipPath id="id1"><path d="M 131.101562 105.273438 L 239 105.273438 L 239 213 L 131.101562 213 Z M 131.101562 105.273438 " clip-rule="nonzero"/></clipPath></defs><path fill="#2e72b8" d="M 173.167969 211.460938 L 205.714844 178.785156 C 216.757812 167.695312 216.757812 149.722656 205.714844 138.632812 L 222.765625 121.515625 C 243.566406 142.402344 243.566406 176.265625 222.765625 197.152344 C 209.3125 210.660156 190.445312 215.425781 173.167969 211.460938 Z M 173.167969 211.460938 " fill-opacity="1" fill-rule="nonzero"/><path fill="#2b4c9a" d="M 173.167969 211.457031 L 185.097656 199.480469 L 188.851562 195.710938 L 197.03125 211.460938 C 187.261719 212.875 182.347656 212.96875 173.167969 211.457031 Z M 173.167969 211.457031 " fill-opacity="1" fill-rule="nonzero"/><g clip-path="url(#id1)"><path fill="#1eb8d1" d="M 196.015625 170.378906 C 189.9375 176.429688 180.125 176.390625 174.097656 170.289062 C 168.070312 164.1875 168.109375 154.335938 174.1875 148.28125 C 180.261719 142.230469 190.074219 142.269531 196.105469 148.371094 C 202.128906 154.472656 202.089844 164.328125 196.015625 170.378906 Z M 237.019531 171.308594 C 240.972656 153.964844 236.222656 135.023438 222.765625 121.511719 C 211.664062 110.367188 196.878906 105.167969 182.34375 105.921875 C 171.894531 106.464844 167.007812 119.160156 174.410156 126.589844 L 174.707031 126.886719 C 177.054688 129.242188 180.277344 130.4375 183.59375 130.335938 C 191.125 130.097656 198.726562 132.863281 204.472656 138.632812 Z M 156.21875 157.820312 C 156.320312 154.488281 155.132812 151.25 152.785156 148.894531 L 152.488281 148.597656 C 145.085938 141.167969 132.441406 146.074219 131.902344 156.5625 C 131.152344 171.15625 136.328125 186 147.429688 197.148438 C 160.886719 210.65625 179.753906 215.425781 197.027344 211.457031 L 164.484375 178.78125 C 158.742188 173.011719 155.984375 165.378906 156.21875 157.820312 Z M 156.21875 157.820312 " fill-opacity="1" fill-rule="nonzero"/></g><g fill="#2b4c9a" fill-opacity="1"><g transform="translate(147.618072, 248.628353)"><g><path d="M 13.808594 -15.726562 L 13.808594 -19.496094 L 2.078125 -19.496094 L 2.078125 0 L 6.367188 0 L 6.367188 -7.863281 L 12.738281 -7.863281 L 12.738281 -11.632812 L 6.367188 -11.632812 L 6.367188 -15.726562 Z M 13.808594 -15.726562 "/></g></g></g><g fill="#2b4c9a" fill-opacity="1"><g transform="translate(161.231353, 248.628353)"><g><path d="M 4.0625 -15.175781 C 5.296875 -15.175781 6.335938 -16.214844 6.335938 -17.449219 C 6.335938 -18.714844 5.296875 -19.722656 4.0625 -19.722656 C 2.828125 -19.722656 1.789062 -18.714844 1.789062 -17.449219 C 1.789062 -16.214844 2.828125 -15.175781 4.0625 -15.175781 Z M 1.980469 0 L 6.109375 0 L 6.109375 -12.996094 L 1.980469 -12.996094 Z M 1.980469 0 "/></g></g></g><g fill="#2b4c9a" fill-opacity="1"><g transform="translate(168.833935, 248.628353)"><g><path d="M 9.78125 -13.257812 C 8.285156 -13.257812 6.984375 -12.542969 6.078125 -11.40625 L 6.078125 -12.996094 L 1.917969 -12.996094 L 1.917969 0 L 6.078125 0 L 6.078125 -7.539062 C 6.078125 -8.707031 7.050781 -9.585938 8.253906 -9.585938 C 9.457031 -9.585938 10.300781 -8.707031 10.300781 -7.539062 L 10.300781 0 L 14.425781 0 L 14.425781 -8.222656 C 14.425781 -11.082031 12.347656 -13.257812 9.78125 -13.257812 Z M 9.78125 -13.257812 "/></g></g></g><g fill="#2b4c9a" fill-opacity="1"><g transform="translate(184.396637, 248.628353)"><g><path d="M 11.144531 -22.257812 L 11.144531 -11.859375 C 10.171875 -12.738281 8.9375 -13.257812 7.441406 -13.257812 C 3.835938 -13.257812 1.007812 -10.269531 1.007812 -6.5 C 1.007812 -2.730469 3.835938 0.261719 7.441406 0.261719 C 8.9375 0.261719 10.171875 -0.261719 11.144531 -1.136719 L 11.144531 0.03125 L 15.273438 0 L 15.273438 -22.257812 Z M 8.253906 -3.410156 C 6.53125 -3.410156 5.167969 -4.777344 5.167969 -6.5 C 5.167969 -8.222656 6.53125 -9.585938 8.253906 -9.585938 C 9.941406 -9.585938 11.339844 -8.222656 11.339844 -6.5 C 11.339844 -4.777344 9.941406 -3.410156 8.253906 -3.410156 Z M 8.253906 -3.410156 "/></g></g></g><g fill="#2b4c9a" fill-opacity="1"><g transform="translate(201.064014, 248.628353)"><g><path d="M 15.140625 -6.53125 C 15.140625 -10.59375 12.347656 -13.289062 8.15625 -13.289062 C 3.964844 -13.289062 1.007812 -10.558594 1.007812 -6.5 C 1.007812 -2.4375 3.933594 0.261719 8.285156 0.261719 C 11.894531 0.261719 14.296875 -1.65625 14.945312 -4.484375 L 10.949219 -4.484375 C 10.59375 -3.445312 9.652344 -2.828125 8.222656 -2.828125 C 6.335938 -2.828125 5.363281 -3.964844 5.199219 -5.816406 L 15.140625 -5.816406 Z M 8.222656 -10.105469 C 9.617188 -10.105469 10.429688 -9.457031 10.851562 -8.320312 L 5.457031 -8.320312 C 5.882812 -9.421875 6.757812 -10.105469 8.222656 -10.105469 Z M 8.222656 -10.105469 "/></g></g></g><g fill="#2b4c9a" fill-opacity="1"><g transform="translate(216.659208, 248.628353)"><g><path d="M 9.714844 -13.257812 C 8.1875 -13.257812 6.921875 -12.476562 6.078125 -11.210938 L 6.078125 -12.996094 L 1.917969 -12.996094 L 1.917969 0 L 6.078125 0 L 6.078125 -6.207031 C 6.078125 -8.351562 7.539062 -9.585938 9.585938 -9.585938 C 10.074219 -9.585938 10.496094 -9.519531 10.789062 -9.457031 L 10.789062 -13.128906 C 10.496094 -13.226562 10.105469 -13.257812 9.714844 -13.257812 Z M 9.714844 -13.257812 "/></g></g></g><g fill="#2b4c9a" fill-opacity="1"><g transform="translate(101.562397, 266.428341)"><g><path d="M 2.046875 -5.234375 L 2.046875 -3.59375 L 4.875 -3.59375 L 4.875 -2.625 L 2.046875 -2.625 L 2.046875 0 L 0.796875 0 L 0.796875 -6.203125 L 5.1875 -6.203125 L 5.1875 -5.234375 Z M 2.046875 -5.234375 "/></g></g></g><g fill="#2b4c9a" fill-opacity="1"><g transform="translate(107.979429, 266.428341)"><g><path d="M 2.046875 0 L 0.796875 0 L 0.796875 -6.203125 L 2.046875 -6.203125 Z M 2.046875 0 "/></g></g></g><g fill="#2b4c9a" fill-opacity="1"><g transform="translate(111.687451, 266.428341)"><g><path d="M 6.25 0 L 4.546875 0 L 2 -4.71875 C 2.03125 -4.15625 2.046875 -3.519531 2.046875 -2.8125 L 2.046875 0 L 0.796875 0 L 0.796875 -6.203125 L 2.453125 -6.203125 L 5.0625 -1.40625 C 5.03125 -1.957031 5.015625 -2.609375 5.015625 -3.359375 L 5.015625 -6.203125 L 6.25 -6.203125 Z M 6.25 0 "/></g></g></g><g fill="#2b4c9a" fill-opacity="1"><g transform="translate(119.607504, 266.428341)"><g><path d="M 3.734375 -6.171875 C 4.503906 -6.078125 5.125 -5.78125 5.59375 -5.28125 C 6.0625 -4.789062 6.296875 -4.09375 6.296875 -3.1875 C 6.296875 -2.269531 6.050781 -1.535156 5.5625 -0.984375 C 5.082031 -0.441406 4.46875 -0.125 3.71875 -0.03125 C 3.507812 -0.0078125 3.242188 0 2.921875 0 L 0.796875 0 L 0.796875 -6.203125 L 2.9375 -6.203125 C 3.257812 -6.203125 3.523438 -6.191406 3.734375 -6.171875 Z M 3.4375 -1.015625 C 3.914062 -1.066406 4.289062 -1.28125 4.5625 -1.65625 C 4.84375 -2.039062 4.984375 -2.546875 4.984375 -3.171875 C 4.984375 -3.765625 4.847656 -4.234375 4.578125 -4.578125 C 4.304688 -4.929688 3.9375 -5.140625 3.46875 -5.203125 C 3.28125 -5.222656 3.054688 -5.234375 2.796875 -5.234375 L 2.046875 -5.234375 L 2.046875 -0.984375 L 2.78125 -0.984375 C 3.082031 -0.984375 3.300781 -0.992188 3.4375 -1.015625 Z M 3.4375 -1.015625 "/></g></g></g><g fill="#2b4c9a" fill-opacity="1"><g transform="translate(127.266552, 266.428341)"><g/></g></g><g fill="#2b4c9a" fill-opacity="1"><g transform="translate(130.092565, 266.428341)"><g><path d="M 3.578125 -2.40625 L 3.578125 0 L 2.34375 0 L 2.34375 -2.40625 L 0.140625 -6.203125 L 1.546875 -6.203125 L 3 -3.5 L 4.40625 -6.203125 L 5.765625 -6.203125 Z M 3.578125 -2.40625 "/></g></g></g><g fill="#2b4c9a" fill-opacity="1"><g transform="translate(136.806604, 266.428341)"><g><path d="M 3.53125 -6.34375 C 4.476562 -6.34375 5.222656 -6.046875 5.765625 -5.453125 C 6.316406 -4.867188 6.59375 -4.085938 6.59375 -3.109375 C 6.59375 -2.128906 6.316406 -1.34375 5.765625 -0.75 C 5.222656 -0.164062 4.476562 0.125 3.53125 0.125 C 2.582031 0.125 1.832031 -0.164062 1.28125 -0.75 C 0.726562 -1.34375 0.453125 -2.128906 0.453125 -3.109375 C 0.453125 -4.085938 0.722656 -4.867188 1.265625 -5.453125 C 1.816406 -6.046875 2.570312 -6.34375 3.53125 -6.34375 Z M 2.21875 -1.40625 C 2.539062 -1 2.976562 -0.796875 3.53125 -0.796875 C 4.082031 -0.796875 4.515625 -1 4.828125 -1.40625 C 5.140625 -1.820312 5.296875 -2.390625 5.296875 -3.109375 C 5.296875 -3.828125 5.140625 -4.390625 4.828125 -4.796875 C 4.515625 -5.203125 4.082031 -5.40625 3.53125 -5.40625 C 2.96875 -5.40625 2.53125 -5.203125 2.21875 -4.796875 C 1.90625 -4.390625 1.75 -3.820312 1.75 -3.09375 C 1.75 -2.375 1.90625 -1.8125 2.21875 -1.40625 Z M 2.21875 -1.40625 "/></g></g></g><g fill="#2b4c9a" fill-opacity="1"><g transform="translate(144.771657, 266.428341)"><g><path d="M 5.84375 -6.203125 L 5.84375 -2.53125 C 5.84375 -2.238281 5.835938 -1.992188 5.828125 -1.796875 C 5.785156 -1.234375 5.554688 -0.769531 5.140625 -0.40625 C 4.722656 -0.0507812 4.101562 0.125 3.28125 0.125 C 2.457031 0.125 1.835938 -0.0507812 1.421875 -0.40625 C 1.003906 -0.769531 0.773438 -1.234375 0.734375 -1.796875 C 0.722656 -1.992188 0.71875 -2.238281 0.71875 -2.53125 L 0.71875 -6.203125 L 1.953125 -6.203125 L 1.953125 -2.40625 C 1.953125 -2.195312 1.957031 -2.046875 1.96875 -1.953125 C 2 -1.585938 2.125 -1.300781 2.34375 -1.09375 C 2.5625 -0.894531 2.875 -0.796875 3.28125 -0.796875 C 3.6875 -0.796875 4 -0.894531 4.21875 -1.09375 C 4.4375 -1.300781 4.5625 -1.585938 4.59375 -1.953125 C 4.601562 -2.046875 4.609375 -2.195312 4.609375 -2.40625 L 4.609375 -6.203125 Z M 5.84375 -6.203125 "/></g></g></g><g fill="#2b4c9a" fill-opacity="1"><g transform="translate(152.169701, 266.428341)"><g><path d="M 5.296875 -1.5625 C 5.378906 -0.820312 5.53125 -0.300781 5.75 0 L 4.390625 0 C 4.242188 -0.414062 4.144531 -0.878906 4.09375 -1.390625 C 4 -2.085938 3.71875 -2.457031 3.25 -2.5 C 3.132812 -2.5 2.972656 -2.5 2.765625 -2.5 L 2.046875 -2.5 L 2.046875 0 L 0.796875 0 L 0.796875 -6.203125 L 3.0625 -6.203125 C 3.40625 -6.203125 3.707031 -6.191406 3.96875 -6.171875 C 4.457031 -6.109375 4.847656 -5.941406 5.140625 -5.671875 C 5.441406 -5.410156 5.59375 -5.023438 5.59375 -4.515625 C 5.59375 -4.128906 5.484375 -3.804688 5.265625 -3.546875 C 5.054688 -3.296875 4.765625 -3.113281 4.390625 -3 C 4.921875 -2.800781 5.222656 -2.320312 5.296875 -1.5625 Z M 2.046875 -3.421875 L 2.890625 -3.421875 C 3.140625 -3.421875 3.3125 -3.425781 3.40625 -3.4375 C 4 -3.488281 4.296875 -3.785156 4.296875 -4.328125 C 4.296875 -4.609375 4.222656 -4.816406 4.078125 -4.953125 C 3.941406 -5.085938 3.738281 -5.175781 3.46875 -5.21875 C 3.332031 -5.226562 3.160156 -5.234375 2.953125 -5.234375 L 2.046875 -5.234375 Z M 2.046875 -3.421875 "/></g></g></g><g fill="#2b4c9a" fill-opacity="1"><g transform="translate(159.135742, 266.428341)"><g/></g></g><g fill="#2b4c9a" fill-opacity="1"><g transform="translate(161.961758, 266.428341)"><g><path d="M 7.5 -6.203125 L 7.5 0 L 6.25 0 L 6.25 -2.875 C 6.25 -3.851562 6.253906 -4.5625 6.265625 -5 C 6.097656 -4.28125 5.910156 -3.570312 5.703125 -2.875 L 4.828125 0 L 3.46875 0 L 2.578125 -2.890625 C 2.347656 -3.648438 2.164062 -4.347656 2.03125 -4.984375 C 2.039062 -4.554688 2.046875 -3.851562 2.046875 -2.875 L 2.046875 0 L 0.796875 0 L 0.796875 -6.203125 L 2.765625 -6.203125 L 4.171875 -1.140625 L 5.578125 -6.203125 Z M 7.5 -6.203125 "/></g></g></g><g fill="#2b4c9a" fill-opacity="1"><g transform="translate(171.11481, 266.428341)"><g><path d="M 2.046875 0 L 0.796875 0 L 0.796875 -6.203125 L 2.046875 -6.203125 Z M 2.046875 0 "/></g></g></g><g fill="#2b4c9a" fill-opacity="1"><g transform="translate(174.822833, 266.428341)"><g><path d="M 2.859375 -6.34375 C 3.566406 -6.34375 4.109375 -6.164062 4.484375 -5.8125 C 4.859375 -5.457031 5.082031 -4.984375 5.15625 -4.390625 L 3.890625 -4.390625 C 3.847656 -4.710938 3.738281 -4.960938 3.5625 -5.140625 C 3.382812 -5.316406 3.132812 -5.40625 2.8125 -5.40625 C 2.5625 -5.40625 2.351562 -5.34375 2.1875 -5.21875 C 2.019531 -5.09375 1.9375 -4.910156 1.9375 -4.671875 C 1.9375 -4.410156 2.035156 -4.203125 2.234375 -4.046875 C 2.429688 -3.898438 2.773438 -3.769531 3.265625 -3.65625 C 3.941406 -3.5 4.441406 -3.257812 4.765625 -2.9375 C 5.085938 -2.625 5.25 -2.210938 5.25 -1.703125 C 5.25 -1.140625 5.023438 -0.691406 4.578125 -0.359375 C 4.140625 -0.0351562 3.597656 0.125 2.953125 0.125 C 2.191406 0.125 1.585938 -0.0390625 1.140625 -0.375 C 0.691406 -0.707031 0.4375 -1.195312 0.375 -1.84375 L 1.640625 -1.84375 C 1.710938 -1.507812 1.863281 -1.25 2.09375 -1.0625 C 2.332031 -0.882812 2.613281 -0.796875 2.9375 -0.796875 C 3.21875 -0.796875 3.457031 -0.867188 3.65625 -1.015625 C 3.851562 -1.160156 3.953125 -1.347656 3.953125 -1.578125 C 3.953125 -1.847656 3.859375 -2.0625 3.671875 -2.21875 C 3.484375 -2.382812 3.160156 -2.519531 2.703125 -2.625 C 2.015625 -2.789062 1.5 -3.015625 1.15625 -3.296875 C 0.8125 -3.578125 0.640625 -3.984375 0.640625 -4.515625 C 0.640625 -5.066406 0.851562 -5.507812 1.28125 -5.84375 C 1.71875 -6.175781 2.242188 -6.34375 2.859375 -6.34375 Z M 2.859375 -6.34375 "/></g></g></g><g fill="#2b4c9a" fill-opacity="1"><g transform="translate(181.374873, 266.428341)"><g><path d="M 2.859375 -6.34375 C 3.566406 -6.34375 4.109375 -6.164062 4.484375 -5.8125 C 4.859375 -5.457031 5.082031 -4.984375 5.15625 -4.390625 L 3.890625 -4.390625 C 3.847656 -4.710938 3.738281 -4.960938 3.5625 -5.140625 C 3.382812 -5.316406 3.132812 -5.40625 2.8125 -5.40625 C 2.5625 -5.40625 2.351562 -5.34375 2.1875 -5.21875 C 2.019531 -5.09375 1.9375 -4.910156 1.9375 -4.671875 C 1.9375 -4.410156 2.035156 -4.203125 2.234375 -4.046875 C 2.429688 -3.898438 2.773438 -3.769531 3.265625 -3.65625 C 3.941406 -3.5 4.441406 -3.257812 4.765625 -2.9375 C 5.085938 -2.625 5.25 -2.210938 5.25 -1.703125 C 5.25 -1.140625 5.023438 -0.691406 4.578125 -0.359375 C 4.140625 -0.0351562 3.597656 0.125 2.953125 0.125 C 2.191406 0.125 1.585938 -0.0390625 1.140625 -0.375 C 0.691406 -0.707031 0.4375 -1.195312 0.375 -1.84375 L 1.640625 -1.84375 C 1.710938 -1.507812 1.863281 -1.25 2.09375 -1.0625 C 2.332031 -0.882812 2.613281 -0.796875 2.9375 -0.796875 C 3.21875 -0.796875 3.457031 -0.867188 3.65625 -1.015625 C 3.851562 -1.160156 3.953125 -1.347656 3.953125 -1.578125 C 3.953125 -1.847656 3.859375 -2.0625 3.671875 -2.21875 C 3.484375 -2.382812 3.160156 -2.519531 2.703125 -2.625 C 2.015625 -2.789062 1.5 -3.015625 1.15625 -3.296875 C 0.8125 -3.578125 0.640625 -3.984375 0.640625 -4.515625 C 0.640625 -5.066406 0.851562 -5.507812 1.28125 -5.84375 C 1.71875 -6.175781 2.242188 -6.34375 2.859375 -6.34375 Z M 2.859375 -6.34375 "/></g></g></g><g fill="#2b4c9a" fill-opacity="1"><g transform="translate(187.926912, 266.428341)"><g><path d="M 2.046875 0 L 0.796875 0 L 0.796875 -6.203125 L 2.046875 -6.203125 Z M 2.046875 0 "/></g></g></g><g fill="#2b4c9a" fill-opacity="1"><g transform="translate(191.634935, 266.428341)"><g><path d="M 6.25 0 L 4.546875 0 L 2 -4.71875 C 2.03125 -4.15625 2.046875 -3.519531 2.046875 -2.8125 L 2.046875 0 L 0.796875 0 L 0.796875 -6.203125 L 2.453125 -6.203125 L 5.0625 -1.40625 C 5.03125 -1.957031 5.015625 -2.609375 5.015625 -3.359375 L 5.015625 -6.203125 L 6.25 -6.203125 Z M 6.25 0 "/></g></g></g><g fill="#2b4c9a" fill-opacity="1"><g transform="translate(199.55499, 266.428341)"><g><path d="M 3.640625 -3.171875 L 6.140625 -3.171875 L 6.140625 0 L 5.140625 0 L 5.0625 -1.015625 L 4.78125 -0.375 C 4.445312 -0.0390625 3.945312 0.125 3.28125 0.125 C 2.414062 0.125 1.726562 -0.160156 1.21875 -0.734375 C 0.707031 -1.304688 0.453125 -2.082031 0.453125 -3.0625 C 0.453125 -4.0625 0.738281 -4.859375 1.3125 -5.453125 C 1.894531 -6.046875 2.628906 -6.34375 3.515625 -6.34375 C 4.328125 -6.34375 4.960938 -6.144531 5.421875 -5.75 C 5.878906 -5.351562 6.140625 -4.832031 6.203125 -4.1875 L 6.203125 -4.109375 L 4.96875 -4.109375 L 4.953125 -4.1875 C 4.785156 -5 4.300781 -5.40625 3.5 -5.40625 C 2.988281 -5.40625 2.570312 -5.203125 2.25 -4.796875 C 1.925781 -4.390625 1.765625 -3.835938 1.765625 -3.140625 C 1.765625 -2.390625 1.921875 -1.8125 2.234375 -1.40625 C 2.546875 -1 2.957031 -0.796875 3.46875 -0.796875 C 3.863281 -0.796875 4.195312 -0.914062 4.46875 -1.15625 C 4.738281 -1.40625 4.898438 -1.753906 4.953125 -2.203125 L 3.640625 -2.203125 Z M 3.640625 -3.171875 "/></g></g></g><g fill="#2b4c9a" fill-opacity="1"><g transform="translate(207.268033, 266.428341)"><g/></g></g><g fill="#2b4c9a" fill-opacity="1"><g transform="translate(210.094048, 266.428341)"><g><path d="M 3.859375 -6.171875 C 4.347656 -6.109375 4.75 -5.914062 5.0625 -5.59375 C 5.375 -5.269531 5.53125 -4.832031 5.53125 -4.28125 C 5.53125 -3.726562 5.367188 -3.285156 5.046875 -2.953125 C 4.734375 -2.628906 4.335938 -2.441406 3.859375 -2.390625 C 3.597656 -2.359375 3.296875 -2.34375 2.953125 -2.34375 L 2.046875 -2.34375 L 2.046875 0 L 0.796875 0 L 0.796875 -6.203125 L 2.953125 -6.203125 C 3.296875 -6.203125 3.597656 -6.191406 3.859375 -6.171875 Z M 3.484375 -3.34375 C 3.972656 -3.414062 4.21875 -3.722656 4.21875 -4.265625 C 4.21875 -4.816406 3.972656 -5.128906 3.484375 -5.203125 C 3.347656 -5.222656 3.164062 -5.234375 2.9375 -5.234375 L 2.046875 -5.234375 L 2.046875 -3.328125 L 2.9375 -3.328125 C 3.164062 -3.328125 3.347656 -3.332031 3.484375 -3.34375 Z M 3.484375 -3.34375 "/></g></g></g><g fill="#2b4c9a" fill-opacity="1"><g transform="translate(216.781094, 266.428341)"><g><path d="M 5.28125 -0.984375 L 5.28125 0 L 0.796875 0 L 0.796875 -6.203125 L 5.1875 -6.203125 L 5.1875 -5.234375 L 2.046875 -5.234375 L 2.046875 -3.59375 L 4.96875 -3.59375 L 4.96875 -2.625 L 2.046875 -2.625 L 2.046875 -0.984375 Z M 5.28125 -0.984375 "/></g></g></g><g fill="#2b4c9a" fill-opacity="1"><g transform="translate(223.40514, 266.428341)"><g><path d="M 5.296875 -1.5625 C 5.378906 -0.820312 5.53125 -0.300781 5.75 0 L 4.390625 0 C 4.242188 -0.414062 4.144531 -0.878906 4.09375 -1.390625 C 4 -2.085938 3.71875 -2.457031 3.25 -2.5 C 3.132812 -2.5 2.972656 -2.5 2.765625 -2.5 L 2.046875 -2.5 L 2.046875 0 L 0.796875 0 L 0.796875 -6.203125 L 3.0625 -6.203125 C 3.40625 -6.203125 3.707031 -6.191406 3.96875 -6.171875 C 4.457031 -6.109375 4.847656 -5.941406 5.140625 -5.671875 C 5.441406 -5.410156 5.59375 -5.023438 5.59375 -4.515625 C 5.59375 -4.128906 5.484375 -3.804688 5.265625 -3.546875 C 5.054688 -3.296875 4.765625 -3.113281 4.390625 -3 C 4.921875 -2.800781 5.222656 -2.320312 5.296875 -1.5625 Z M 2.046875 -3.421875 L 2.890625 -3.421875 C 3.140625 -3.421875 3.3125 -3.425781 3.40625 -3.4375 C 4 -3.488281 4.296875 -3.785156 4.296875 -4.328125 C 4.296875 -4.609375 4.222656 -4.816406 4.078125 -4.953125 C 3.941406 -5.085938 3.738281 -5.175781 3.46875 -5.21875 C 3.332031 -5.226562 3.160156 -5.234375 2.953125 -5.234375 L 2.046875 -5.234375 Z M 2.046875 -3.421875 "/></g></g></g><g fill="#2b4c9a" fill-opacity="1"><g transform="translate(230.371181, 266.428341)"><g><path d="M 2.859375 -6.34375 C 3.566406 -6.34375 4.109375 -6.164062 4.484375 -5.8125 C 4.859375 -5.457031 5.082031 -4.984375 5.15625 -4.390625 L 3.890625 -4.390625 C 3.847656 -4.710938 3.738281 -4.960938 3.5625 -5.140625 C 3.382812 -5.316406 3.132812 -5.40625 2.8125 -5.40625 C 2.5625 -5.40625 2.351562 -5.34375 2.1875 -5.21875 C 2.019531 -5.09375 1.9375 -4.910156 1.9375 -4.671875 C 1.9375 -4.410156 2.035156 -4.203125 2.234375 -4.046875 C 2.429688 -3.898438 2.773438 -3.769531 3.265625 -3.65625 C 3.941406 -3.5 4.441406 -3.257812 4.765625 -2.9375 C 5.085938 -2.625 5.25 -2.210938 5.25 -1.703125 C 5.25 -1.140625 5.023438 -0.691406 4.578125 -0.359375 C 4.140625 -0.0351562 3.597656 0.125 2.953125 0.125 C 2.191406 0.125 1.585938 -0.0390625 1.140625 -0.375 C 0.691406 -0.707031 0.4375 -1.195312 0.375 -1.84375 L 1.640625 -1.84375 C 1.710938 -1.507812 1.863281 -1.25 2.09375 -1.0625 C 2.332031 -0.882812 2.613281 -0.796875 2.9375 -0.796875 C 3.21875 -0.796875 3.457031 -0.867188 3.65625 -1.015625 C 3.851562 -1.160156 3.953125 -1.347656 3.953125 -1.578125 C 3.953125 -1.847656 3.859375 -2.0625 3.671875 -2.21875 C 3.484375 -2.382812 3.160156 -2.519531 2.703125 -2.625 C 2.015625 -2.789062 1.5 -3.015625 1.15625 -3.296875 C 0.8125 -3.578125 0.640625 -3.984375 0.640625 -4.515625 C 0.640625 -5.066406 0.851562 -5.507812 1.28125 -5.84375 C 1.71875 -6.175781 2.242188 -6.34375 2.859375 -6.34375 Z M 2.859375 -6.34375 "/></g></g></g><g fill="#2b4c9a" fill-opacity="1"><g transform="translate(236.92322, 266.428341)"><g><path d="M 3.53125 -6.34375 C 4.476562 -6.34375 5.222656 -6.046875 5.765625 -5.453125 C 6.316406 -4.867188 6.59375 -4.085938 6.59375 -3.109375 C 6.59375 -2.128906 6.316406 -1.34375 5.765625 -0.75 C 5.222656 -0.164062 4.476562 0.125 3.53125 0.125 C 2.582031 0.125 1.832031 -0.164062 1.28125 -0.75 C 0.726562 -1.34375 0.453125 -2.128906 0.453125 -3.109375 C 0.453125 -4.085938 0.722656 -4.867188 1.265625 -5.453125 C 1.816406 -6.046875 2.570312 -6.34375 3.53125 -6.34375 Z M 2.21875 -1.40625 C 2.539062 -1 2.976562 -0.796875 3.53125 -0.796875 C 4.082031 -0.796875 4.515625 -1 4.828125 -1.40625 C 5.140625 -1.820312 5.296875 -2.390625 5.296875 -3.109375 C 5.296875 -3.828125 5.140625 -4.390625 4.828125 -4.796875 C 4.515625 -5.203125 4.082031 -5.40625 3.53125 -5.40625 C 2.96875 -5.40625 2.53125 -5.203125 2.21875 -4.796875 C 1.90625 -4.390625 1.75 -3.820312 1.75 -3.09375 C 1.75 -2.375 1.90625 -1.8125 2.21875 -1.40625 Z M 2.21875 -1.40625 "/></g></g></g><g fill="#2b4c9a" fill-opacity="1"><g transform="translate(244.888273, 266.428341)"><g><path d="M 6.25 0 L 4.546875 0 L 2 -4.71875 C 2.03125 -4.15625 2.046875 -3.519531 2.046875 -2.8125 L 2.046875 0 L 0.796875 0 L 0.796875 -6.203125 L 2.453125 -6.203125 L 5.0625 -1.40625 C 5.03125 -1.957031 5.015625 -2.609375 5.015625 -3.359375 L 5.015625 -6.203125 L 6.25 -6.203125 Z M 6.25 0 "/></g></g></g></svg>