<svg width="300" height="300" viewBox="0 0 300 300" fill="none" xmlns="http://www.w3.org/2000/svg">
<g clip-path="url(#clip0_993_320)">
<path d="M196.758 64.9009C194.86 57.5676 186.769 47.1754 156.106 47.1754C108.731 47.1754 101.987 54.1902 89.3794 42.0757C78.7405 31.8516 72.4948 81.0499 86.6771 96.6741C80.6916 118.802 85.4795 140.966 85.4795 140.966H218.766C218.766 140.966 229.955 89.1928 196.758 64.9009Z" fill="#333399"/>
<path d="M98.9374 143.291C98.9374 143.291 93.1918 132.767 81.7007 132.767C70.2074 132.767 62.0668 183.292 98.9374 174.869V143.291Z" fill="#FFE4D1"/>
<path d="M205.306 143.291C205.306 143.291 211.052 132.767 222.545 132.767C234.036 132.767 242.177 183.292 205.306 174.869V143.291Z" fill="#FFE4D1"/>
<path d="M152.123 75.5869C64.0761 75.5869 80.9113 219.988 152.123 219.988C223.335 219.988 240.17 75.5869 152.123 75.5869Z" fill="#FFEFE4"/>
<path d="M152.123 67.7266C152.123 67.7266 92.2341 59.2787 92.2341 136.119C92.2341 136.119 99.776 104.36 117.073 95.6986C125.131 91.6642 128.082 101.884 152.123 101.884C176.161 101.884 179.113 91.6642 187.17 95.6986C204.47 104.36 212.009 136.119 212.009 136.119C212.009 59.2787 152.123 67.7266 152.123 67.7266Z" fill="#333399"/>
<path d="M186.345 228.165L186.152 206.317C177.105 214.458 165.85 219.504 152.686 219.621C139.522 219.737 128.179 214.889 118.991 206.909L119.177 227.992C119.226 233.448 115.737 238.308 110.552 240.008L56.4668 257.747C40.2685 263.06 29.3179 278.179 29.3179 295.225V302.859H276.199V295.21C276.199 278.17 265.256 263.058 249.068 257.738L194.963 239.959C189.859 238.283 186.392 233.538 186.345 228.165Z" fill="#FF8354"/>
<path d="M150.829 287.302C178.572 287.302 202.236 269.888 211.518 245.399L194.963 239.958C189.857 238.281 186.392 233.538 186.345 228.165L186.152 206.315C177.105 214.458 165.85 219.504 152.686 219.62C139.522 219.735 128.179 214.888 118.991 206.907L119.177 227.99C119.226 233.448 115.737 238.306 110.552 240.008L90.5925 246.556C100.175 270.433 123.525 287.302 150.829 287.302Z" fill="#FFE4D1"/>
<path d="M86.3226 267.96H31.2443C26.8039 267.96 23.2068 264.363 23.2068 259.922V202.873C23.2068 198.432 26.8039 194.835 31.2443 194.835C35.6824 194.835 39.2818 198.432 39.2818 202.873V251.887H86.3226C90.763 251.887 94.3601 255.486 94.3601 259.925C94.3601 264.363 90.763 267.96 86.3226 267.96Z" fill="#69EBFC"/>
<path d="M31.2443 76.2351C26.8039 76.2351 23.2068 72.6379 23.2068 68.1976V16.8958C23.2068 12.4577 26.8039 8.85828 31.2443 8.85828H86.3226C90.763 8.85828 94.3601 12.4577 94.3601 16.8958C94.3601 21.3339 90.763 24.9333 86.3226 24.9333H39.2818V68.1976C39.2818 72.6379 35.6846 76.2351 31.2443 76.2351Z" fill="#69EBFC"/>
<path d="M274.273 267.96H219.193C214.754 267.96 211.155 264.363 211.155 259.922C211.155 255.484 214.754 251.885 219.193 251.885H266.236V202.873C266.236 198.432 269.833 194.835 274.273 194.835C278.711 194.835 282.311 198.432 282.311 202.873V259.925C282.311 264.363 278.711 267.96 274.273 267.96Z" fill="#69EBFC"/>
<path d="M274.273 80.0116C269.833 80.0116 266.236 76.4145 266.236 71.9741V24.9333H219.193C214.754 24.9333 211.155 21.3339 211.155 16.8958C211.155 12.4577 214.754 8.85828 219.193 8.85828H274.273C278.711 8.85828 282.311 12.4577 282.311 16.8958V71.9741C282.311 76.4145 278.711 80.0116 274.273 80.0116Z" fill="#69EBFC"/>
<path d="M31.2443 14.5993H86.3226C89.7493 14.5993 92.667 16.7455 93.8241 19.7663C94.165 18.8737 94.3601 17.9094 94.3601 16.8958C94.3601 12.4577 90.763 8.85828 86.3226 8.85828H31.2443C26.8039 8.85828 23.2068 12.4577 23.2068 16.8958V22.6368C23.2068 18.1987 26.8039 14.5993 31.2443 14.5993Z" fill="#A1F1FC"/>
<path d="M274.273 8.85828H219.193C214.754 8.85828 211.155 12.4577 211.155 16.8958C211.155 17.9094 211.35 18.8737 211.693 19.7663C212.848 16.7455 215.766 14.5993 219.193 14.5993H274.273C278.711 14.5993 282.311 18.1987 282.311 22.6368V16.8958C282.311 12.4577 278.711 8.85828 274.273 8.85828Z" fill="#A1F1FC"/>
<path d="M216.219 140.966C216.219 137.449 213.765 134.514 210.478 133.762L204.995 112.298C207.278 111.04 208.825 108.612 208.825 105.819C208.825 101.736 205.515 98.4256 201.431 98.4256C198.339 98.4256 195.692 100.323 194.589 103.018L158.27 99.4953C157.534 96.1875 154.588 93.7117 151.058 93.7117C147.526 93.7117 144.577 96.192 143.843 99.5021L108.112 102.969C106.995 100.3 104.362 98.4256 101.288 98.4256C97.2038 98.4256 93.8937 101.736 93.8937 105.819C93.8937 108.421 95.2393 110.704 97.2711 112.023L91.7588 133.594C87.897 133.841 84.8403 137.041 84.8403 140.963C84.8403 145.022 88.1123 148.315 92.1624 148.355L97.8833 166.542C96.1565 167.897 95.0419 169.996 95.0419 172.36C95.0419 176.309 98.1367 179.523 102.032 179.733L105.914 192.072C104.042 193.413 102.815 195.604 102.815 198.082C102.815 202.166 106.125 205.476 110.211 205.476C112.211 205.476 114.023 204.68 115.355 203.388L143.778 218.358C143.709 218.768 143.664 219.188 143.664 219.618C143.664 223.702 146.974 227.012 151.058 227.012C155.141 227.012 158.452 223.702 158.452 219.618C158.452 219.201 158.409 218.795 158.344 218.396L187.439 203.07C188.792 204.546 190.729 205.476 192.889 205.476C196.973 205.476 200.283 202.166 200.283 198.082C200.283 195.284 198.726 192.846 196.432 191.592L200.157 179.747C200.2 179.747 200.24 179.754 200.281 179.754C204.367 179.754 207.677 176.444 207.677 172.36C207.677 169.803 206.38 167.552 204.409 166.224L210.065 148.245C213.557 147.658 216.219 144.626 216.219 140.966ZM195.013 167.177L159.257 153.221L202.49 144.765C203.2 145.949 204.234 146.917 205.47 147.548L199.987 164.982C198.042 165.058 196.289 165.879 195.013 167.177ZM201.465 140.284L157.51 148.882C156.613 147.276 155.133 146.041 153.356 145.46L153.383 108.12C155.377 107.459 156.994 105.974 157.828 104.068L194.259 107.6C194.984 110.518 197.433 112.749 200.467 113.144L205.849 134.197C203.445 135.256 201.714 137.555 201.465 140.284ZM148.784 195.788H117.235C116.275 192.855 113.537 190.731 110.289 190.695L106.472 178.552C108.403 177.291 109.7 175.152 109.812 172.701L145.509 157.368C146.375 158.348 147.49 159.099 148.761 159.514L148.784 195.788ZM99.5698 140.06C99.2962 137.819 98.0224 135.893 96.2058 134.733L101.711 113.193C105.008 113.005 107.722 110.664 108.471 107.549L144.285 104.075C145.13 106.001 146.77 107.495 148.79 108.145L148.766 145.458C146.983 146.036 145.503 147.274 144.603 148.88L99.5698 140.06ZM96.54 146.969C97.4191 146.337 98.1592 145.518 98.6907 144.567L143.316 153.309L108.569 168.233C107.242 166.264 104.99 164.966 102.434 164.966C102.355 164.966 102.281 164.977 102.203 164.979L96.54 146.969ZM148.788 200.381L148.795 212.581C147.705 212.931 146.729 213.525 145.924 214.303L119.495 200.381H148.788ZM156.216 214.328C155.424 213.556 154.462 212.964 153.388 212.608L153.381 200.383H182.694L156.216 214.328ZM191.878 190.767C189.045 191.155 186.726 193.14 185.861 195.788H153.379L153.356 159.51C154.706 159.068 155.886 158.254 156.77 157.18L192.972 171.308C192.92 171.653 192.887 172.003 192.887 172.362C192.887 174.764 194.039 176.894 195.816 178.244L191.878 190.767Z" fill="#69EBFC"/>
<path d="M276.184 294.822H29.3336C29.3313 294.956 29.3179 295.091 29.3179 295.225V302.859H276.199V295.21C276.199 295.08 276.186 294.952 276.184 294.822Z" fill="#E0734A"/>
</g>
<defs>
<clipPath id="clip0_993_320">
<rect width="300" height="300" fill="white"/>
</clipPath>
</defs>
</svg>
